<?xml version="1.0" encoding="UTF-8"?>
<!-- Created with Inkscape (http://www.inkscape.org/) -->
<svg width="195.35mm" height="64.808mm" version="1.1" viewBox="0 0 195.35211 64.808235" xmlns="http://www.w3.org/2000/svg" xmlns:cc="http://creativecommons.org/ns#" xmlns:dc="http://purl.org/dc/elements/1.1/" xmlns:rdf="http://www.w3.org/1999/02/22-rdf-syntax-ns#">
 <metadata>
  <rdf:RDF>
   <cc:Work rdf:about="">
    <dc:format>image/svg+xml</dc:format>
    <dc:type rdf:resource="http://purl.org/dc/dcmitype/StillImage"/>
    <dc:title/>
   </cc:Work>
  </rdf:RDF>
 </metadata>
 <g transform="translate(-5.6074 -155.95)">
  <g fill="#0a50c0">
   <path d="m101.96 173.75c-3.9127 0.0481-8.0726 1.0718-11.721 2.9854-8.9812 4.7102-14.736 15.832-10.876 23.192 3.8603 7.3605 16.275 8.1731 25.256 3.4628 8.9812-4.7102 14.402-15.966 10.542-23.326-2.292-4.3703-7.4822-6.3847-13.201-6.3143zm-2.6081 9.0139c3.0385-0.0187 5.3194 1.8703 5.4865 4.9366 0.20561 3.774-3.27 8.103-7.351 9.2573-4.081 1.1543-7.5562-0.56839-7.7618-4.3424-0.20561-3.774 3.3371-8.3707 7.4182-9.525 0.76519-0.21643 1.5069-0.32227 2.2081-0.32659z"/>
   <path d="m66.042 173.83c-3.7033 0.0614-7.725 1.5488-11.274 4.1842l0.9865-3.3502h-10.416l-13.809 46.093h10.649l5.3821-18.273c0.69549 0.82411 1.5408 1.539 2.5399 2.1172 6.4919 3.757 16.83 0.62091 22.844-7.4993 6.0135-8.1202 5.7591-18.016-0.73277-21.773-1.8258-1.0566-3.9399-1.5361-6.1696-1.4991zm-5.7242 9.0217c2.4575-0.0171 4.5621 1.0495 5.2028 3.3383 0.97634 3.4877-1.8163 8.4929-5.6601 10.191s-7.9518 0.98189-8.9281-2.5058c-0.97634-3.4877 1.5486-8.4262 5.3924-10.124 1.3213-0.58359 2.7058-0.8902 3.993-0.89917z"/>
   <path d="m145.27 173.78c-1.7016 0.018-3.4383 0.37914-4.9408 1.1043-2.1184 1.0224-4.4361 2.6011-6.072 4.3568l1.3627-4.5692h-10.5l-9.1896 30.626h10.554l4.9274-16.519c0.36357-0.79895 0.89398-1.6778 1.4593-2.4376 1.1339-1.5238 2.5184-2.3801 3.9036-2.9197 1.6049-0.62515 3.3421-0.58716 4.8628-0.20619 1.0349 0.25929 2.0884 0.79543 2.7693 1.3762l7.1474-8.8542c-1.5015-1.3078-3.8562-1.9821-6.2849-1.9565z"/>
  </g>
  <path d="m195.66 156.07-16.773 9.0739-3.208 11.103 9.5911-5.1038-10.138 34.096 11.123-0.0316 14.706-49.06c-1.7672-0.026-3.5344-0.052-5.3016-0.078z" fill="#f9f9f9"/>
  <path d="m28.844 173.69c-1.8244 0.0143-3.7364 0.35054-5.3769 0.83923-7.4997 2.234-11.938 8.1861-10.056 13.664 0.13416 0.43438 0.34582 0.87771 0.56482 1.218 0.82668 1.2769 2.3188 2.3473 3.8675 3.1233 1.0322 0.4317 2.1008 0.84852 3.0959 1.2847 1.3404 0.60703 1.7756 1.1696 1.7756 1.895 0.04962 1.674-1.9238 3.1046-4.5108 2.6901-1.0428-0.16705-1.8112-0.36261-3.5884-1.5254-0.59224-0.38746-1.5013-1.1172-2.4443-1.9373l-6.5639 7.26c4.2118 4.4846 12.139 4.6501 17.906 3.2649 5.2619-1.2639 9.1046-5.0941 10.353-9.1483 0.0037 2.7e-4 0.0072 8e-4 0.01085 1e-3 0.35742-1.0948 0.55087-2.2538 0.55087-3.3683-0.37207-4.6692-4.1067-5.9644-7.3116-7.1106-2.1487-0.71847-3.557-1.2468-3.4669-2.8208 0.29118-1.3836 2.4819-2.1522 4.9556-1.702 1.7484 0.3182 4.0313 0.98988 5.101 1.8443l5.578-7.0342c-2.8831-1.5705-6.7204-2.4673-10.441-2.4381z" fill="#0a50c0"/>
  <path d="m170.37 163.19-10.579 8e-3 -3.5667 11.444h-4.3388l-2.3647 8.1726h4.3326l-3.7574 12.95c-0.33689 1.5753-0.47438 2.6232-0.37533 4.4164 0.0826 2.6114 1.3731 5.1629 5.0774 5.876 2.2382 0.43089 5.5084 0.25033 7.8595-0.66404l3.052-1.016-0.0641-8.5173s-1.0625 0.46221-1.2278 0.52865c-0.44308 0.16378-0.94724 0.26704-1.4309 0.35347-1.4796 0.12086-1.9731-0.77756-1.9755-1.9965 0.0144-0.46089 0.15535-0.94649 0.26417-1.2714l3.1748-10.659 6.4523 0.0129 2.4639-8.1633h-6.3831z" fill="#0a50c0"/>
  <g fill="#f9f9f9">
   <path d="m81.947 156.08c-0.79036-0.0469-1.9868 0.24664-2.7171 0.64542-1.0296 0.56223-1.7574 0.97989-2.7018 1.9084l0.45706-2.0605-5.1884 0.0628-4.4317 15.012 5.0957 0.0293 2.1733-7.3359c0.20514-0.48341 0.65505-1.455 0.95203-1.9072 0.59563-0.90694 1.2888-1.2742 1.9562-1.5618 0.77317-0.33321 1.6797-0.46972 2.558-0.23104 0.54277 0.18793 1.1666 0.34267 1.4561 0.72627l3.3695-4.3271c-0.63705-0.86277-2.9789-0.96077-2.9789-0.96077z"/>
   <path d="m58.375 156.08c-2.8595-0.0109-6.1165 1.6096-8.2636 4.5088-2.9872 4.0337-2.861 8.9491 0.3638 10.815 0.90698 0.52488 1.9573 0.76303 3.0649 0.74466 1.8396-0.0305 3.8374-0.7693 5.6002-2.0784l-0.48989 1.664h5.1738l4.53-15.118h-5.2508l-0.38292 1.2991c-0.34548-0.40937-0.7651-0.76439-1.2614-1.0516-0.90698-0.52489-1.9651-0.77914-3.084-0.78342zm0.01291 4.4328c1.2558-0.0527 2.3243 0.48788 2.6577 1.679 0.48499 1.7325-0.769 4.1858-2.6784 5.0292-0.65635 0.2899-1.3444 0.44203-1.9839 0.44649-1.2207 8e-3 -2.2661-0.52136-2.5843-1.6583-0.48499-1.7325 0.90232-4.2189 2.8117-5.0622 0.59668-0.26354 1.2063-0.41014 1.7772-0.43408z"/>
   <path d="m130.92 156.11c-2.8595-0.0109-6.1166 1.6096-8.2636 4.5088-2.9872 4.0336-2.861 8.9491 0.3638 10.815 0.90698 0.52488 1.9573 0.76303 3.0649 0.74465 1.8396-0.0305 3.8374-0.76929 5.6002-2.0784l-0.48989 1.664h5.1738l4.53-15.118h-5.2508l-0.38292 1.2992c-0.34549-0.40938-0.7651-0.76439-1.2614-1.0516-0.90699-0.52488-1.9651-0.77913-3.084-0.78341zm0.0129 4.4328c1.2558-0.0527 2.3243 0.48788 2.6577 1.679 0.48499 1.7325-0.769 4.1858-2.6784 5.0292-0.65635 0.28989-1.3444 0.44203-1.9839 0.44648-1.2207 8e-3 -2.2661-0.52135-2.5843-1.6583-0.48499-1.7325 0.90232-4.2189 2.8117-5.0622 0.59668-0.26353 1.2063-0.41013 1.7772-0.43408z"/>
   <path d="m114.42 156.12c-0.7938 0.0271-2.1535 0.48273-2.5296 0.63149-0.41378 0.16368-1.5097 0.54992-2.4541 1.4785l0.34158-1.6138-5.1883 0.0625-4.4318 15.013 5.0958 0.0289 2.173-7.3355c0.20514-0.48341 0.62234-1.6867 0.91932-2.1389 0.59563-0.90694 1.2555-1.4064 1.9229-1.694 0.77316-0.33322 1.5969-0.53634 2.4753-0.29766 0.13275 0.0516 0.27478 0.13777 0.41858 0.23513 0.45873 0.18055 0.78568 0.90904 0.78599 1.7513-2.4e-4 0.27119-0.059 0.53909-0.13229 0.80615l-2.5394 8.601 5.0958 0.0294s1.8033-6.0714 2.3244-7.7365c0.343-1.1789 0.97568-2.4404 0.94027-4.2952-0.17025-1.5654-1.0407-2.4184-2.0629-2.8965-0.97184-0.51408-2.2636-0.61525-3.1546-0.62909z"/>
   <path d="m94.636 155.96c-0.29513-5e-3 -0.59436 4e-3 -0.89659 0.0258-5.0054 0.36819-9.8144 4.3217-10.741 8.8305-0.92703 4.5087 2.3788 7.8655 7.384 7.4977 2.9907-0.2219 5.9857-1.7449 8.0843-3.9755l-3.3616-2.0149c-0.3317 0.34749-0.64066 0.63664-1.3451 1.1162-0.73906 0.44709-1.4618 0.5914-2.5409 0.63717-1.1046-0.0361-1.8107-0.41683-2.0815-0.61495-0.62872-0.41701-0.88581-1.7225-0.56069-2.65 0.0016-3e-3 0.0031-5e-3 0.0047-8e-3l11.118 8e-3v-0.0501c0.66804-1.3824 0.90365-3.4556 0.48472-5.0705-0.51639-1.9906-2.5333-3.2778-4.2173-3.5972v-7e-3c-0.03659-6e-3 -0.07481-9e-3 -0.11162-0.015-0.04253-7e-3 -0.08356-0.0113-0.12557-0.0171-0.35621-0.0517-0.71963-0.087-1.093-0.0951zm-1.3901 3.4386c1.0498 0.0277 1.8891 0.55651 2.1627 1.3803 0.08536 0.37462 0.10611 0.69036 0.09095 1.14l-5.7428 8e-3c0.1675-0.97259 1.0069-1.8767 2.1306-2.295 0.37386-0.13918 0.76344-0.21825 1.1457-0.23254 0.07175-3e-3 0.14292-3e-3 0.21291-1e-3z"/>
  </g>
 </g>
</svg>
