<?xml version="1.0" encoding="UTF-8" standalone="no"?>
<svg xmlns="http://www.w3.org/2000/svg" enable-background="new 0 0 600 339.189" xml:space="preserve" height="339.19px" viewBox="0 0 600 339.189" width="600px" version="1.1" y="0px" x="0px"><linearGradient id="SVGID_1_" y2="520.72" gradientUnits="userSpaceOnUse" x2="-4.894" gradientTransform="matrix(242.92 -140.26 -140.26 -242.92 74903 1.2584e5)" y1="520.72" x1="-5.894"><stop stop-color="#572381" offset="0"/><stop stop-color="#111211" offset="1"/></linearGradient><path d="m588.2 36.325c-46.858-0.001-97.918 0.001-139.2 0.002-12.53 0.268-12.631 12.688-12.631 12.688l-0.159 104.34c0 16.682 3.84 28.566 9.489 37.157 5.278 7.409 12.471 13.319 20.896 17.062 9.489 3.938 18.553 4.422 22.711 4.422 1.538 0 2.398-0.109 2.398-0.109h97.657c11.146 0 10.62-11.938 10.62-11.938v-151.73c0-10.506-9.439-11.786-10.724-11.896h-1.07v0.01-0.009zm-74.97 15.215c0.29 0.052 0.5 0.326 0.5 0.635 1.211 6.514 2.448 13.021 3.631 19.533 0.141 0.56-0.5 0.7-0.91 0.756-6.313 1.188-12.028 5.229-15.229 10.807-0.17 0.396-0.59 0.837-1.04 0.496-5.71-3.299-11.396-6.622-17.101-9.932-0.34-0.135-0.609-0.535-0.38-0.883 6.261-11.129 17.67-19.156 30.229-21.384 0.11-0.036 0.21-0.045 0.3-0.028zm12.62 4.883c10.289 0.158 20.499 4.035 28.229 10.846 0.311 0.199 0.318 0.667 0.051 0.902-4.32 4.995-8.642 9.979-12.96 14.969-0.24 0.378-0.75 0.417-1.04 0.072-4.87-4.276-11.62-6.314-18.04-5.375-0.409 0.063-1.079 0.188-1.159-0.389-0.987-6.483-1.92-12.979-2.897-19.465-0.05-0.343-0.142-0.846 0.28-0.988 1.027-0.235 2.09-0.295 3.13-0.408v-0.002c1.47-0.132 2.939-0.186 4.409-0.162zm-50.33 17.173c0.237-0.01 0.487 0.147 0.698 0.257 5.762 3.104 11.539 6.17 17.289 9.284 0.479 0.226 0.29 0.782 0.063 1.133-3.052 5.669-3.474 12.67-1.144 18.668 0.24 0.41 0.271 1.04-0.311 1.16-6.109 2.368-12.229 4.71-18.34 7.068-0.341 0.188-0.859 0.2-0.989-0.25-4.421-11.034-3.979-23.866 1.068-34.608 0.449-0.888 0.812-1.839 1.41-2.641 0.08-0.052 0.16-0.072 0.25-0.077v0.002zm77.56 1.103c0.17 0.011 0.329 0.091 0.449 0.229 9.357 8.685 14.54 21.646 13.76 34.391 0 0.41-0.449 0.569-0.778 0.5-6.59-0.318-13.17-0.631-19.75-0.961-0.607 0.063-0.681-0.641-0.607-1.08 0.29-6.438-2.359-12.937-7.068-17.329-0.381-0.26-0.58-0.823-0.131-1.138 4.551-4.811 9.106-9.622 13.681-14.416 0.12-0.149 0.29-0.209 0.45-0.199v0.001zm-31.6 12.489c3.341 0.986 6.277 3.146 8.277 5.993-0.59-0.378-1.198-0.71-1.84-0.994 0.729 1.617 1.141 3.396 0.97 5.181-1.438 0.689-2.93 1.277-4.34 2.027 1.569-0.227 3.119-0.604 4.67-0.912 1.199 1.36 1.96 3.058 2.313 4.826 0.229-0.421 0.51-0.83 0.641-1.29 0.069-0.2 0.102-0.552 0.352-0.58-0.172 1.771-0.302 3.58-0.932 5.271-0.5 1.562-1.359 2.96-2.271 4.317 0.158-0.67 0.271-1.34 0.368-2.021-1.317 1.188-2.891 2.132-4.641 2.53-1.119-1.183-2.181-2.433-3.341-3.58 0.721 1.46 1.58 2.84 2.358 4.26-0.908 1.562-2.301 2.79-3.868 3.66 0.68 0.142 1.368 0.261 2.067 0.271-3.261 1.09-6.852 1.09-10.107 0 0.698-0.021 1.38-0.131 2.062-0.271-1.569-0.87-2.96-2.103-3.87-3.66 0.79-1.42 1.643-2.811 2.37-4.26-1.16 1.147-2.222 2.397-3.341 3.58-1.75-0.398-3.319-1.33-4.642-2.53 0.091 0.682 0.211 1.36 0.358 2.03-0.83-1.263-1.63-2.54-2.141-3.972-0.671-1.8-0.96-3.738-1.029-5.648 0.358 0.608 0.59 1.29 0.96 1.892 0.359-1.771 1.109-3.472 2.318-4.83 1.562 0.313 3.107 0.688 4.688 0.918-1.42-0.746-2.908-1.344-4.357-2.035-0.17-1.778 0.229-3.561 0.972-5.177-0.649 0.287-1.271 0.621-1.86 1.009 2-2.854 4.95-5.016 8.303-6.002-0.592 0.428-1.108 0.941-1.591 1.479 1.778-0.21 3.641-0.047 5.288 0.703 0.148 1.588 0.342 3.171 0.553 4.752 0.277-1.571 0.408-3.168 0.579-4.756 1.648-0.744 3.5-0.912 5.29-0.695-0.479-0.552-1-1.062-1.59-1.49v0.002zm-4.27 7.525c-2.239 1.633-4.479 3.253-6.721 4.884 0.857 2.633 1.721 5.271 2.567 7.901h8.313c0.858-2.63 1.71-5.271 2.568-7.898-2.239-1.635-4.479-3.269-6.729-4.89v0.001zm-29.27 13.927c0.146 0.021 0.276 0.107 0.351 0.271 0.399 0.777 0.72 1.601 1.17 2.357 2.76 4.988 7.489 8.84 12.93 10.54 0.313 0.13 0.763 0.181 0.83 0.579-0.08 0.619-0.317 1.189-0.487 1.79l-5.433 17.399c-0.067 0.357-0.37 0.76-0.778 0.59-12.302-3.643-22.748-13.029-27.658-24.88-0.16-0.399 0.239-0.66 0.561-0.771 6.021-2.602 12.029-5.209 18.063-7.801 0.14-0.079 0.31-0.109 0.46-0.079zm52.41 2.56c6.58 0.451 13.16 1.021 19.729 1.5 0.359 0 0.939 0.111 0.882 0.593-0.78 12.801-7.62 25.027-18.03 32.487-0.317 0.25-0.72 0.08-0.891-0.238-3.909-5.319-7.811-10.629-11.699-15.959-0.351-0.33-0.141-0.819 0.239-1.021 5.25-3.771 8.71-9.92 9.21-16.37 0.051-0.277 0.011-0.602 0.189-0.83 0.09-0.04 0.279-0.12 0.369-0.16zm-16.2 14.26c0.18 0.029 0.34 0.143 0.43 0.33 3.681 5.461 7.351 10.931 11.021 16.398 0.224 0.239 0.304 0.682 0 0.893-10.561 7.329-24.469 9.579-36.809 5.979-0.45-0.171-0.301-0.721-0.19-1.069 1.763-6.311 3.46-12.63 5.24-18.93 0.17-0.62 0.893-0.317 1.313-0.222 6.237 1.671 13.147 0.421 18.47-3.229 0.15-0.14 0.35-0.19 0.53-0.15zm-1.62 33.56c1.41-0.091 2.851 0.799 3.3 2.17 0.431 1.188 0.07 2.607-0.859 3.459-0.92 0.893-2.38 1.16-3.55 0.643-1.107-0.473-1.869-1.631-1.896-2.83-0.11-1.489 0.947-2.973 2.407-3.33 0.2-0.069 0.4-0.09 0.601-0.109zm-53.55 3.4h5.778v17.159c2.329-0.012 4.648-0.012 6.979 0v5.051h-12.761v-22.21zm35.89 0h5.789v17.147c2.33 0.012 4.66 0 6.99 0.012v5.051h-12.78v-22.21zm30.54 4.04c1.67-0.021 3.33 0.511 4.591 1.63 0.26 0.222 0.5 0.472 0.75 0.71 0-0.659-0.011-1.318 0-1.979h5.14c0 5.291 0.013 10.569 0 15.852-0.01 1.962-0.64 3.951-1.979 5.41-1.579 1.771-3.96 2.642-6.29 2.778-2.46 0.148-5.069-0.358-7.061-1.897-1.359-1.021-2.279-2.59-2.513-4.278h6.04c0.399 0.67 1.021 1.271 1.83 1.369 1.391 0.198 3.029 0.039 4.021-1.08 0.72-0.812 0.59-1.972 0.561-2.972-1.57 1.33-3.62 2.211-5.7 2.021-1.938-0.12-3.811-1.08-5.039-2.58-1.631-1.949-2.237-4.59-2.011-7.079 0.21-2.352 1.22-4.699 3.063-6.229v-0.011c1.261-1.08 2.931-1.64 4.601-1.66zm21.45 0c0.29 0 0.58 0.021 0.857 0.053 1.608 0.141 3.021 1.039 4.183 2.107v-1.813h5.317v17.813h-5.397v-1.723c-2.95 2.973-8.302 2.819-11.183-0.181-1.688-1.739-2.397-4.221-2.438-6.601-0.104-2.813 1.039-5.67 3.146-7.563 1.49-1.341 3.5-2.11 5.51-2.101zm-65.31 0c0.29 0.012 0.58 0.04 0.87 0.08 1.529 0.182 2.859 1.05 3.97 2.08v-1.813h5.32c0 5.938 0.01 11.881 0 17.813h-5.4c-0.01-0.568-0.01-1.148 0-1.723-2.97 2.99-8.35 2.819-11.21-0.22-1.67-1.739-2.366-4.2-2.406-6.567-0.104-2.86 1.08-5.762 3.26-7.644 1.53-1.35 3.57-2.06 5.6-2.01zm33.86 0.36v17.813h-5.38v-17.813h5.38zm11.57 4.27c-0.358-0.021-0.722 0-1.068 0.063-1.279 0.221-2.313 1.25-2.699 2.461-0.54 1.647-0.318 3.67 0.949 4.93 1.511 1.46 4.188 1.199 5.54-0.34 1.41-1.57 1.41-4.148 0.131-5.79-0.69-0.85-1.771-1.27-2.85-1.319zm20.77 0.37c-0.351 0.012-0.689 0.052-1.029 0.143-1.33 0.311-2.431 1.357-2.83 2.67-0.561 1.771-0.09 3.949 1.41 5.131 1.72 1.35 4.448 0.908 5.813-0.762 1.46-1.771 1.237-4.688-0.5-6.188-0.79-0.689-1.83-1-2.86-0.99zm-65.58 0c-0.341 0.012-0.688 0.063-1.021 0.15-1.224 0.318-2.25 1.25-2.689 2.43-0.681 1.813-0.229 4.08 1.279 5.33 1.738 1.398 4.55 0.949 5.896-0.78 1.434-1.778 1.184-4.681-0.566-6.157-0.801-0.69-1.851-1.011-2.9-0.971z" fill="url(#SVGID_1_)"/><linearGradient id="SVGID_2_" y2="518.07" gradientUnits="userSpaceOnUse" x2="-7.6828" gradientTransform="matrix(124.5 -95.364 -95.364 -124.5 50597 63693)" y1="518.07" x1="-8.6816"><stop stop-color="#190031" offset="0"/><stop stop-color="#190031" offset=".0061"/><stop stop-color="#5C2D91" offset="1"/></linearGradient><path d="m0.002 4.071v91.124c0 28.461 23.521 55.22 56.783 55.22s56.749-28.462 56.749-57.307c0-28.844-22.895-56.542-56.783-56.542-33.854 0-48.574 26.724-48.574 26.724v-59.221c0.004-2.227-1.805-4.07-4.065-4.07-2.258-0.002-4.102 1.843-4.102 4.069m8.351 89.038c0-26.824 21.605-48.536 48.294-48.536 26.651 0 48.295 21.713 48.295 48.536 0 26.826-21.643 48.537-48.295 48.537-26.685 0-48.292-21.71-48.292-48.534" fill="url(#SVGID_2_)"/><linearGradient id="SVGID_3_" y2="518.07" gradientUnits="userSpaceOnUse" x2="-7.6808" gradientTransform="matrix(124.5 -95.364 -95.364 -124.5 50656 63770)" y1="518.07" x1="-8.6816"><stop stop-color="#190031" offset="0"/><stop stop-color="#190031" offset=".0061"/><stop stop-color="#5C2D91" offset="1"/></linearGradient><path d="m118.75 93.249c0 31.418 25.504 56.89 56.924 56.89 20.493 0 38.41-10.786 48.469-27 1.287-1.948 0.694-4.595-1.253-5.882-1.914-1.32-4.594-0.8-5.88 1.146-8.525 13.92-23.834 23.208-41.338 23.208-26.722 0-48.361-21.644-48.361-48.361 0-26.724 21.642-48.398 48.361-48.398 25.227 0 45.964 19.313 48.188 43.942h-56.363c-2.366 0-4.245 1.949-4.245 4.313 0 2.366 1.914 4.278 4.28 4.278h60.785c3.201 0 4.279-2.263 4.279-4.141 0-31.454-25.47-56.923-56.924-56.923-31.42-0.006-56.92 25.463-56.93 56.917" fill="url(#SVGID_3_)"/><linearGradient id="SVGID_4_" y2="518.07" gradientUnits="userSpaceOnUse" x2="-7.684" gradientTransform="matrix(124.5 -95.368 -95.368 -124.5 50686 63806)" y1="518.07" x1="-8.6807"><stop stop-color="#190031" offset="0"/><stop stop-color="#190031" offset=".0061"/><stop stop-color="#5C2D91" offset="1"/></linearGradient><path d="m248.92 36.255c-5.531 0-9.708 4.351-9.985 8.281v98.709c0.277 3.933 4.454 8.246 9.985 8.278 5.497-0.032 9.707-4.351 9.985-8.278v-98.7c-0.27-3.932-4.48-8.281-9.98-8.281v-0.004z" fill="url(#SVGID_4_)"/><linearGradient id="SVGID_5_" y2="518.07" gradientUnits="userSpaceOnUse" x2="-7.6816" gradientTransform="matrix(124.5 -95.364 -95.364 -124.5 50720 63853)" y1="518.07" x1="-8.6826"><stop stop-color="#190031" offset="0"/><stop stop-color="#190031" offset=".0061"/><stop stop-color="#5C2D91" offset="1"/></linearGradient><path d="m415.78 36.325c-5.429 0-9.532 4.349-9.85 8.211v72.755c0 2.646-1.635 9.221-7.933 12.212-13.5 6.4-20.459-5.914-20.459-5.914l-45-70.84c-5.186-9.014-21.225-21.955-43.074-13.85-21.052 8.664-21.294 30.551-21.294 30.551v73.799c0.313 3.934 4.487 7.793 9.984 7.828 5.532-0.033 9.777-4.453 9.777-8.979v-70.63s-1.044-13.917 14.996-15.38c9.359-0.521 13.952 9.188 13.952 9.188s40.987 64.614 45.127 71.053c4.178 6.438 20.98 20.877 42.833 12.004 22.098-8.979 20.771-31.104 20.771-31.104l0.033-72.719c-0.313-3.861-4.419-8.177-9.849-8.177m-0.02-0.003h0.031-0.029zm-137.6 114.75h0.034-0.03z" fill="url(#SVGID_5_)"/><linearGradient id="SVGID_6_" y2="518.07" gradientUnits="userSpaceOnUse" x2="-7.6787" gradientTransform="matrix(124.5 -95.364 -95.364 -124.5 50695 63870)" y1="518.07" x1="-8.6816"><stop stop-color="#190031" offset="0"/><stop stop-color="#190031" offset=".0061"/><stop stop-color="#5C2D91" offset="1"/></linearGradient><path d="m217.74 175.74v33.646c0 1.602 1.321 2.888 2.922 2.888 1.636 0 2.958-1.286 2.958-2.888v-14.822h12.908c10.403 0 18.823-8.42 18.823-18.822 0-10.403-8.42-18.856-18.823-18.856-11.51-0.011-18.79 8.1-18.79 18.85m5.85 0c0-7.553 4.803-13.224 12.874-13.224 7.271 0 13.188 5.915 13.188 13.188 0 7.271-5.914 13.117-13.188 13.117h-12.874v-13.09z" fill="url(#SVGID_6_)"/><linearGradient id="SVGID_7_" y2="518.07" gradientUnits="userSpaceOnUse" x2="-7.6806" gradientTransform="matrix(124.5 -95.364 -95.364 -124.5 50717 63898)" y1="518.07" x1="-8.6836"><stop stop-color="#190031" offset="0"/><stop stop-color="#190031" offset=".0061"/><stop stop-color="#5C2D91" offset="1"/></linearGradient><path d="m256.4 184.58c0 15.312 12.456 27.8 27.801 27.8 15.31 0 27.8-12.488 27.8-27.8 0-15.347-12.489-27.835-27.8-27.835-15.34 0-27.8 12.5-27.8 27.84m6.23 0.01c0-11.897 9.673-21.571 21.572-21.571s21.569 9.674 21.569 21.571c0 11.862-9.67 21.57-21.569 21.57-11.9 0-21.57-9.71-21.57-21.57" fill="url(#SVGID_7_)"/><linearGradient id="SVGID_8_" y2="518.07" gradientUnits="userSpaceOnUse" x2="-7.6815" gradientTransform="matrix(124.5 -95.364 -95.364 -124.5 50746 63936)" y1="518.07" x1="-8.6816"><stop stop-color="#190031" offset="0"/><stop stop-color="#190031" offset=".0061"/><stop stop-color="#5C2D91" offset="1"/></linearGradient><path d="m354.13 158.87c-1.704 0-3.131 1.32-3.131 2.99 0 1.637 1.427 2.992 3.131 2.992h12.354v43.979c0 1.705 1.319 3.063 2.991 3.063 1.636 0 2.99-1.354 2.99-3.063v-43.979h12.18c1.737 0 3.133-1.355 3.133-2.992 0-1.67-1.396-2.99-3.133-2.99h-30.51z" fill="url(#SVGID_8_)"/><linearGradient id="SVGID_9_" y2="518.07" gradientUnits="userSpaceOnUse" x2="-7.6846" gradientTransform="matrix(124.5 -95.364 -95.364 -124.5 50684 63854)" y1="518.07" x1="-8.6816"><stop stop-color="#190031" offset="0"/><stop stop-color="#190031" offset=".0061"/><stop stop-color="#5C2D91" offset="1"/></linearGradient><path d="m193.84 156.78c-14.926 0-18.162 10.992-18.162 16.631 0 5.672 4.523 13.256 18.303 13.256 13.778 0 13.187 8.212 13.187 8.523 0 0.313 0.767 10.719-13.15 10.684-11.379-0.034-12.735-8.731-12.563-11.412 0-1.604-1.287-2.816-2.888-2.816-1.565 0-2.854 1.218-2.854 2.816-0.243 9.533 7.272 17.152 18.197 17.152 13.709 0 19.033-8.422 19.033-16.354 0-7.933-6.265-14.369-18.998-14.369-12.734 0-12.596-7.309-12.596-7.309s-0.835-11.169 12.631-11.169c13.465 0 12.421 12.146 12.421 12.146 0 1.563 1.253 2.816 2.817 2.816 1.565 0 2.818-1.253 2.818-2.816 0-17.434-16.736-17.777-18.093-17.777h-0.11" fill="url(#SVGID_9_)"/><linearGradient id="SVGID_10_" y2="518.07" gradientUnits="userSpaceOnUse" x2="-7.6829" gradientTransform="matrix(124.5 -95.364 -95.364 -124.5 50736 63923)" y1="518.07" x1="-8.6797"><stop stop-color="#190031" offset="0"/><stop stop-color="#190031" offset=".0061"/><stop stop-color="#5C2D91" offset="1"/></linearGradient><path d="m314.78 175.74l0.035 33.646c0 1.602 1.318 2.888 2.922 2.888 1.636 0 2.923-1.286 2.923-2.888v-14.822h12.665l9.848 16.074c0.801 1.427 2.646 1.914 4.036 1.111 1.427-0.835 1.914-2.646 1.112-4.068l-8.629-14.127c7.41-2.574 12.732-9.566 12.732-17.813 0-10.402-8.455-18.856-18.822-18.856-11.51 0-18.819 8.109-18.819 18.859m5.85 0c0-7.552 4.836-13.223 12.874-13.223 7.308 0 13.188 5.914 13.188 13.188 0 7.271-5.882 13.117-13.188 13.117h-12.84l-0.03-13.09z" fill="url(#SVGID_10_)"/><path d="m418.96 174.94s1.009-12.146-12.422-12.146c-13.466 0-12.631 11.169-12.631 11.169s-0.142 7.309 12.597 7.309c12.734 0 18.998 6.438 18.998 14.336 0 7.935-5.323 16.389-19.032 16.389-10.961 0-18.477-7.653-18.229-17.188 0-1.564 1.319-2.783 2.889-2.783 1.565 0 2.889 1.219 2.889 2.783-0.174 2.713 1.186 11.412 12.563 11.445 13.917 0.033 13.149-10.367 13.149-10.682 0-0.351 0.594-8.525-13.188-8.525-13.778 0-18.302-7.584-18.302-13.256 0-5.637 3.233-16.632 18.162-16.632 0 0 18.194-0.385 18.194 17.778 0 1.563-1.252 2.816-2.815 2.816-1.57-0.01-2.82-1.26-2.82-2.83" fill="#512C80"/><linearGradient id="SVGID_11_" y2="518.29" gradientUnits="userSpaceOnUse" x2="-6.3171" gradientTransform="matrix(172.2 -99.428 -99.428 -172.2 53268 88835)" y1="518.29" x1="-7.3159"><stop stop-color="#572381" offset="0"/><stop stop-color="#111211" offset="1"/></linearGradient><path fill="url(#SVGID_11_)" d="m484.68 214.65c-8.88 0.19-8.96 8.99-8.96 8.99l-0.11 73.97c0 11.83 2.72 20.26 6.73 26.35 3.74 5.25 8.84 9.44 14.81 12.09 6.73 2.8 13.15 3.14 16.11 3.14 1.09 0 1.69-0.08 1.69-0.08h77.52c7.9 0 7.52-8.46 7.52-8.46v-107.57c0-7.45-6.68-8.36-7.59-8.43h-0.76-106.96zm53.12 16.14c14.75 0 26.73 10.77 26.73 24.91 0 6.73-3.03 13.47-7.88 17.51 7.28 5.38 11.92 13.47 11.92 22.89 0 16.16-13.8 28.96-30.77 28.96s-30.77-12.8-30.77-28.96c0-9.42 4.65-17.51 11.92-22.89-4.85-4.04-7.88-10.78-7.88-17.51 0-14.14 11.98-24.91 26.73-24.91zm0 12.79c-5.99 0-10.91 4.71-10.91 10.77s4.92 11.45 10.91 11.45 10.84-5.39 10.84-11.45-4.85-10.77-10.84-10.77zm0 36.36c-8.15 0-14.68 6.06-14.68 14.14s6.53 14.14 14.68 14.14 14.68-6.06 14.68-14.14-6.53-14.14-14.68-14.14z"/></svg>
