<?xml version="1.0" encoding="utf-8"?>
<!-- Generator: Adobe Illustrator 16.0.0, SVG Export Plug-In . SVG Version: 6.00 Build 0)  -->
<!DOCTYPE svg PUBLIC "-//W3C//DTD SVG 1.1//EN" "http://www.w3.org/Graphics/SVG/1.1/DTD/svg11.dtd">
<svg version="1.1" id="Capa_1" xmlns="http://www.w3.org/2000/svg" xmlns:xlink="http://www.w3.org/1999/xlink" x="0px" y="0px"
	 width="599.998px" height="339.186px" viewBox="0 0 599.998 339.186" enable-background="new 0 0 599.998 339.186"
	 xml:space="preserve">
<linearGradient id="SVGID_1_" gradientUnits="userSpaceOnUse" x1="-9.98" y1="522.2644" x2="-8.98" y2="522.2644" gradientTransform="matrix(242.9151 -140.2572 -140.2572 -242.9151 76110.3906 125639.0391)">
	<stop  offset="0" style="stop-color:#572381"/>
	<stop  offset="1" style="stop-color:#111211"/>
</linearGradient>
<path fill="url(#SVGID_1_)" d="M588.2,36.324c-46.858-0.001-97.918,0.001-139.196,0.002c-12.53,0.267-12.631,12.688-12.631,12.688
	l-0.159,104.338c0,16.681,3.84,28.567,9.489,37.157c5.279,7.41,12.471,13.32,20.898,17.062c9.489,3.938,18.551,4.421,22.71,4.421
	c1.539,0,2.399-0.11,2.399-0.11h97.657c11.148,0,10.62-11.938,10.62-11.938V48.214c0-10.506-9.439-11.787-10.722-11.895H588.2
	V36.324z M513.232,51.539c0.29,0.052,0.5,0.326,0.5,0.635c1.21,6.513,2.449,13.02,3.63,19.533c0.141,0.559-0.5,0.7-0.91,0.756
	c-6.311,1.188-12.028,5.229-15.229,10.806c-0.17,0.395-0.59,0.837-1.04,0.496c-5.71-3.298-11.398-6.622-17.101-9.931
	c-0.34-0.135-0.609-0.535-0.38-0.883c6.261-11.129,17.67-19.156,30.229-21.383C513.042,51.531,513.142,51.521,513.232,51.539z
	 M525.852,56.422c10.289,0.158,20.499,4.035,28.229,10.845c0.311,0.2,0.319,0.667,0.051,0.903c-4.32,4.995-8.642,9.979-12.96,14.968
	c-0.24,0.378-0.75,0.417-1.04,0.073c-4.87-4.277-11.62-6.315-18.04-5.375c-0.409,0.063-1.079,0.188-1.159-0.389
	c-0.989-6.483-1.92-12.979-2.899-19.464c-0.05-0.343-0.141-0.846,0.28-0.989c1.029-0.235,2.09-0.295,3.13-0.408v-0.002
	C522.911,56.452,524.382,56.398,525.852,56.422z M475.523,73.594c0.238-0.009,0.488,0.148,0.699,0.257
	c5.761,3.104,11.539,6.17,17.289,9.284c0.479,0.226,0.29,0.783,0.062,1.133c-3.051,5.669-3.472,12.67-1.142,18.668
	c0.24,0.41,0.271,1.04-0.311,1.16c-6.109,2.369-12.229,4.71-18.34,7.069c-0.34,0.188-0.859,0.2-0.989-0.25
	c-4.421-11.034-3.979-23.866,1.069-34.609c0.45-0.887,0.811-1.839,1.41-2.64C475.353,73.619,475.433,73.598,475.523,73.594
	L475.523,73.594z M553.081,74.698c0.17,0.011,0.329,0.091,0.449,0.229c9.359,8.685,14.54,21.646,13.76,34.391
	c0,0.41-0.449,0.569-0.778,0.5c-6.59-0.319-13.17-0.631-19.75-0.961c-0.609,0.062-0.681-0.64-0.609-1.08
	c0.29-6.438-2.359-12.936-7.068-17.33c-0.381-0.259-0.58-0.823-0.131-1.137c4.551-4.81,9.108-9.622,13.681-14.416
	C552.751,74.748,552.922,74.688,553.081,74.698L553.081,74.698z M521.482,87.186c3.34,0.987,6.278,3.146,8.278,5.993
	c-0.59-0.378-1.199-0.71-1.84-0.994c0.729,1.617,1.141,3.396,0.97,5.18c-1.438,0.69-2.93,1.278-4.34,2.028
	c1.569-0.226,3.119-0.603,4.67-0.912c1.199,1.361,1.96,3.057,2.312,4.826c0.229-0.421,0.51-0.83,0.641-1.29
	c0.069-0.2,0.101-0.551,0.351-0.58c-0.171,1.771-0.301,3.58-0.931,5.271c-0.5,1.561-1.359,2.96-2.271,4.318
	c0.159-0.67,0.271-1.34,0.369-2.021c-1.319,1.188-2.891,2.131-4.641,2.53c-1.119-1.182-2.181-2.432-3.341-3.58
	c0.721,1.46,1.58,2.84,2.359,4.26c-0.909,1.561-2.3,2.79-3.869,3.66c0.68,0.141,1.369,0.26,2.069,0.271
	c-3.261,1.09-6.852,1.09-10.109,0c0.7-0.021,1.38-0.131,2.062-0.271c-1.57-0.87-2.96-2.102-3.87-3.66
	c0.79-1.42,1.641-2.81,2.37-4.26c-1.16,1.148-2.222,2.398-3.341,3.58c-1.75-0.399-3.319-1.33-4.641-2.53
	c0.09,0.681,0.21,1.36,0.359,2.03c-0.83-1.262-1.63-2.54-2.141-3.971c-0.671-1.8-0.96-3.739-1.029-5.649
	c0.358,0.609,0.59,1.29,0.96,1.891c0.359-1.771,1.109-3.471,2.318-4.83c1.562,0.314,3.109,0.687,4.689,0.918
	c-1.42-0.746-2.909-1.343-4.359-2.035c-0.17-1.779,0.229-3.56,0.972-5.177c-0.649,0.287-1.271,0.621-1.86,1.009
	c2-2.854,4.95-5.015,8.301-6.002c-0.59,0.427-1.108,0.942-1.59,1.48c1.779-0.21,3.64-0.047,5.289,0.703
	c0.148,1.588,0.341,3.171,0.551,4.752c0.279-1.572,0.41-3.168,0.58-4.756c1.649-0.744,3.5-0.912,5.29-0.695
	C522.592,88.125,522.072,87.615,521.482,87.186L521.482,87.186z M517.212,94.712c-2.239,1.632-4.479,3.253-6.721,4.883
	c0.859,2.633,1.721,5.272,2.569,7.902h8.311c0.86-2.63,1.71-5.271,2.57-7.899C521.701,97.967,519.462,96.333,517.212,94.712z
	 M487.943,108.637c0.148,0.021,0.278,0.108,0.351,0.271c0.399,0.778,0.72,1.6,1.17,2.358c2.76,4.989,7.489,8.84,12.93,10.54
	c0.311,0.13,0.761,0.181,0.83,0.579c-0.08,0.62-0.319,1.19-0.489,1.79l-5.431,17.4c-0.069,0.358-0.37,0.76-0.779,0.59
	c-12.301-3.642-22.749-13.03-27.659-24.88c-0.16-0.4,0.24-0.66,0.561-0.771c6.021-2.601,12.029-5.209,18.062-7.8
	C487.622,108.637,487.792,108.606,487.943,108.637z M540.351,111.196c6.58,0.451,13.16,1.021,19.729,1.5
	c0.36,0,0.94,0.111,0.882,0.592c-0.78,12.8-7.62,25.028-18.03,32.488c-0.319,0.25-0.72,0.08-0.891-0.239
	c-3.909-5.32-7.811-10.629-11.699-15.959c-0.351-0.33-0.141-0.82,0.239-1.021c5.25-3.771,8.71-9.92,9.21-16.37
	c0.051-0.278,0.011-0.601,0.189-0.83C540.072,111.317,540.261,111.237,540.351,111.196L540.351,111.196z M524.152,125.456
	c0.18,0.03,0.34,0.142,0.43,0.33c3.681,5.461,7.351,10.93,11.021,16.399c0.222,0.239,0.302,0.681,0,0.892
	c-10.561,7.329-24.469,9.579-36.809,5.979c-0.45-0.171-0.301-0.72-0.19-1.069c1.761-6.311,3.46-12.63,5.24-18.93
	c0.17-0.62,0.891-0.318,1.311-0.221c6.239,1.67,13.149,0.42,18.47-3.229C523.772,125.466,523.971,125.417,524.152,125.456z
	 M522.531,159.016c1.41-0.091,2.851,0.799,3.3,2.17c0.431,1.188,0.07,2.608-0.859,3.459c-0.92,0.892-2.38,1.16-3.55,0.642
	c-1.108-0.472-1.869-1.631-1.898-2.83c-0.11-1.49,0.949-2.972,2.409-3.33C522.132,159.065,522.331,159.036,522.531,159.016
	L522.531,159.016z M468.983,162.416h5.779v17.159c2.329-0.011,4.648-0.011,6.979,0v5.051h-12.76L468.983,162.416L468.983,162.416z
	 M504.872,162.416h5.789v17.148c2.33,0.011,4.66,0,6.99,0.011v5.051h-12.779V162.416z M535.411,166.456
	c1.67-0.021,3.33,0.51,4.591,1.63c0.26,0.221,0.5,0.471,0.75,0.71c0-0.66-0.011-1.319,0-1.979h5.14c0,5.291,0.011,10.569,0,15.851
	c-0.01,1.961-0.64,3.951-1.979,5.41c-1.579,1.771-3.96,2.641-6.29,2.779c-2.46,0.148-5.069-0.359-7.06-1.898
	c-1.36-1.021-2.28-2.59-2.512-4.279h6.04c0.399,0.67,1.021,1.271,1.83,1.369c1.391,0.199,3.029,0.039,4.021-1.08
	c0.72-0.811,0.59-1.971,0.561-2.971c-1.57,1.33-3.62,2.211-5.7,2.021c-1.938-0.12-3.811-1.08-5.039-2.58
	c-1.631-1.95-2.239-4.59-2.011-7.079c0.21-2.352,1.22-4.7,3.062-6.229v-0.01C532.072,167.045,533.741,166.475,535.411,166.456
	L535.411,166.456z M556.861,166.465c0.29,0,0.58,0.021,0.859,0.052c1.608,0.14,3.021,1.039,4.181,2.108v-1.812h5.319v17.812h-5.399
	v-1.722c-2.95,2.972-8.301,2.82-11.181-0.18c-1.688-1.74-2.399-4.221-2.438-6.601c-0.102-2.812,1.039-5.67,3.148-7.562
	C552.842,167.215,554.851,166.446,556.861,166.465z M491.552,166.465c0.29,0.011,0.58,0.04,0.87,0.08
	c1.529,0.181,2.859,1.05,3.97,2.08v-1.812h5.32c0,5.939,0.01,11.881,0,17.812h-5.4c-0.01-0.569-0.01-1.149,0-1.722
	c-2.97,2.99-8.35,2.82-11.21-0.22c-1.67-1.739-2.368-4.2-2.408-6.568c-0.102-2.86,1.08-5.761,3.26-7.642
	C487.483,167.125,489.522,166.406,491.552,166.465L491.552,166.465z M525.411,166.815v17.812h-5.38v-17.812H525.411z
	 M536.981,171.094c-0.359-0.021-0.721,0-1.069,0.062c-1.279,0.221-2.312,1.25-2.699,2.461c-0.54,1.648-0.319,3.67,0.949,4.93
	c1.511,1.46,4.188,1.199,5.54-0.34c1.41-1.57,1.41-4.149,0.131-5.79C539.141,171.565,538.061,171.145,536.981,171.094z
	 M557.751,171.465c-0.351,0.011-0.689,0.051-1.029,0.142c-1.33,0.31-2.431,1.358-2.83,2.67c-0.561,1.771-0.09,3.949,1.41,5.13
	c1.72,1.35,4.448,0.909,5.811-0.761c1.46-1.771,1.239-4.688-0.5-6.188C559.821,171.765,558.781,171.446,557.751,171.465
	L557.751,171.465z M492.173,171.465c-0.341,0.011-0.689,0.062-1.021,0.15c-1.222,0.319-2.25,1.25-2.689,2.43
	c-0.681,1.812-0.229,4.08,1.279,5.33c1.739,1.399,4.55,0.949,5.898-0.78c1.432-1.779,1.182-4.681-0.568-6.158
	C494.272,171.745,493.222,171.425,492.173,171.465z"/>
<g>
	
		<linearGradient id="SVGID_2_" gradientUnits="userSpaceOnUse" x1="-11.7031" y1="520.5994" x2="-10.7044" y2="520.5994" gradientTransform="matrix(124.4967 -95.3643 -95.3643 -124.4967 51214.4492 63717.1211)">
		<stop  offset="0" style="stop-color:#190031"/>
		<stop  offset="0.0061" style="stop-color:#190031"/>
		<stop  offset="1" style="stop-color:#5C2D91"/>
	</linearGradient>
	<path fill="url(#SVGID_2_)" d="M0.002,4.069v91.124c0,28.461,23.521,55.219,56.783,55.219c33.262,0,56.749-28.462,56.749-57.306
		S90.639,36.564,56.751,36.564c-33.854,0-48.574,26.723-48.574,26.723V4.07C8.177,1.843,6.368,0,4.108,0
		C1.846-0.002,0.002,1.842,0.002,4.069 M8.353,93.106c0-26.825,21.605-48.536,48.294-48.536c26.651,0,48.295,21.712,48.295,48.536
		c0,26.826-21.643,48.537-48.295,48.537C29.96,141.643,8.353,119.932,8.353,93.106"/>
	
		<linearGradient id="SVGID_3_" gradientUnits="userSpaceOnUse" x1="-11.7031" y1="520.6003" x2="-10.7024" y2="520.6003" gradientTransform="matrix(124.4967 -95.3643 -95.3643 -124.4967 51273.5742 63794.3711)">
		<stop  offset="0" style="stop-color:#190031"/>
		<stop  offset="0.0061" style="stop-color:#190031"/>
		<stop  offset="1" style="stop-color:#5C2D91"/>
	</linearGradient>
	<path fill="url(#SVGID_3_)" d="M118.754,93.248c0,31.418,25.504,56.889,56.924,56.889c20.493,0,38.41-10.786,48.469-27
		c1.287-1.948,0.694-4.594-1.253-5.881c-1.914-1.321-4.594-0.8-5.88,1.147c-8.525,13.919-23.834,23.208-41.338,23.208
		c-26.722,0-48.361-21.643-48.361-48.362c0-26.723,21.642-48.399,48.361-48.399c25.227,0,45.964,19.312,48.188,43.943h-56.363
		c-2.366,0-4.245,1.949-4.245,4.314c0,2.366,1.914,4.278,4.28,4.278h60.785c3.201,0,4.279-2.262,4.279-4.14
		c0-31.454-25.47-56.923-56.924-56.923C144.259,36.325,118.755,61.794,118.754,93.248"/>
	
		<linearGradient id="SVGID_4_" gradientUnits="userSpaceOnUse" x1="-11.7026" y1="520.5994" x2="-10.7046" y2="520.5994" gradientTransform="matrix(124.4967 -95.3681 -95.3681 -124.4967 51302.9219 63830.1367)">
		<stop  offset="0" style="stop-color:#190031"/>
		<stop  offset="0.0061" style="stop-color:#190031"/>
		<stop  offset="1" style="stop-color:#5C2D91"/>
	</linearGradient>
	<path fill="url(#SVGID_4_)" d="M248.92,36.254c-5.531,0-9.708,4.35-9.985,8.281v98.709c0.277,3.932,4.454,8.246,9.985,8.279
		c5.497-0.033,9.707-4.35,9.985-8.279V44.535C258.627,40.603,254.417,36.254,248.92,36.254z"/>
	
		<linearGradient id="SVGID_5_" gradientUnits="userSpaceOnUse" x1="-11.7036" y1="520.5984" x2="-10.7032" y2="520.5984" gradientTransform="matrix(124.4967 -95.3643 -95.3643 -124.4967 51337.1992 63877.3711)">
		<stop  offset="0" style="stop-color:#190031"/>
		<stop  offset="0.0061" style="stop-color:#190031"/>
		<stop  offset="1" style="stop-color:#5C2D91"/>
	</linearGradient>
	<path fill="url(#SVGID_5_)" d="M415.784,36.324c-5.428,0-9.532,4.349-9.848,8.211v72.755c0,2.645-1.635,9.22-7.933,12.212
		c-13.5,6.401-20.459-5.914-20.459-5.914l-44.999-70.839c-5.186-9.013-21.225-21.955-43.074-13.849
		c-21.052,8.664-21.294,30.55-21.294,30.55v73.799c0.313,3.933,4.487,7.793,9.984,7.828c5.532-0.033,9.777-4.453,9.777-8.978V71.469
		c0,0-1.044-13.917,14.996-15.379c9.359-0.521,13.952,9.187,13.952,9.187s40.987,64.614,45.127,71.052
		c4.177,6.438,20.98,20.877,42.833,12.004c22.096-8.978,20.771-31.104,20.771-31.104l0.034-72.719
		c-0.313-3.861-4.419-8.176-9.848-8.176 M415.776,36.331h0.033H415.776z M278.176,151.077h0.034H278.176z"/>
	
		<linearGradient id="SVGID_6_" gradientUnits="userSpaceOnUse" x1="-11.7031" y1="520.6003" x2="-10.7003" y2="520.6003" gradientTransform="matrix(124.4967 -95.3643 -95.3643 -124.4967 51312.5742 63894.1211)">
		<stop  offset="0" style="stop-color:#190031"/>
		<stop  offset="0.0061" style="stop-color:#190031"/>
		<stop  offset="1" style="stop-color:#5C2D91"/>
	</linearGradient>
	<path fill="url(#SVGID_6_)" d="M217.743,175.743v33.646c0,1.601,1.321,2.888,2.922,2.888c1.636,0,2.958-1.287,2.958-2.888v-14.822
		h12.908c10.403,0,18.823-8.42,18.823-18.823s-8.42-18.857-18.823-18.857C225.015,156.885,217.743,164.992,217.743,175.743
		 M223.588,175.743c0-7.552,4.803-13.223,12.874-13.223c7.271,0,13.188,5.915,13.188,13.188c0,7.271-5.914,13.117-13.188,13.117
		h-12.874V175.743z"/>
	
		<linearGradient id="SVGID_7_" gradientUnits="userSpaceOnUse" x1="-11.7041" y1="520.5994" x2="-10.7027" y2="520.5994" gradientTransform="matrix(124.4967 -95.3643 -95.3643 -124.4967 51334.1992 63922.3711)">
		<stop  offset="0" style="stop-color:#190031"/>
		<stop  offset="0.0061" style="stop-color:#190031"/>
		<stop  offset="1" style="stop-color:#5C2D91"/>
	</linearGradient>
	<path fill="url(#SVGID_7_)" d="M256.4,184.58c0,15.311,12.456,27.8,27.801,27.8c15.31,0,27.8-12.489,27.8-27.8
		c0-15.346-12.489-27.835-27.8-27.835C268.856,156.745,256.4,169.235,256.4,184.58 M262.628,184.58
		c0-11.898,9.673-21.572,21.572-21.572c11.899,0,21.57,9.674,21.57,21.572c0,11.863-9.671,21.571-21.57,21.571
		C272.302,206.152,262.628,196.444,262.628,184.58"/>
	
		<linearGradient id="SVGID_8_" gradientUnits="userSpaceOnUse" x1="-11.7031" y1="520.5994" x2="-10.7031" y2="520.5994" gradientTransform="matrix(124.4967 -95.3643 -95.3643 -124.4967 51363.3242 63960.2461)">
		<stop  offset="0" style="stop-color:#190031"/>
		<stop  offset="0.0061" style="stop-color:#190031"/>
		<stop  offset="1" style="stop-color:#5C2D91"/>
	</linearGradient>
	<path fill="url(#SVGID_8_)" d="M354.134,158.868c-1.704,0-3.131,1.321-3.131,2.991c0,1.636,1.427,2.992,3.131,2.992h12.354v43.979
		c0,1.705,1.321,3.063,2.992,3.063c1.635,0,2.991-1.355,2.991-3.063v-43.979h12.179c1.738,0,3.132-1.356,3.132-2.992
		c0-1.67-1.394-2.991-3.132-2.991H354.134z"/>
	
		<linearGradient id="SVGID_9_" gradientUnits="userSpaceOnUse" x1="-11.7031" y1="520.5994" x2="-10.7062" y2="520.5994" gradientTransform="matrix(124.4967 -95.3643 -95.3643 -124.4967 51300.8242 63878.7461)">
		<stop  offset="0" style="stop-color:#190031"/>
		<stop  offset="0.0061" style="stop-color:#190031"/>
		<stop  offset="1" style="stop-color:#5C2D91"/>
	</linearGradient>
	<path fill="url(#SVGID_9_)" d="M193.837,156.782c-14.926,0-18.162,10.993-18.162,16.631c0,5.672,4.523,13.256,18.303,13.256
		c13.778,0,13.187,8.212,13.187,8.524s0.767,10.718-13.15,10.683c-11.379-0.034-12.735-8.732-12.563-11.412
		c0-1.603-1.287-2.817-2.888-2.817c-1.565,0-2.854,1.217-2.854,2.817c-0.243,9.533,7.272,17.152,18.197,17.152
		c13.709,0,19.033-8.421,19.033-16.354c0-7.933-6.265-14.369-18.998-14.369c-12.734,0-12.596-7.308-12.596-7.308
		s-0.835-11.169,12.631-11.169c13.465,0,12.421,12.145,12.421,12.145c0,1.564,1.253,2.817,2.817,2.817
		c1.565,0,2.818-1.253,2.818-2.817c0-17.433-16.736-17.778-18.093-17.778H193.837"/>
	
		<linearGradient id="SVGID_10_" gradientUnits="userSpaceOnUse" x1="-11.7017" y1="520.5994" x2="-10.7045" y2="520.5994" gradientTransform="matrix(124.4967 -95.3643 -95.3643 -124.4967 51353.5742 63947.6211)">
		<stop  offset="0" style="stop-color:#190031"/>
		<stop  offset="0.0061" style="stop-color:#190031"/>
		<stop  offset="1" style="stop-color:#5C2D91"/>
	</linearGradient>
	<path fill="url(#SVGID_10_)" d="M314.781,175.743l0.035,33.646c0,1.601,1.32,2.888,2.922,2.888c1.636,0,2.923-1.287,2.923-2.888
		v-14.822h12.665l9.848,16.074c0.801,1.427,2.646,1.914,4.036,1.112c1.427-0.835,1.914-2.646,1.112-4.069l-8.629-14.127
		c7.411-2.574,12.734-9.567,12.734-17.813c0-10.402-8.455-18.857-18.823-18.857C322.089,156.885,314.781,164.993,314.781,175.743
		 M320.628,175.743c0-7.551,4.836-13.222,12.874-13.222c7.307,0,13.188,5.914,13.188,13.188c0,7.272-5.881,13.117-13.188,13.117
		h-12.84L320.628,175.743z"/>
	<path fill="#512C80" d="M418.96,174.942c0,0,1.009-12.145-12.422-12.145c-13.466,0-12.631,11.169-12.631,11.169
		s-0.14,7.308,12.597,7.308c12.734,0,18.998,6.438,18.998,14.336c0,7.934-5.323,16.388-19.032,16.388
		c-10.961,0-18.477-7.654-18.231-17.188c0-1.565,1.321-2.783,2.889-2.783c1.565,0,2.889,1.218,2.889,2.783
		c-0.174,2.713,1.184,11.412,12.562,11.446c13.917,0.033,13.151-10.368,13.151-10.682c0-0.35,0.592-8.525-13.188-8.525
		c-13.778,0-18.302-7.584-18.302-13.256c0-5.637,3.235-16.632,18.162-16.632c0,0,18.196-0.384,18.196,17.779
		c0,1.563-1.252,2.817-2.817,2.817C420.213,177.76,418.96,176.506,418.96,174.942"/>
</g>
<linearGradient id="SVGID_11_" gradientUnits="userSpaceOnUse" x1="-11.0269" y1="520.4666" x2="-10.0281" y2="520.4666" gradientTransform="matrix(172.2028 -99.428 -99.428 -172.2028 54123.4688 88842.4609)">
	<stop  offset="0" style="stop-color:#572381"/>
	<stop  offset="1" style="stop-color:#111211"/>
</linearGradient>
<path fill="url(#SVGID_11_)" d="M484.678,214.649c-8.882,0.188-8.958,8.995-8.958,8.995l-0.112,73.966
	c0,11.829,2.722,20.259,6.729,26.344c3.741,5.253,8.844,9.447,14.814,12.095c6.729,2.798,13.152,3.138,16.103,3.138
	c1.096,0,1.699-0.076,1.699-0.076h77.52c7.898,0,7.521-8.466,7.521-8.466V223.077c0-7.445-6.689-8.354-7.599-8.429h-0.756
	L484.678,214.649L484.678,214.649z"/>
<path fill="#FFFFFF" d="M510.684,234.094h41.507c1.71,0,3.289,0.197,4.737,0.459c1.841,0.33,3.552,1.184,4.998,2.304
	c1.907,1.513,3.619,4.867,3.684,8.155c0,2.5-0.658,4.341-1.841,5.922l-13.814,17.693c9.67,5.198,16.183,15.391,16.183,27.103
	c0,16.969-13.683,30.72-30.588,30.72c-15.852,0-28.876-12.041-30.521-27.496h15.327c1.446,7.103,7.696,12.365,15.194,12.365
	c8.552,0,15.523-6.973,15.523-15.589c0-8.552-6.116-14.341-15.325-15.524h-0.066c-4.341,0-7.894-3.553-7.894-7.959
	c0-1.91,0.725-3.684,1.843-5l14.011-17.894h-29.338L510.684,234.094z"/>
</svg>
