<?xml version="1.0" encoding="UTF-8" standalone="no"?>
<svg xmlns="http://www.w3.org/2000/svg" enable-background="new 0 0 599.998 339.186" xml:space="preserve" height="339.19px" viewBox="0 0 599.998 339.186" width="600px" version="1.1" y="0px" x="0px"><linearGradient id="SVGID_1_" y2="68.601" gradientUnits="userSpaceOnUse" x2="-6.9375" gradientTransform="matrix(242.92 -140.26 140.26 242.92 -7259 -17605)" y1="68.601" x1="-7.9375"><stop stop-color="#572381" offset="0"/><stop stop-color="#111211" offset="1"/></linearGradient><path d="m588.2 36.324c-46.858-0.001-97.918 0.001-139.2 0.002-12.53 0.267-12.631 12.688-12.631 12.688l-0.159 104.34c0 16.682 3.84 28.567 9.489 37.157 5.279 7.41 12.471 13.32 20.897 17.062 9.489 3.938 18.552 4.422 22.711 4.422 1.538 0 2.398-0.11 2.398-0.11h97.657c11.147 0 10.62-11.938 10.62-11.938v-151.73c0-10.506-9.439-11.787-10.723-11.896h-1.07v0.01zm-74.97 15.215c0.29 0.052 0.5 0.326 0.5 0.635 1.21 6.513 2.448 13.02 3.63 19.533 0.141 0.559-0.5 0.7-0.91 0.756-6.312 1.188-12.028 5.229-15.229 10.806-0.17 0.396-0.59 0.837-1.04 0.496-5.71-3.298-11.397-6.622-17.101-9.931-0.34-0.135-0.609-0.535-0.38-0.883 6.261-11.129 17.67-19.156 30.229-21.384 0.11-0.036 0.21-0.046 0.3-0.028zm12.62 4.883c10.289 0.158 20.499 4.035 28.229 10.845 0.311 0.2 0.319 0.667 0.051 0.903-4.32 4.995-8.642 9.979-12.96 14.968-0.24 0.378-0.75 0.417-1.04 0.073-4.87-4.277-11.62-6.315-18.04-5.375-0.409 0.063-1.079 0.188-1.159-0.389-0.988-6.483-1.92-12.979-2.898-19.465-0.05-0.343-0.141-0.846 0.28-0.988 1.028-0.235 2.09-0.295 3.13-0.408v-0.002c1.47-0.132 2.94-0.186 4.41-0.162zm-50.33 17.172c0.237-0.009 0.487 0.148 0.698 0.257 5.762 3.104 11.539 6.17 17.289 9.284 0.479 0.226 0.29 0.783 0.063 1.133-3.051 5.669-3.473 12.67-1.143 18.668 0.24 0.41 0.271 1.04-0.311 1.16-6.109 2.369-12.229 4.71-18.34 7.069-0.34 0.188-0.859 0.2-0.989-0.25-4.421-11.034-3.979-23.866 1.069-34.609 0.449-0.887 0.811-1.839 1.41-2.64 0.08-0.052 0.16-0.073 0.25-0.077zm77.56 1.104c0.17 0.011 0.329 0.091 0.449 0.229 9.358 8.685 14.54 21.646 13.76 34.391 0 0.41-0.449 0.569-0.778 0.5-6.59-0.318-13.17-0.631-19.75-0.961-0.608 0.063-0.681-0.64-0.608-1.08 0.29-6.438-2.359-12.936-7.068-17.329-0.381-0.26-0.58-0.823-0.131-1.138 4.551-4.81 9.107-9.622 13.681-14.416 0.12-0.149 0.29-0.209 0.45-0.199zm-31.6 12.488c3.34 0.987 6.277 3.146 8.277 5.993-0.59-0.378-1.198-0.71-1.84-0.994 0.729 1.617 1.141 3.396 0.97 5.181-1.438 0.689-2.93 1.277-4.34 2.027 1.569-0.226 3.119-0.603 4.67-0.912 1.199 1.361 1.96 3.058 2.313 4.826 0.229-0.421 0.51-0.83 0.641-1.29 0.069-0.2 0.102-0.551 0.352-0.58-0.172 1.771-0.302 3.58-0.932 5.271-0.5 1.561-1.359 2.96-2.271 4.317 0.158-0.67 0.271-1.34 0.368-2.021-1.318 1.188-2.891 2.131-4.641 2.53-1.119-1.183-2.181-2.433-3.341-3.58 0.721 1.46 1.58 2.84 2.359 4.26-0.909 1.561-2.301 2.79-3.869 3.66 0.68 0.141 1.369 0.26 2.068 0.271-3.261 1.09-6.852 1.09-10.108 0 0.699-0.021 1.38-0.131 2.062-0.271-1.569-0.87-2.96-2.103-3.87-3.66 0.79-1.42 1.642-2.811 2.37-4.26-1.16 1.147-2.222 2.397-3.341 3.58-1.75-0.399-3.319-1.33-4.641-2.53 0.09 0.681 0.21 1.36 0.358 2.03-0.83-1.263-1.63-2.54-2.141-3.972-0.671-1.8-0.96-3.738-1.029-5.648 0.358 0.608 0.59 1.29 0.96 1.891 0.359-1.771 1.109-3.471 2.318-4.83 1.562 0.314 3.108 0.688 4.688 0.918-1.42-0.746-2.908-1.343-4.358-2.035-0.17-1.778 0.229-3.56 0.972-5.177-0.649 0.287-1.271 0.621-1.86 1.009 2-2.854 4.95-5.015 8.302-6.002-0.591 0.428-1.108 0.942-1.59 1.48 1.778-0.21 3.64-0.047 5.288 0.703 0.148 1.588 0.342 3.171 0.552 4.752 0.278-1.572 0.409-3.168 0.58-4.756 1.648-0.744 3.5-0.912 5.29-0.695-0.48-0.552-1-1.062-1.59-1.491zm-4.27 7.526c-2.239 1.632-4.479 3.253-6.721 4.883 0.858 2.633 1.721 5.272 2.568 7.902h8.312c0.859-2.63 1.71-5.271 2.569-7.899-2.24-1.634-4.48-3.268-6.73-4.889zm-29.27 13.928c0.147 0.021 0.277 0.108 0.351 0.271 0.399 0.777 0.72 1.6 1.17 2.357 2.76 4.989 7.489 8.84 12.93 10.54 0.312 0.13 0.762 0.181 0.83 0.579-0.08 0.62-0.318 1.19-0.488 1.79l-5.432 17.4c-0.068 0.357-0.37 0.76-0.778 0.59-12.302-3.643-22.749-13.03-27.659-24.88-0.16-0.4 0.24-0.66 0.561-0.771 6.021-2.601 12.029-5.209 18.063-7.8 0.14-0.08 0.31-0.11 0.46-0.08zm52.41 2.56c6.58 0.451 13.16 1.021 19.729 1.5 0.36 0 0.94 0.111 0.882 0.593-0.78 12.8-7.62 25.027-18.03 32.487-0.318 0.25-0.72 0.08-0.891-0.238-3.909-5.32-7.811-10.629-11.699-15.959-0.351-0.33-0.141-0.82 0.239-1.021 5.25-3.771 8.71-9.92 9.21-16.37 0.051-0.277 0.011-0.601 0.189-0.83 0.09-0.04 0.28-0.12 0.37-0.16zm-16.2 14.26c0.18 0.029 0.34 0.142 0.43 0.33 3.681 5.461 7.351 10.93 11.021 16.398 0.223 0.239 0.303 0.682 0 0.893-10.561 7.329-24.469 9.579-36.809 5.979-0.45-0.171-0.301-0.72-0.19-1.069 1.762-6.311 3.46-12.63 5.24-18.93 0.17-0.62 0.892-0.317 1.312-0.221 6.238 1.67 13.148 0.42 18.47-3.229 0.15-0.14 0.35-0.19 0.53-0.15zm-1.62 33.56c1.41-0.091 2.851 0.799 3.3 2.17 0.431 1.188 0.07 2.608-0.859 3.459-0.92 0.893-2.38 1.16-3.55 0.643-1.107-0.473-1.869-1.631-1.897-2.83-0.11-1.49 0.948-2.973 2.408-3.33 0.2-0.07 0.4-0.09 0.6-0.11zm-53.55 3.4h5.778v17.159c2.329-0.012 4.648-0.012 6.979 0v5.051h-12.76v-22.21zm35.89 0h5.789v17.147c2.33 0.012 4.66 0 6.99 0.012v5.051h-12.779v-22.21zm30.54 4.04c1.67-0.021 3.33 0.51 4.591 1.63 0.26 0.221 0.5 0.471 0.75 0.71 0-0.66-0.011-1.319 0-1.979h5.14c0 5.291 0.012 10.569 0 15.852-0.01 1.961-0.64 3.951-1.979 5.41-1.579 1.771-3.96 2.641-6.29 2.778-2.46 0.148-5.069-0.358-7.06-1.897-1.36-1.021-2.28-2.59-2.513-4.279h6.04c0.399 0.67 1.021 1.271 1.83 1.369 1.391 0.199 3.029 0.039 4.021-1.08 0.72-0.811 0.59-1.971 0.561-2.971-1.57 1.33-3.62 2.211-5.7 2.021-1.938-0.12-3.811-1.08-5.039-2.58-1.631-1.949-2.238-4.59-2.011-7.079 0.21-2.352 1.22-4.699 3.063-6.229v-0.01c1.26-1.08 2.93-1.64 4.6-1.66zm21.45 0c0.29 0 0.58 0.021 0.858 0.052 1.608 0.141 3.021 1.039 4.182 2.108v-1.813h5.318v17.813h-5.398v-1.723c-2.95 2.973-8.301 2.82-11.182-0.18-1.688-1.74-2.398-4.221-2.438-6.601-0.103-2.813 1.039-5.67 3.147-7.563 1.49-1.34 3.5-2.11 5.51-2.1zm-65.31 0c0.29 0.011 0.58 0.04 0.87 0.08 1.529 0.181 2.859 1.05 3.97 2.08v-1.813h5.32c0 5.939 0.01 11.881 0 17.813h-5.4c-0.01-0.569-0.01-1.149 0-1.723-2.97 2.99-8.35 2.82-11.21-0.22-1.67-1.739-2.367-4.2-2.407-6.567-0.103-2.86 1.08-5.762 3.26-7.643 1.53-1.35 3.57-2.06 5.6-2.01zm33.86 0.36v17.813h-5.38v-17.813h5.38zm11.57 4.27c-0.359-0.021-0.722 0-1.069 0.063-1.279 0.221-2.313 1.25-2.699 2.461-0.54 1.647-0.318 3.67 0.949 4.93 1.511 1.46 4.188 1.199 5.54-0.34 1.41-1.57 1.41-4.149 0.131-5.79-0.69-0.85-1.77-1.27-2.85-1.32zm20.77 0.37c-0.351 0.011-0.689 0.051-1.029 0.142-1.33 0.311-2.431 1.358-2.83 2.67-0.561 1.771-0.09 3.949 1.41 5.131 1.72 1.35 4.448 0.908 5.812-0.762 1.46-1.771 1.238-4.688-0.5-6.188-0.79-0.69-1.83-1-2.86-0.99zm-65.58 0c-0.341 0.011-0.688 0.062-1.021 0.15-1.223 0.318-2.25 1.25-2.689 2.43-0.681 1.812-0.229 4.08 1.279 5.33 1.739 1.398 4.55 0.949 5.897-0.78 1.433-1.779 1.183-4.681-0.567-6.158-0.8-0.69-1.85-1.01-2.9-0.97z" fill="url(#SVGID_1_)"/><linearGradient id="SVGID_2_" y2="70.758" gradientUnits="userSpaceOnUse" x2="-9.1942" gradientTransform="matrix(124.5 -95.364 95.364 124.5 -5368 -9760.9)" y1="70.758" x1="-10.193"><stop stop-color="#190031" offset="0"/><stop stop-color="#190031" offset=".0061"/><stop stop-color="#5C2D91" offset="1"/></linearGradient><path d="m0.002 4.069v91.124c0 28.461 23.521 55.22 56.783 55.22s56.749-28.462 56.749-57.307c0-28.844-22.895-56.542-56.783-56.542-33.854 0-48.574 26.724-48.574 26.724v-59.215c0.004-2.227-1.805-4.07-4.065-4.07-2.262-0.002-4.106 1.842-4.106 4.069m8.351 89.037c0-26.824 21.605-48.536 48.294-48.536 26.651 0 48.295 21.713 48.295 48.536 0 26.826-21.643 48.537-48.295 48.537-26.685 0-48.292-21.71-48.292-48.534" fill="url(#SVGID_2_)"/><linearGradient id="SVGID_3_" y2="70.758" gradientUnits="userSpaceOnUse" x2="-9.1922" gradientTransform="matrix(124.5 -95.364 95.364 124.5 -5308.9 -9683.6)" y1="70.758" x1="-10.193"><stop stop-color="#190031" offset="0"/><stop stop-color="#190031" offset=".0061"/><stop stop-color="#5C2D91" offset="1"/></linearGradient><path d="m118.75 93.248c0 31.418 25.504 56.889 56.924 56.889 20.493 0 38.41-10.786 48.469-27 1.287-1.948 0.694-4.594-1.253-5.881-1.914-1.321-4.594-0.8-5.88 1.146-8.525 13.92-23.834 23.208-41.338 23.208-26.722 0-48.361-21.643-48.361-48.361 0-26.724 21.642-48.399 48.361-48.399 25.227 0 45.964 19.313 48.188 43.943h-56.363c-2.366 0-4.245 1.949-4.245 4.313 0 2.366 1.914 4.278 4.28 4.278h60.785c3.201 0 4.279-2.262 4.279-4.14 0-31.454-25.47-56.923-56.924-56.923-31.42-0.006-56.92 25.463-56.93 56.917" fill="url(#SVGID_3_)"/><linearGradient id="SVGID_4_" y2="70.758" gradientUnits="userSpaceOnUse" x2="-9.1953" gradientTransform="matrix(124.5 -95.368 95.368 124.5 -5281.8 -9647.9)" y1="70.758" x1="-10.192"><stop stop-color="#190031" offset="0"/><stop stop-color="#190031" offset=".0061"/><stop stop-color="#5C2D91" offset="1"/></linearGradient><path d="m248.92 36.254c-5.531 0-9.708 4.35-9.985 8.281v98.709c0.277 3.932 4.454 8.246 9.985 8.278 5.497-0.032 9.707-4.35 9.985-8.278v-98.705c-0.27-3.932-4.48-8.281-9.98-8.281z" fill="url(#SVGID_4_)"/><linearGradient id="SVGID_5_" y2="70.759" gradientUnits="userSpaceOnUse" x2="-9.193" gradientTransform="matrix(124.5 -95.364 95.364 124.5 -5245.3 -9600.6)" y1="70.759" x1="-10.194"><stop stop-color="#190031" offset="0"/><stop stop-color="#190031" offset=".0061"/><stop stop-color="#5C2D91" offset="1"/></linearGradient><path d="m415.78 36.324c-5.428 0-9.532 4.349-9.849 8.211v72.755c0 2.645-1.635 9.22-7.933 12.212-13.5 6.4-20.459-5.914-20.459-5.914l-44.999-70.839c-5.186-9.014-21.225-21.955-43.074-13.85-21.052 8.664-21.294 30.551-21.294 30.551v73.799c0.313 3.933 4.487 7.793 9.984 7.828 5.532-0.033 9.777-4.453 9.777-8.979v-70.63s-1.044-13.917 14.996-15.379c9.359-0.521 13.952 9.187 13.952 9.187s40.987 64.614 45.127 71.053c4.178 6.438 20.98 20.877 42.833 12.004 22.097-8.979 20.771-31.104 20.771-31.104l0.034-72.719c-0.313-3.861-4.419-8.176-9.849-8.176m-0.02-0.004h0.032-0.03zm-137.6 114.75h0.034-0.03z" fill="url(#SVGID_5_)"/><linearGradient id="SVGID_6_" y2="70.758" gradientUnits="userSpaceOnUse" x2="-9.1901" gradientTransform="matrix(124.5 -95.364 95.364 124.5 -5269.9 -9583.9)" y1="70.758" x1="-10.193"><stop stop-color="#190031" offset="0"/><stop stop-color="#190031" offset=".0061"/><stop stop-color="#5C2D91" offset="1"/></linearGradient><path d="m217.74 175.74v33.646c0 1.602 1.321 2.888 2.922 2.888 1.636 0 2.958-1.286 2.958-2.888v-14.822h12.908c10.403 0 18.823-8.42 18.823-18.822 0-10.403-8.42-18.857-18.823-18.857-11.51-0.01-18.79 8.1-18.79 18.85m5.85 0c0-7.553 4.803-13.224 12.874-13.224 7.271 0 13.188 5.915 13.188 13.188 0 7.271-5.914 13.117-13.188 13.117h-12.874v-13.09z" fill="url(#SVGID_6_)"/><linearGradient id="SVGID_7_" y2="70.759" gradientUnits="userSpaceOnUse" x2="-9.192" gradientTransform="matrix(124.5 -95.364 95.364 124.5 -5248.3 -9555.6)" y1="70.759" x1="-10.195"><stop stop-color="#190031" offset="0"/><stop stop-color="#190031" offset=".0061"/><stop stop-color="#5C2D91" offset="1"/></linearGradient><path d="m256.4 184.58c0 15.311 12.456 27.8 27.801 27.8 15.31 0 27.8-12.489 27.8-27.8 0-15.347-12.489-27.835-27.8-27.835-15.34 0-27.8 12.5-27.8 27.84m6.23 0c0-11.898 9.673-21.572 21.572-21.572s21.569 9.674 21.569 21.572c0 11.862-9.67 21.57-21.569 21.57-11.9 0-21.57-9.71-21.57-21.57" fill="url(#SVGID_7_)"/><linearGradient id="SVGID_8_" y2="70.759" gradientUnits="userSpaceOnUse" x2="-9.1929" gradientTransform="matrix(124.5 -95.364 95.364 124.5 -5219.1 -9517.8)" y1="70.759" x1="-10.193"><stop stop-color="#190031" offset="0"/><stop stop-color="#190031" offset=".0061"/><stop stop-color="#5C2D91" offset="1"/></linearGradient><path d="m354.13 158.87c-1.704 0-3.131 1.32-3.131 2.99 0 1.637 1.427 2.992 3.131 2.992h12.354v43.979c0 1.705 1.32 3.063 2.992 3.063 1.635 0 2.99-1.354 2.99-3.063v-43.979h12.18c1.737 0 3.132-1.355 3.132-2.992 0-1.67-1.395-2.99-3.132-2.99h-30.51z" fill="url(#SVGID_8_)"/><linearGradient id="SVGID_9_" y2="70.758" gradientUnits="userSpaceOnUse" x2="-9.196" gradientTransform="matrix(124.5 -95.364 95.364 124.5 -5281.6 -9599.3)" y1="70.758" x1="-10.193"><stop stop-color="#190031" offset="0"/><stop stop-color="#190031" offset=".0061"/><stop stop-color="#5C2D91" offset="1"/></linearGradient><path d="m193.84 156.78c-14.926 0-18.162 10.992-18.162 16.631 0 5.672 4.523 13.256 18.303 13.256 13.778 0 13.187 8.212 13.187 8.523 0 0.313 0.767 10.719-13.15 10.684-11.379-0.034-12.735-8.732-12.563-11.412 0-1.604-1.287-2.817-2.888-2.817-1.565 0-2.854 1.218-2.854 2.817-0.243 9.533 7.272 17.152 18.197 17.152 13.709 0 19.033-8.422 19.033-16.354s-6.265-14.369-18.998-14.369c-12.734 0-12.596-7.308-12.596-7.308s-0.835-11.169 12.631-11.169c13.465 0 12.421 12.145 12.421 12.145 0 1.564 1.253 2.817 2.817 2.817 1.565 0 2.818-1.253 2.818-2.817 0-17.433-16.736-17.777-18.093-17.777h-0.11" fill="url(#SVGID_9_)"/><linearGradient id="SVGID_10_" y2="70.759" gradientUnits="userSpaceOnUse" x2="-9.1942" gradientTransform="matrix(124.5 -95.364 95.364 124.5 -5228.9 -9530.4)" y1="70.759" x1="-10.191"><stop stop-color="#190031" offset="0"/><stop stop-color="#190031" offset=".0061"/><stop stop-color="#5C2D91" offset="1"/></linearGradient><path d="m314.78 175.74l0.035 33.646c0 1.602 1.319 2.888 2.922 2.888 1.636 0 2.923-1.286 2.923-2.888v-14.822h12.665l9.848 16.074c0.801 1.427 2.646 1.914 4.036 1.112 1.427-0.835 1.914-2.646 1.112-4.069l-8.629-14.127c7.411-2.574 12.733-9.566 12.733-17.813 0-10.402-8.455-18.857-18.822-18.857-11.51 0-18.82 8.11-18.82 18.86m5.85 0c0-7.552 4.836-13.223 12.874-13.223 7.307 0 13.188 5.914 13.188 13.188 0 7.271-5.882 13.117-13.188 13.117h-12.84l-0.03-13.09z" fill="url(#SVGID_10_)"/><path d="m418.96 174.94s1.009-12.145-12.422-12.145c-13.466 0-12.631 11.169-12.631 11.169s-0.141 7.308 12.597 7.308c12.734 0 18.998 6.438 18.998 14.336 0 7.935-5.323 16.389-19.032 16.389-10.961 0-18.477-7.654-18.23-17.188 0-1.564 1.32-2.783 2.889-2.783 1.565 0 2.889 1.219 2.889 2.783-0.174 2.713 1.185 11.412 12.563 11.446 13.917 0.033 13.15-10.368 13.15-10.682 0-0.351 0.593-8.525-13.188-8.525-13.778 0-18.302-7.584-18.302-13.256 0-5.637 3.234-16.632 18.162-16.632 0 0 18.195-0.385 18.195 17.778 0 1.563-1.252 2.817-2.816 2.817-1.57-0.01-2.82-1.26-2.82-2.83" fill="#512C80"/><linearGradient id="SVGID_11_" y2="70.717" gradientUnits="userSpaceOnUse" x2="-8.1731" gradientTransform="matrix(172.2 -99.428 99.428 172.2 -4976.2 -12776)" y1="70.717" x1="-9.1719"><stop stop-color="#572381" offset="0"/><stop stop-color="#111211" offset="1"/></linearGradient><path fill="url(#SVGID_11_)" d="m591.64 214.65h-106.96c-8.88 0.19-8.96 8.99-8.96 8.99l-0.11 73.97c0 11.83 2.72 20.26 6.73 26.35 3.74 5.25 8.84 9.44 14.81 12.09 6.73 2.8 13.15 3.14 16.11 3.14 1.09 0 1.69-0.08 1.69-0.08h77.52c7.9 0 7.52-8.46 7.52-8.46v-107.57c0-7.45-6.68-8.36-7.59-8.43h-0.76zm-85.84 21.46h44.31c6.82 0 12.36 5.1 12.36 12.12 0 1.27-0.25 2.55-0.63 3.82l-24.68 73.31h-18.61l26.26-72.67h-35.19l-3.82-16.58z"/></svg>
