<?xml version="1.0" encoding="utf-8"?>
<!-- Generator: Adobe Illustrator 16.0.0, SVG Export Plug-In . SVG Version: 6.00 Build 0)  -->
<!DOCTYPE svg PUBLIC "-//W3C//DTD SVG 1.1//EN" "http://www.w3.org/Graphics/SVG/1.1/DTD/svg11.dtd">
<svg version="1.1" id="Capa_1" xmlns="http://www.w3.org/2000/svg" xmlns:xlink="http://www.w3.org/1999/xlink" x="0px" y="0px"
	 width="600px" height="339.189px" viewBox="0 0 600 339.189" enable-background="new 0 0 600 339.189" xml:space="preserve">
<linearGradient id="SVGID_1_" gradientUnits="userSpaceOnUse" x1="-5.894" y1="520.7229" x2="-4.894" y2="520.7229" gradientTransform="matrix(242.92 -140.26 -140.26 -242.92 74902.9375 125839.9453)">
	<stop  offset="0" style="stop-color:#572381"/>
	<stop  offset="1" style="stop-color:#111211"/>
</linearGradient>
<path fill="url(#SVGID_1_)" d="M588.2,36.325c-46.858-0.001-97.918,0.001-139.2,0.002c-12.53,0.268-12.631,12.688-12.631,12.688
	l-0.159,104.34c0,16.682,3.84,28.566,9.489,37.157c5.278,7.409,12.471,13.319,20.896,17.062c9.489,3.938,18.553,4.422,22.711,4.422
	c1.538,0,2.398-0.109,2.398-0.109h97.657c11.146,0,10.62-11.938,10.62-11.938V48.218c0-10.506-9.439-11.786-10.724-11.896h-1.07
	v0.01L588.2,36.325z M513.229,51.54c0.29,0.052,0.5,0.326,0.5,0.635c1.211,6.514,2.448,13.021,3.631,19.533
	c0.141,0.56-0.5,0.7-0.91,0.756c-6.313,1.188-12.028,5.229-15.229,10.807c-0.17,0.396-0.59,0.837-1.04,0.496
	c-5.71-3.299-11.396-6.622-17.101-9.932c-0.34-0.135-0.609-0.535-0.38-0.883c6.261-11.129,17.67-19.156,30.229-21.384
	C513.039,51.532,513.139,51.523,513.229,51.54L513.229,51.54z M525.85,56.423c10.289,0.158,20.499,4.035,28.229,10.846
	c0.311,0.199,0.318,0.667,0.051,0.902c-4.32,4.995-8.642,9.979-12.96,14.969c-0.24,0.378-0.75,0.417-1.04,0.072
	c-4.87-4.276-11.62-6.314-18.04-5.375c-0.409,0.063-1.079,0.188-1.159-0.389c-0.987-6.483-1.92-12.979-2.897-19.465
	c-0.05-0.343-0.142-0.846,0.28-0.988c1.027-0.235,2.09-0.295,3.13-0.408v-0.002c1.47-0.132,2.939-0.186,4.409-0.162H525.85z
	 M475.52,73.596c0.237-0.01,0.487,0.147,0.698,0.257c5.762,3.104,11.539,6.17,17.289,9.284c0.479,0.226,0.29,0.782,0.063,1.133
	c-3.052,5.669-3.474,12.67-1.144,18.668c0.24,0.41,0.271,1.04-0.311,1.16c-6.109,2.368-12.229,4.71-18.34,7.068
	c-0.341,0.188-0.859,0.2-0.989-0.25c-4.421-11.034-3.979-23.866,1.068-34.608c0.449-0.888,0.812-1.839,1.41-2.641
	c0.08-0.052,0.16-0.072,0.25-0.077L475.52,73.596z M553.08,74.699c0.17,0.011,0.329,0.091,0.449,0.229
	c9.357,8.685,14.54,21.646,13.76,34.391c0,0.41-0.449,0.569-0.778,0.5c-6.59-0.318-13.17-0.631-19.75-0.961
	c-0.607,0.063-0.681-0.641-0.607-1.08c0.29-6.438-2.359-12.937-7.068-17.329c-0.381-0.26-0.58-0.823-0.131-1.138
	c4.551-4.811,9.106-9.622,13.681-14.416c0.12-0.149,0.29-0.209,0.45-0.199L553.08,74.699z M521.479,87.188
	c3.341,0.986,6.277,3.146,8.277,5.993c-0.59-0.378-1.198-0.71-1.84-0.994c0.729,1.617,1.141,3.396,0.97,5.181
	c-1.438,0.689-2.93,1.277-4.34,2.027c1.569-0.227,3.119-0.604,4.67-0.912c1.199,1.36,1.96,3.058,2.313,4.826
	c0.229-0.421,0.51-0.83,0.641-1.29c0.069-0.2,0.102-0.552,0.352-0.58c-0.172,1.771-0.302,3.58-0.932,5.271
	c-0.5,1.562-1.359,2.96-2.271,4.317c0.158-0.67,0.271-1.34,0.368-2.021c-1.317,1.188-2.891,2.132-4.641,2.53
	c-1.119-1.183-2.181-2.433-3.341-3.58c0.721,1.46,1.58,2.84,2.358,4.26c-0.908,1.562-2.301,2.79-3.868,3.66
	c0.68,0.142,1.368,0.261,2.067,0.271c-3.261,1.09-6.852,1.09-10.107,0c0.698-0.021,1.38-0.131,2.062-0.271
	c-1.569-0.87-2.96-2.103-3.87-3.66c0.79-1.42,1.643-2.811,2.37-4.26c-1.16,1.147-2.222,2.397-3.341,3.58
	c-1.75-0.398-3.319-1.33-4.642-2.53c0.091,0.682,0.211,1.36,0.358,2.03c-0.83-1.263-1.63-2.54-2.141-3.972
	c-0.671-1.8-0.96-3.738-1.029-5.648c0.358,0.608,0.59,1.29,0.96,1.892c0.359-1.771,1.109-3.472,2.318-4.83
	c1.562,0.313,3.107,0.688,4.688,0.918c-1.42-0.746-2.908-1.344-4.357-2.035c-0.17-1.778,0.229-3.561,0.972-5.177
	c-0.649,0.287-1.271,0.621-1.86,1.009c2-2.854,4.95-5.016,8.303-6.002c-0.592,0.428-1.108,0.941-1.591,1.479
	c1.778-0.21,3.641-0.047,5.288,0.703c0.148,1.588,0.342,3.171,0.553,4.752c0.277-1.571,0.408-3.168,0.579-4.756
	c1.648-0.744,3.5-0.912,5.29-0.695c-0.479-0.552-1-1.062-1.59-1.49L521.479,87.188z M517.21,94.713
	c-2.239,1.633-4.479,3.253-6.721,4.884c0.857,2.633,1.721,5.271,2.567,7.901h8.313c0.858-2.63,1.71-5.271,2.568-7.898
	c-2.239-1.635-4.479-3.269-6.729-4.89L517.21,94.713z M487.94,108.642c0.146,0.021,0.276,0.107,0.351,0.271
	c0.399,0.777,0.72,1.601,1.17,2.357c2.76,4.988,7.489,8.84,12.93,10.54c0.313,0.13,0.763,0.181,0.83,0.579
	c-0.08,0.619-0.317,1.189-0.487,1.79l-5.433,17.399c-0.067,0.357-0.37,0.76-0.778,0.59c-12.302-3.643-22.748-13.029-27.658-24.88
	c-0.16-0.399,0.239-0.66,0.561-0.771c6.021-2.602,12.029-5.209,18.063-7.801c0.14-0.079,0.31-0.109,0.46-0.079L487.94,108.642z
	 M540.35,111.201c6.58,0.451,13.16,1.021,19.729,1.5c0.359,0,0.939,0.111,0.882,0.593c-0.78,12.801-7.62,25.027-18.03,32.487
	c-0.317,0.25-0.72,0.08-0.891-0.238c-3.909-5.319-7.811-10.629-11.699-15.959c-0.351-0.33-0.141-0.819,0.239-1.021
	c5.25-3.771,8.71-9.92,9.21-16.37c0.051-0.277,0.011-0.602,0.189-0.83c0.09-0.04,0.279-0.12,0.369-0.16L540.35,111.201z
	 M524.15,125.461c0.18,0.029,0.34,0.143,0.43,0.33c3.681,5.461,7.351,10.931,11.021,16.398c0.224,0.239,0.304,0.682,0,0.893
	c-10.561,7.329-24.469,9.579-36.809,5.979c-0.45-0.171-0.301-0.721-0.19-1.069c1.763-6.311,3.46-12.63,5.24-18.93
	c0.17-0.62,0.893-0.317,1.313-0.222c6.237,1.671,13.147,0.421,18.47-3.229c0.15-0.14,0.35-0.19,0.53-0.15L524.15,125.461z
	 M522.53,159.022c1.41-0.091,2.851,0.799,3.3,2.17c0.431,1.188,0.07,2.607-0.859,3.459c-0.92,0.893-2.38,1.16-3.55,0.643
	c-1.107-0.473-1.869-1.631-1.896-2.83c-0.11-1.489,0.947-2.973,2.407-3.33c0.2-0.069,0.4-0.09,0.601-0.109L522.53,159.022z
	 M468.979,162.421h5.778v17.159c2.329-0.012,4.648-0.012,6.979,0v5.051h-12.761v-22.21H468.979z M504.87,162.421h5.789v17.147
	c2.33,0.012,4.66,0,6.99,0.012v5.051H504.87V162.421z M535.41,166.461c1.67-0.021,3.33,0.511,4.591,1.63
	c0.26,0.222,0.5,0.472,0.75,0.71c0-0.659-0.011-1.318,0-1.979h5.14c0,5.291,0.013,10.569,0,15.852
	c-0.01,1.962-0.64,3.951-1.979,5.41c-1.579,1.771-3.96,2.642-6.29,2.778c-2.46,0.148-5.069-0.358-7.061-1.897
	c-1.359-1.021-2.279-2.59-2.513-4.278h6.04c0.399,0.67,1.021,1.271,1.83,1.369c1.391,0.198,3.029,0.039,4.021-1.08
	c0.72-0.812,0.59-1.972,0.561-2.972c-1.57,1.33-3.62,2.211-5.7,2.021c-1.938-0.12-3.811-1.08-5.039-2.58
	c-1.631-1.949-2.237-4.59-2.011-7.079c0.21-2.352,1.22-4.699,3.063-6.229v-0.011c1.261-1.08,2.931-1.64,4.601-1.66L535.41,166.461z
	 M556.86,166.461c0.29,0,0.58,0.021,0.857,0.053c1.608,0.141,3.021,1.039,4.183,2.107v-1.813h5.317v17.813h-5.397v-1.723
	c-2.95,2.973-8.302,2.819-11.183-0.181c-1.688-1.739-2.397-4.221-2.438-6.601c-0.104-2.813,1.039-5.67,3.146-7.563
	c1.49-1.341,3.5-2.11,5.51-2.101L556.86,166.461z M491.55,166.461c0.29,0.012,0.58,0.04,0.87,0.08c1.529,0.182,2.859,1.05,3.97,2.08
	v-1.813h5.32c0,5.938,0.01,11.881,0,17.813h-5.4c-0.01-0.568-0.01-1.148,0-1.723c-2.97,2.99-8.35,2.819-11.21-0.22
	c-1.67-1.739-2.366-4.2-2.406-6.567c-0.104-2.86,1.08-5.762,3.26-7.644c1.53-1.35,3.57-2.06,5.6-2.01L491.55,166.461z
	 M525.41,166.822v17.813h-5.38v-17.813H525.41z M536.979,171.091c-0.358-0.021-0.722,0-1.068,0.063
	c-1.279,0.221-2.313,1.25-2.699,2.461c-0.54,1.647-0.318,3.67,0.949,4.93c1.511,1.46,4.188,1.199,5.54-0.34
	c1.41-1.57,1.41-4.148,0.131-5.79c-0.69-0.85-1.771-1.27-2.85-1.319L536.979,171.091z M557.75,171.461
	c-0.351,0.012-0.689,0.052-1.029,0.143c-1.33,0.311-2.431,1.357-2.83,2.67c-0.561,1.771-0.09,3.949,1.41,5.131
	c1.72,1.35,4.448,0.908,5.813-0.762c1.46-1.771,1.237-4.688-0.5-6.188c-0.79-0.689-1.83-1-2.86-0.99L557.75,171.461z
	 M492.17,171.461c-0.341,0.012-0.688,0.063-1.021,0.15c-1.224,0.318-2.25,1.25-2.689,2.43c-0.681,1.813-0.229,4.08,1.279,5.33
	c1.738,1.398,4.55,0.949,5.896-0.78c1.434-1.778,1.184-4.681-0.566-6.157c-0.801-0.69-1.851-1.011-2.9-0.971L492.17,171.461z"/>
<linearGradient id="SVGID_2_" gradientUnits="userSpaceOnUse" x1="-8.6816" y1="518.0735" x2="-7.6828" y2="518.0735" gradientTransform="matrix(124.5 -95.364 -95.364 -124.5 50597.1094 63692.6758)">
	<stop  offset="0" style="stop-color:#190031"/>
	<stop  offset="0.0061" style="stop-color:#190031"/>
	<stop  offset="1" style="stop-color:#5C2D91"/>
</linearGradient>
<path fill="url(#SVGID_2_)" d="M0.002,4.071v91.124c0,28.461,23.521,55.22,56.783,55.22c33.262,0,56.749-28.462,56.749-57.307
	c0-28.844-22.895-56.542-56.783-56.542c-33.854,0-48.574,26.724-48.574,26.724V4.074c0.004-2.227-1.805-4.07-4.065-4.07
	C1.85,0.002,0.006,1.847,0.006,4.073 M8.357,93.111c0-26.824,21.605-48.536,48.294-48.536c26.651,0,48.295,21.713,48.295,48.536
	c0,26.826-21.643,48.537-48.295,48.537c-26.685,0-48.292-21.71-48.292-48.534"/>
<linearGradient id="SVGID_3_" gradientUnits="userSpaceOnUse" x1="-8.6816" y1="518.0735" x2="-7.6808" y2="518.0735" gradientTransform="matrix(124.5 -95.364 -95.364 -124.5 50656.2031 63769.9258)">
	<stop  offset="0" style="stop-color:#190031"/>
	<stop  offset="0.0061" style="stop-color:#190031"/>
	<stop  offset="1" style="stop-color:#5C2D91"/>
</linearGradient>
<path fill="url(#SVGID_3_)" d="M118.75,93.249c0,31.418,25.504,56.89,56.924,56.89c20.493,0,38.41-10.786,48.469-27
	c1.287-1.948,0.694-4.595-1.253-5.882c-1.914-1.32-4.594-0.8-5.88,1.146c-8.525,13.92-23.834,23.208-41.338,23.208
	c-26.722,0-48.361-21.644-48.361-48.361c0-26.724,21.642-48.398,48.361-48.398c25.227,0,45.964,19.313,48.188,43.942h-56.363
	c-2.366,0-4.245,1.949-4.245,4.313c0,2.366,1.914,4.278,4.28,4.278h60.785c3.201,0,4.279-2.263,4.279-4.141
	c0-31.454-25.47-56.923-56.924-56.923c-31.42-0.006-56.92,25.463-56.93,56.917"/>
<linearGradient id="SVGID_4_" gradientUnits="userSpaceOnUse" x1="-8.6807" y1="518.0735" x2="-7.684" y2="518.0735" gradientTransform="matrix(124.5 -95.368 -95.368 -124.5 50685.6641 63805.625)">
	<stop  offset="0" style="stop-color:#190031"/>
	<stop  offset="0.0061" style="stop-color:#190031"/>
	<stop  offset="1" style="stop-color:#5C2D91"/>
</linearGradient>
<path fill="url(#SVGID_4_)" d="M248.92,36.255c-5.531,0-9.708,4.351-9.985,8.281v98.709c0.277,3.933,4.454,8.246,9.985,8.278
	c5.497-0.032,9.707-4.351,9.985-8.278V44.54c-0.27-3.932-4.48-8.281-9.98-8.281L248.92,36.255z"/>
<linearGradient id="SVGID_5_" gradientUnits="userSpaceOnUse" x1="-8.6826" y1="518.0735" x2="-7.6816" y2="518.0735" gradientTransform="matrix(124.5 -95.364 -95.364 -124.5 50719.8125 63852.9258)">
	<stop  offset="0" style="stop-color:#190031"/>
	<stop  offset="0.0061" style="stop-color:#190031"/>
	<stop  offset="1" style="stop-color:#5C2D91"/>
</linearGradient>
<path fill="url(#SVGID_5_)" d="M415.78,36.325c-5.429,0-9.532,4.349-9.85,8.211v72.755c0,2.646-1.635,9.221-7.933,12.212
	c-13.5,6.4-20.459-5.914-20.459-5.914L332.54,52.75c-5.186-9.014-21.225-21.955-43.074-13.85
	c-21.052,8.664-21.294,30.551-21.294,30.551v73.799c0.313,3.934,4.487,7.793,9.984,7.828c5.532-0.033,9.777-4.453,9.777-8.979V71.47
	c0,0-1.044-13.917,14.996-15.38c9.359-0.521,13.952,9.188,13.952,9.188s40.987,64.614,45.127,71.053
	c4.178,6.438,20.98,20.877,42.833,12.004c22.098-8.979,20.771-31.104,20.771-31.104l0.033-72.719
	c-0.313-3.861-4.419-8.177-9.849-8.177 M415.777,36.331h0.031h-0.029H415.777z M278.177,151.081h0.034h-0.03H278.177z"/>
<linearGradient id="SVGID_6_" gradientUnits="userSpaceOnUse" x1="-8.6816" y1="518.0735" x2="-7.6787" y2="518.0735" gradientTransform="matrix(124.5 -95.364 -95.364 -124.5 50695.2031 63869.6758)">
	<stop  offset="0" style="stop-color:#190031"/>
	<stop  offset="0.0061" style="stop-color:#190031"/>
	<stop  offset="1" style="stop-color:#5C2D91"/>
</linearGradient>
<path fill="url(#SVGID_6_)" d="M217.74,175.741v33.646c0,1.602,1.321,2.888,2.922,2.888c1.636,0,2.958-1.286,2.958-2.888v-14.822
	h12.908c10.403,0,18.823-8.42,18.823-18.822c0-10.403-8.42-18.856-18.823-18.856c-11.51-0.011-18.79,8.1-18.79,18.85
	 M223.588,175.737c0-7.553,4.803-13.224,12.874-13.224c7.271,0,13.188,5.915,13.188,13.188c0,7.271-5.914,13.117-13.188,13.117
	h-12.874v-13.09V175.737z"/>
<linearGradient id="SVGID_7_" gradientUnits="userSpaceOnUse" x1="-8.6836" y1="518.0735" x2="-7.6806" y2="518.0735" gradientTransform="matrix(124.5 -95.364 -95.364 -124.5 50716.8125 63897.9258)">
	<stop  offset="0" style="stop-color:#190031"/>
	<stop  offset="0.0061" style="stop-color:#190031"/>
	<stop  offset="1" style="stop-color:#5C2D91"/>
</linearGradient>
<path fill="url(#SVGID_7_)" d="M256.4,184.581c0,15.312,12.456,27.8,27.801,27.8c15.31,0,27.8-12.488,27.8-27.8
	c0-15.347-12.489-27.835-27.8-27.835c-15.34,0-27.8,12.5-27.8,27.84 M262.631,184.586c0-11.897,9.673-21.571,21.572-21.571
	s21.569,9.674,21.569,21.571c0,11.862-9.67,21.57-21.569,21.57c-11.9,0-21.57-9.71-21.57-21.57"/>
<linearGradient id="SVGID_8_" gradientUnits="userSpaceOnUse" x1="-8.6816" y1="518.0725" x2="-7.6815" y2="518.0725" gradientTransform="matrix(124.5 -95.364 -95.364 -124.5 50746 63935.8008)">
	<stop  offset="0" style="stop-color:#190031"/>
	<stop  offset="0.0061" style="stop-color:#190031"/>
	<stop  offset="1" style="stop-color:#5C2D91"/>
</linearGradient>
<path fill="url(#SVGID_8_)" d="M354.13,158.871c-1.704,0-3.131,1.32-3.131,2.99c0,1.637,1.427,2.992,3.131,2.992h12.354v43.979
	c0,1.705,1.319,3.063,2.991,3.063c1.636,0,2.99-1.354,2.99-3.063v-43.979h12.18c1.737,0,3.133-1.355,3.133-2.992
	c0-1.67-1.396-2.99-3.133-2.99h-30.51H354.13z"/>
<linearGradient id="SVGID_9_" gradientUnits="userSpaceOnUse" x1="-8.6816" y1="518.0735" x2="-7.6846" y2="518.0735" gradientTransform="matrix(124.5 -95.364 -95.364 -124.5 50683.5 63854.3008)">
	<stop  offset="0" style="stop-color:#190031"/>
	<stop  offset="0.0061" style="stop-color:#190031"/>
	<stop  offset="1" style="stop-color:#5C2D91"/>
</linearGradient>
<path fill="url(#SVGID_9_)" d="M193.84,156.781c-14.926,0-18.162,10.992-18.162,16.631c0,5.672,4.523,13.256,18.303,13.256
	c13.778,0,13.187,8.212,13.187,8.523c0,0.313,0.767,10.719-13.15,10.684c-11.379-0.034-12.735-8.731-12.563-11.412
	c0-1.604-1.287-2.816-2.888-2.816c-1.565,0-2.854,1.218-2.854,2.816c-0.243,9.533,7.272,17.152,18.197,17.152
	c13.709,0,19.033-8.422,19.033-16.354c0-7.933-6.265-14.369-18.998-14.369c-12.734,0-12.596-7.309-12.596-7.309
	s-0.835-11.169,12.631-11.169c13.465,0,12.421,12.146,12.421,12.146c0,1.563,1.253,2.816,2.817,2.816
	c1.565,0,2.818-1.253,2.818-2.816c0-17.434-16.736-17.777-18.093-17.777h-0.11"/>
<linearGradient id="SVGID_10_" gradientUnits="userSpaceOnUse" x1="-8.6797" y1="518.0725" x2="-7.6829" y2="518.0725" gradientTransform="matrix(124.5 -95.364 -95.364 -124.5 50736.2031 63923.1758)">
	<stop  offset="0" style="stop-color:#190031"/>
	<stop  offset="0.0061" style="stop-color:#190031"/>
	<stop  offset="1" style="stop-color:#5C2D91"/>
</linearGradient>
<path fill="url(#SVGID_10_)" d="M314.78,175.741l0.035,33.646c0,1.602,1.318,2.888,2.922,2.888c1.636,0,2.923-1.286,2.923-2.888
	v-14.822h12.665l9.848,16.074c0.801,1.427,2.646,1.914,4.036,1.111c1.427-0.835,1.914-2.646,1.112-4.068l-8.629-14.127
	c7.41-2.574,12.732-9.566,12.732-17.813c0-10.402-8.455-18.856-18.822-18.856c-11.51,0-18.819,8.109-18.819,18.859 M320.633,175.745
	c0-7.552,4.836-13.223,12.874-13.223c7.308,0,13.188,5.914,13.188,13.188c0,7.271-5.882,13.117-13.188,13.117h-12.84l-0.03-13.09
	L320.633,175.745z"/>
<path fill="#512C80" d="M418.96,174.942c0,0,1.009-12.146-12.422-12.146c-13.466,0-12.631,11.169-12.631,11.169
	s-0.142,7.309,12.597,7.309c12.734,0,18.998,6.438,18.998,14.336c0,7.935-5.323,16.389-19.032,16.389
	c-10.961,0-18.477-7.653-18.229-17.188c0-1.564,1.319-2.783,2.889-2.783c1.565,0,2.889,1.219,2.889,2.783
	c-0.174,2.713,1.186,11.412,12.563,11.445c13.917,0.033,13.149-10.367,13.149-10.682c0-0.351,0.594-8.525-13.188-8.525
	c-13.778,0-18.302-7.584-18.302-13.256c0-5.637,3.233-16.632,18.162-16.632c0,0,18.194-0.385,18.194,17.778
	c0,1.563-1.252,2.816-2.815,2.816c-1.57-0.01-2.82-1.26-2.82-2.83"/>
<linearGradient id="SVGID_11_" gradientUnits="userSpaceOnUse" x1="-7.3159" y1="518.2893" x2="-6.3171" y2="518.2893" gradientTransform="matrix(172.2 -99.428 -99.428 -172.2 53267.793 88835.25)">
	<stop  offset="0" style="stop-color:#572381"/>
	<stop  offset="1" style="stop-color:#111211"/>
</linearGradient>
<path fill="url(#SVGID_11_)" d="M591.64,214.652H484.68c-8.88,0.189-8.96,8.99-8.96,8.99l-0.109,73.97
	c0,11.83,2.72,20.26,6.729,26.35c3.74,5.25,8.84,9.44,14.811,12.09c6.729,2.801,13.149,3.141,16.109,3.141
	c1.091,0,1.69-0.08,1.69-0.08h77.52c7.9,0,7.521-8.46,7.521-8.46v-107.57c0-7.45-6.68-8.359-7.59-8.43H591.64L591.64,214.652z"/>
<path fill="#FFFFFF" d="M537.801,230.787c14.747,0,26.732,10.772,26.732,24.913c0,6.732-3.031,13.466-7.878,17.506
	c7.272,5.389,11.918,13.469,11.918,22.895c0,16.16-13.804,28.955-30.772,28.955s-30.771-12.795-30.771-28.955
	c0-9.426,4.646-17.506,11.918-22.895c-4.849-4.04-7.878-10.773-7.878-17.506C511.069,241.56,523.055,230.787,537.801,230.787
	L537.801,230.787z M537.801,243.58c-5.992,0-10.907,4.713-10.907,10.773c0,6.06,4.915,11.446,10.907,11.446
	c5.993,0,10.841-5.387,10.841-11.446C548.642,248.293,543.794,243.58,537.801,243.58z M537.801,279.942
	c-8.146,0-14.68,6.06-14.68,14.14s6.533,14.14,14.68,14.14c8.147,0,14.679-6.06,14.679-14.14S545.948,279.942,537.801,279.942z"/>
</svg>
