<?xml version="1.0" encoding="utf-8"?>
<!-- Generator: Adobe Illustrator 16.0.0, SVG Export Plug-In . SVG Version: 6.00 Build 0)  -->
<!DOCTYPE svg PUBLIC "-//W3C//DTD SVG 1.1//EN" "http://www.w3.org/Graphics/SVG/1.1/DTD/svg11.dtd">
<svg version="1.1" id="Capa_1" xmlns="http://www.w3.org/2000/svg" xmlns:xlink="http://www.w3.org/1999/xlink" x="0px" y="0px"
	 width="599.998px" height="339.915px" viewBox="0 0 599.998 339.915" enable-background="new 0 0 599.998 339.915"
	 xml:space="preserve">
<g>
	<path fill="#FFFFFF" d="M588.2,36.324c-46.859-0.001-97.918,0.001-139.197,0.002c-12.53,0.267-12.63,12.688-12.63,12.688
		l-0.16,104.338c0,16.68,3.84,28.568,9.49,37.158c5.279,7.41,12.47,13.32,20.898,17.061c9.489,3.939,18.551,4.42,22.709,4.42
		c1.54,0,2.4-0.109,2.4-0.109h97.658c11.148,0,10.62-11.939,10.62-11.939V48.214c0-10.506-9.44-11.787-10.722-11.894H588.2V36.324z
		 M513.232,51.539c0.29,0.052,0.5,0.326,0.5,0.635c1.21,6.512,2.449,13.019,3.63,19.533c0.14,0.558-0.5,0.7-0.91,0.756
		c-6.311,1.187-12.029,5.229-15.229,10.805c-0.17,0.394-0.59,0.837-1.04,0.496c-5.71-3.297-11.398-6.622-17.1-9.93
		c-0.34-0.135-0.61-0.535-0.38-0.883c6.26-11.129,17.67-19.156,30.229-21.382C513.041,51.53,513.142,51.521,513.232,51.539z
		 M525.852,56.422c10.289,0.158,20.499,4.035,28.229,10.844c0.31,0.201,0.319,0.667,0.05,0.904
		c-4.32,4.995-8.641,9.978-12.96,14.967c-0.24,0.378-0.75,0.417-1.04,0.074c-4.87-4.278-11.62-6.316-18.04-5.375
		c-0.409,0.064-1.079,0.188-1.159-0.389c-0.989-6.483-1.92-12.978-2.899-19.463c-0.05-0.343-0.141-0.846,0.279-0.99
		c1.03-0.235,2.091-0.295,3.131-0.408v-0.002C522.911,56.452,524.381,56.398,525.852,56.422z M475.523,73.595
		c0.238-0.009,0.488,0.148,0.699,0.256c5.761,3.104,11.539,6.17,17.289,9.285c0.48,0.225,0.29,0.783,0.062,1.132
		c-3.051,5.669-3.472,12.67-1.142,18.668c0.24,0.41,0.271,1.04-0.31,1.16c-6.11,2.37-12.229,4.71-18.34,7.07
		c-0.34,0.189-0.86,0.2-0.99-0.25c-4.42-11.034-3.979-23.866,1.07-34.61c0.45-0.886,0.81-1.838,1.41-2.639
		C475.353,73.619,475.433,73.598,475.523,73.595L475.523,73.595z M553.081,74.698c0.17,0.011,0.329,0.091,0.449,0.229
		c9.359,8.684,14.54,21.646,13.76,34.39c0,0.41-0.45,0.57-0.779,0.5c-6.59-0.32-13.17-0.631-19.75-0.961
		c-0.609,0.061-0.68-0.639-0.609-1.08c0.29-6.439-2.359-12.935-7.069-17.33c-0.38-0.259-0.58-0.824-0.13-1.137
		c4.55-4.809,9.109-9.622,13.68-14.416C552.751,74.748,552.921,74.688,553.081,74.698L553.081,74.698z M521.482,87.186
		c3.34,0.988,6.278,3.147,8.278,5.993c-0.59-0.377-1.199-0.709-1.84-0.994c0.73,1.618,1.141,3.397,0.97,5.179
		c-1.438,0.691-2.93,1.279-4.34,2.029c1.57-0.225,3.12-0.602,4.67-0.912c1.2,1.362,1.96,3.056,2.312,4.826
		c0.229-0.42,0.51-0.83,0.64-1.29c0.07-0.2,0.101-0.55,0.351-0.58c-0.171,1.77-0.301,3.58-0.931,5.27
		c-0.5,1.56-1.359,2.96-2.27,4.319c0.159-0.67,0.27-1.34,0.369-2.02c-1.319,1.189-2.891,2.131-4.641,2.53
		c-1.119-1.181-2.18-2.431-3.34-3.58c0.72,1.46,1.58,2.84,2.36,4.26c-0.91,1.56-2.301,2.79-3.87,3.66
		c0.68,0.14,1.37,0.26,2.069,0.271c-3.261,1.09-6.851,1.09-10.109,0c0.699-0.021,1.38-0.131,2.061-0.271
		c-1.57-0.87-2.96-2.101-3.87-3.66c0.79-1.42,1.641-2.81,2.37-4.26c-1.16,1.149-2.221,2.399-3.34,3.58
		c-1.75-0.399-3.32-1.33-4.641-2.53c0.09,0.68,0.21,1.36,0.359,2.03c-0.83-1.261-1.63-2.54-2.14-3.97
		c-0.671-1.8-0.96-3.74-1.03-5.65c0.359,0.61,0.59,1.29,0.96,1.89c0.36-1.77,1.11-3.47,2.319-4.83
		c1.561,0.315,3.109,0.686,4.689,0.918c-1.42-0.746-2.909-1.342-4.359-2.035c-0.17-1.78,0.229-3.559,0.971-5.177
		c-0.65,0.288-1.271,0.622-1.86,1.009c2-2.854,4.95-5.014,8.301-6.002c-0.591,0.426-1.109,0.943-1.591,1.481
		c1.78-0.21,3.641-0.047,5.29,0.703c0.149,1.588,0.341,3.171,0.551,4.752c0.279-1.572,0.409-3.168,0.58-4.756
		c1.649-0.744,3.5-0.912,5.29-0.695C522.591,88.125,522.072,87.614,521.482,87.186L521.482,87.186z M517.211,94.712
		c-2.239,1.632-4.479,3.253-6.72,4.883c0.859,2.632,1.72,5.272,2.569,7.902h8.311c0.86-2.63,1.71-5.27,2.57-7.9
		C521.701,97.967,519.461,96.333,517.211,94.712z M487.943,108.637c0.148,0.02,0.278,0.109,0.35,0.27c0.4,0.779,0.72,1.6,1.17,2.359
		c2.76,4.99,7.49,8.84,12.93,10.54c0.311,0.13,0.761,0.181,0.83,0.58c-0.08,0.62-0.319,1.19-0.489,1.79l-5.431,17.4
		c-0.069,0.359-0.37,0.76-0.779,0.59c-12.301-3.641-22.749-13.03-27.659-24.88c-0.16-0.4,0.24-0.66,0.56-0.771
		c6.021-2.6,12.03-5.209,18.062-7.799C487.622,108.637,487.792,108.606,487.943,108.637z M540.351,111.196
		c6.58,0.451,13.16,1.021,19.729,1.5c0.36,0,0.94,0.111,0.881,0.591c-0.78,12.8-7.62,25.029-18.03,32.489
		c-0.319,0.25-0.72,0.08-0.89-0.24c-3.91-5.32-7.812-10.629-11.7-15.959c-0.35-0.33-0.14-0.82,0.24-1.021
		c5.25-3.771,8.71-9.92,9.21-16.37c0.05-0.279,0.01-0.6,0.188-0.83C540.072,111.317,540.261,111.237,540.351,111.196
		L540.351,111.196z M524.152,125.456c0.18,0.031,0.34,0.141,0.43,0.33c3.68,5.461,7.35,10.93,11.02,16.4
		c0.222,0.24,0.302,0.68,0,0.891c-10.56,7.329-24.469,9.579-36.809,5.979c-0.45-0.17-0.3-0.719-0.19-1.069
		c1.761-6.31,3.461-12.63,5.24-18.93c0.17-0.62,0.891-0.319,1.311-0.22c6.239,1.67,13.149,0.42,18.47-3.23
		C523.772,125.466,523.971,125.417,524.152,125.456z M522.531,159.016c1.41-0.09,2.85,0.799,3.3,2.17
		c0.43,1.189,0.07,2.609-0.86,3.459c-0.92,0.891-2.38,1.16-3.55,0.641c-1.109-0.471-1.869-1.631-1.898-2.83
		c-0.11-1.49,0.949-2.971,2.409-3.33C522.131,159.065,522.331,159.036,522.531,159.016L522.531,159.016z M468.983,162.416h5.779
		v17.159c2.329-0.01,4.649-0.01,6.979,0v5.051h-12.76L468.983,162.416L468.983,162.416z M504.872,162.416h5.789v17.149
		c2.33,0.01,4.66,0,6.99,0.01v5.051h-12.779V162.416z M535.411,166.456c1.67-0.02,3.33,0.51,4.59,1.63c0.26,0.22,0.5,0.47,0.75,0.71
		c0-0.66-0.01-1.32,0-1.98h5.14c0,5.291,0.011,10.569,0,15.851c-0.01,1.961-0.64,3.951-1.979,5.41c-1.58,1.77-3.96,2.641-6.29,2.779
		c-2.46,0.148-5.07-0.359-7.06-1.898c-1.36-1.021-2.28-2.59-2.512-4.281h6.04c0.4,0.671,1.021,1.271,1.83,1.371
		c1.391,0.199,3.03,0.039,4.021-1.08c0.72-0.811,0.59-1.971,0.56-2.971c-1.57,1.33-3.62,2.211-5.7,2.021
		c-1.938-0.12-3.81-1.08-5.039-2.58c-1.631-1.95-2.239-4.59-2.011-7.079c0.21-2.352,1.22-4.701,3.062-6.23v-0.01
		C532.072,167.045,533.741,166.475,535.411,166.456L535.411,166.456z M556.861,166.465c0.29,0,0.58,0.02,0.859,0.051
		c1.609,0.139,3.021,1.039,4.181,2.109v-1.811h5.319v17.812h-5.399v-1.722c-2.95,2.972-8.301,2.82-11.181-0.18
		c-1.688-1.74-2.399-4.22-2.438-6.601c-0.102-2.811,1.039-5.67,3.148-7.561C552.841,167.215,554.851,166.446,556.861,166.465z
		 M491.552,166.465c0.29,0.01,0.58,0.04,0.87,0.08c1.53,0.18,2.86,1.05,3.97,2.08v-1.811h5.32c0,5.94,0.01,11.881,0,17.812h-5.4
		c-0.01-0.57-0.01-1.15,0-1.722c-2.97,2.99-8.35,2.82-11.21-0.22c-1.67-1.739-2.368-4.2-2.408-6.568
		c-0.102-2.861,1.08-5.761,3.26-7.642C487.483,167.125,489.522,166.405,491.552,166.465L491.552,166.465z M525.411,166.815v17.811
		h-5.38v-17.811H525.411z M536.981,171.094c-0.359-0.02-0.721,0-1.069,0.061c-1.28,0.221-2.312,1.25-2.7,2.461
		c-0.54,1.649-0.32,3.67,0.95,4.93c1.51,1.461,4.188,1.199,5.54-0.34c1.41-1.57,1.41-4.149,0.13-5.789
		C539.141,171.565,538.061,171.145,536.981,171.094z M557.751,171.465c-0.351,0.01-0.69,0.05-1.03,0.141
		c-1.33,0.309-2.43,1.359-2.83,2.67c-0.56,1.77-0.09,3.949,1.41,5.129c1.72,1.35,4.449,0.91,5.811-0.76
		c1.46-1.77,1.239-4.689-0.5-6.189C559.821,171.765,558.781,171.446,557.751,171.465L557.751,171.465z M492.172,171.465
		c-0.34,0.01-0.689,0.061-1.02,0.15c-1.222,0.319-2.25,1.25-2.69,2.43c-0.68,1.811-0.229,4.08,1.28,5.33
		c1.739,1.399,4.55,0.949,5.898-0.781c1.432-1.779,1.182-4.68-0.568-6.158C494.272,171.745,493.222,171.424,492.172,171.465z"/>
	<g>
		<path fill="#FFFFFF" d="M0.002,4.069v91.124c0,28.461,23.521,55.218,56.783,55.218c33.262,0,56.749-28.462,56.749-57.305
			c0-28.844-22.895-56.542-56.783-56.542c-33.854,0-48.574,26.722-48.574,26.722V4.07c0-2.227-1.809-4.071-4.07-4.071
			C1.846-0.002,0.002,1.842,0.002,4.069 M8.353,93.106c0-26.826,21.606-48.536,48.294-48.536c26.652,0,48.295,21.711,48.295,48.536
			c0,26.826-21.642,48.537-48.295,48.537C29.96,141.643,8.353,119.932,8.353,93.106"/>
		<path fill="#FFFFFF" d="M118.754,93.248c0,31.418,25.504,56.889,56.923,56.889c20.494,0,38.411-10.787,48.469-27
			c1.287-1.949,0.695-4.594-1.253-5.881c-1.914-1.322-4.593-0.8-5.88,1.148c-8.525,13.918-23.834,23.208-41.337,23.208
			c-26.722,0-48.362-21.642-48.362-48.363c0-26.722,21.642-48.4,48.362-48.4c25.226,0,45.963,19.311,48.188,43.944h-56.363
			c-2.366,0-4.245,1.949-4.245,4.315c0,2.366,1.914,4.279,4.28,4.279h60.785c3.201,0,4.279-2.262,4.279-4.14
			c0-31.454-25.469-56.923-56.923-56.923C144.259,36.325,118.755,61.794,118.754,93.248"/>
		<path fill="#FFFFFF" d="M248.92,36.254c-5.532,0-9.708,4.349-9.986,8.281v98.709c0.278,3.932,4.454,8.246,9.986,8.28
			c5.497-0.034,9.707-4.349,9.985-8.28V44.535C258.627,40.603,254.417,36.254,248.92,36.254z"/>
		<path fill="#FFFFFF" d="M415.784,36.324c-5.428,0-9.533,4.349-9.848,8.211v72.755c0,2.644-1.635,9.22-7.933,12.212
			c-13.5,6.402-20.459-5.914-20.459-5.914l-44.999-70.839c-5.185-9.012-21.224-21.955-43.074-13.848
			c-21.051,8.664-21.294,30.549-21.294,30.549v73.799c0.313,3.932,4.488,7.793,9.985,7.828c5.532-0.033,9.777-4.453,9.777-8.977
			V71.469c0,0-1.044-13.917,14.996-15.379c9.359-0.521,13.952,9.186,13.952,9.186s40.988,64.614,45.127,71.051
			c4.177,6.437,20.981,20.877,42.833,12.004c22.096-8.977,20.772-31.105,20.772-31.105l0.034-72.718
			c-0.313-3.862-4.419-8.176-9.848-8.176 M415.776,36.331h0.033H415.776z M278.176,151.077h0.034H278.176z"/>
		<path fill="#FFFFFF" d="M217.743,175.743v33.646c0,1.6,1.321,2.888,2.922,2.888c1.636,0,2.958-1.288,2.958-2.888v-14.822h12.908
			c10.403,0,18.823-8.42,18.823-18.824c0-10.403-8.42-18.857-18.823-18.857C225.015,156.885,217.743,164.992,217.743,175.743
			 M223.588,175.743c0-7.551,4.802-13.222,12.874-13.222c7.271,0,13.187,5.915,13.187,13.187c0,7.272-5.914,13.117-13.187,13.117
			h-12.874V175.743z"/>
		<path fill="#FFFFFF" d="M256.4,184.581c0,15.31,12.456,27.799,27.801,27.799c15.309,0,27.8-12.489,27.8-27.799
			c0-15.346-12.49-27.835-27.8-27.835C268.856,156.745,256.4,169.235,256.4,184.581 M262.628,184.581
			c0-11.899,9.673-21.573,21.572-21.573c11.899,0,21.57,9.673,21.57,21.573c0,11.863-9.671,21.571-21.57,21.571
			C272.301,206.152,262.628,196.444,262.628,184.581"/>
		<path fill="#FFFFFF" d="M354.133,158.868c-1.704,0-3.131,1.322-3.131,2.992c0,1.635,1.427,2.992,3.131,2.992h12.354v43.979
			c0,1.705,1.321,3.063,2.991,3.063c1.636,0,2.992-1.355,2.992-3.063v-43.979h12.179c1.738,0,3.132-1.357,3.132-2.992
			c0-1.67-1.394-2.992-3.132-2.992H354.133z"/>
		<path fill="#FFFFFF" d="M193.837,156.782c-14.926,0-18.162,10.994-18.162,16.63c0,5.672,4.523,13.256,18.302,13.256
			s13.187,8.213,13.187,8.525s0.766,10.717-13.151,10.682c-11.378-0.033-12.735-8.732-12.562-11.412
			c0-1.602-1.287-2.817-2.888-2.817c-1.565,0-2.854,1.217-2.854,2.817c-0.243,9.533,7.272,17.152,18.197,17.152
			c13.709,0,19.033-8.42,19.033-16.353s-6.264-14.37-18.998-14.37s-12.596-7.307-12.596-7.307s-0.835-11.169,12.631-11.169
			c13.465,0,12.421,12.144,12.421,12.144c0,1.564,1.253,2.818,2.818,2.818s2.818-1.254,2.818-2.818
			c0-17.432-16.736-17.779-18.093-17.779H193.837"/>
		<path fill="#FFFFFF" d="M314.781,175.743l0.035,33.646c0,1.6,1.32,2.888,2.922,2.888c1.636,0,2.923-1.288,2.923-2.888v-14.822
			h12.665l9.847,16.074c0.801,1.427,2.646,1.914,4.036,1.113c1.427-0.836,1.914-2.646,1.113-4.07l-8.629-14.127
			c7.411-2.574,12.734-9.568,12.734-17.814c0-10.402-8.455-18.857-18.823-18.857C322.088,156.885,314.781,164.993,314.781,175.743
			 M320.627,175.743c0-7.55,4.836-13.221,12.874-13.221c7.307,0,13.188,5.914,13.188,13.188c0,7.272-5.881,13.117-13.188,13.117
			h-12.839L320.627,175.743z"/>
		<path fill="#FFFFFF" d="M418.959,174.942c0,0,1.009-12.144-12.421-12.144c-13.466,0-12.631,11.169-12.631,11.169
			s-0.14,7.307,12.596,7.307s18.998,6.438,18.998,14.336c0,7.934-5.323,16.387-19.032,16.387c-10.961,0-18.476-7.654-18.231-17.188
			c0-1.566,1.321-2.783,2.888-2.783s2.889,1.217,2.889,2.783c-0.174,2.713,1.184,11.412,12.562,11.447
			c13.917,0.033,13.151-10.369,13.151-10.682c0-0.35,0.592-8.525-13.188-8.525s-18.302-7.584-18.302-13.256
			c0-5.637,3.235-16.632,18.162-16.632c0,0,18.196-0.383,18.196,17.78c0,1.563-1.252,2.817-2.817,2.817
			C420.212,177.76,418.959,176.506,418.959,174.942"/>
	</g>
</g>
<path fill="#FFFFFF" d="M484.684,215.379c-8.882,0.188-8.958,8.994-8.958,8.994l-0.112,73.967c0,11.828,2.722,20.258,6.728,26.343
	c3.742,5.253,8.844,9.448,14.815,12.095c6.729,2.797,13.152,3.137,16.102,3.137c1.097,0,1.7-0.076,1.7-0.076h77.519
	c7.899,0,7.521-8.465,7.521-8.465V223.807c0-7.445-6.69-8.354-7.598-8.428h-0.757H484.684z M539.826,231.064
	c16.668,0,29.707,12.888,29.707,29.329c0,15.08-8.541,22.941-20.6,32.428l-20.296,15.838h40.518v14.664h-49.587
	c-8.467,0-13.531-4.158-13.531-11.074c0-5.254,2.722-7.408,7.673-11.338l0.869-0.682l30.576-24c2.607-2.078,8.73-7.785,8.73-15.686
	c0-8.617-6.426-14.814-15.27-14.814c-9.789,0-15.836,6.313-15.836,16.516c0,6.502,4.724,11.377,10.279,13.494l-13.152,9.486
	c-8.277-5.291-12.774-13.795-12.774-24.566C507.134,241.42,523.99,231.064,539.826,231.064L539.826,231.064z"/>
</svg>
