<?xml version="1.0" encoding="utf-8"?>
<!-- Generator: Adobe Illustrator 16.0.0, SVG Export Plug-In . SVG Version: 6.00 Build 0)  -->
<!DOCTYPE svg PUBLIC "-//W3C//DTD SVG 1.1//EN" "http://www.w3.org/Graphics/SVG/1.1/DTD/svg11.dtd">
<svg version="1.1" id="Capa_1" xmlns="http://www.w3.org/2000/svg" xmlns:xlink="http://www.w3.org/1999/xlink" x="0px" y="0px"
	 width="600px" height="339.155px" viewBox="0 0 600 339.155" enable-background="new 0 0 600 339.155" xml:space="preserve">
<g>
	<path fill="#FFFFFF" d="M588.199,36.324c-46.858-0.001-97.918,0.001-139.196,0.002c-12.53,0.267-12.631,12.688-12.631,12.688
		l-0.159,104.338c0,16.68,3.84,28.567,9.489,37.157c5.279,7.41,12.471,13.32,20.899,17.062c9.489,3.938,18.55,4.42,22.709,4.42
		c1.54,0,2.4-0.11,2.4-0.11h97.657c11.149,0,10.62-11.938,10.62-11.938V48.214c0-10.506-9.439-11.787-10.721-11.894h-1.068V36.324z
		 M513.232,51.539c0.29,0.052,0.5,0.326,0.5,0.635c1.21,6.513,2.45,13.02,3.63,19.533c0.141,0.559-0.5,0.7-0.91,0.756
		c-6.31,1.188-12.028,5.229-15.229,10.806c-0.17,0.394-0.59,0.837-1.04,0.496c-5.71-3.298-11.399-6.622-17.101-9.931
		c-0.34-0.135-0.609-0.535-0.38-0.883c6.261-11.129,17.67-19.156,30.229-21.382C513.041,51.53,513.142,51.521,513.232,51.539z
		 M525.852,56.422c10.289,0.158,20.499,4.035,28.229,10.845c0.311,0.2,0.319,0.667,0.051,0.903
		c-4.32,4.995-8.642,9.979-12.96,14.968c-0.24,0.378-0.75,0.417-1.04,0.073c-4.87-4.277-11.62-6.315-18.04-5.375
		c-0.409,0.064-1.079,0.188-1.159-0.389c-0.99-6.483-1.92-12.978-2.9-19.463c-0.05-0.343-0.14-0.846,0.28-0.99
		c1.03-0.235,2.09-0.295,3.13-0.408v-0.002C522.91,56.452,524.381,56.398,525.852,56.422z M475.523,73.594
		c0.239-0.009,0.489,0.148,0.7,0.257c5.76,3.104,11.539,6.17,17.289,9.284c0.479,0.226,0.29,0.783,0.061,1.133
		c-3.051,5.669-3.471,12.67-1.141,18.668c0.24,0.41,0.271,1.04-0.311,1.16c-6.109,2.369-12.229,4.71-18.34,7.069
		c-0.34,0.189-0.859,0.2-0.989-0.25c-4.421-11.034-3.979-23.866,1.069-34.609c0.45-0.887,0.811-1.839,1.41-2.64
		C475.353,73.619,475.433,73.598,475.523,73.594L475.523,73.594z M553.08,74.698c0.17,0.011,0.329,0.091,0.449,0.229
		c9.36,8.685,14.54,21.646,13.76,34.391c0,0.41-0.449,0.569-0.778,0.5c-6.59-0.32-13.17-0.631-19.75-0.961
		c-0.61,0.061-0.681-0.64-0.61-1.08c0.29-6.439-2.359-12.936-7.068-17.33c-0.381-0.259-0.58-0.824-0.131-1.137
		c4.551-4.81,9.109-9.622,13.681-14.416C552.75,74.748,552.921,74.688,553.08,74.698L553.08,74.698z M521.482,87.186
		c3.34,0.987,6.279,3.146,8.279,5.993c-0.59-0.378-1.199-0.71-1.84-0.994c0.729,1.617,1.141,3.396,0.97,5.179
		c-1.439,0.691-2.93,1.279-4.34,2.029c1.569-0.226,3.119-0.603,4.67-0.912c1.199,1.361,1.96,3.056,2.311,4.826
		c0.229-0.421,0.51-0.83,0.641-1.29c0.069-0.2,0.101-0.551,0.351-0.58c-0.171,1.77-0.301,3.58-0.931,5.27
		c-0.5,1.561-1.359,2.96-2.271,4.319c0.16-0.67,0.271-1.34,0.37-2.021c-1.32,1.189-2.891,2.131-4.641,2.53
		c-1.119-1.181-2.181-2.431-3.341-3.58c0.721,1.46,1.58,2.84,2.36,4.26c-0.91,1.561-2.3,2.79-3.87,3.66
		c0.68,0.141,1.37,0.26,2.07,0.271c-3.261,1.09-6.852,1.09-10.11,0c0.7-0.021,1.38-0.131,2.062-0.271
		c-1.57-0.87-2.96-2.101-3.87-3.66c0.79-1.42,1.64-2.81,2.37-4.26c-1.16,1.149-2.222,2.399-3.341,3.58
		c-1.75-0.399-3.319-1.33-4.641-2.53c0.09,0.681,0.21,1.36,0.36,2.03c-0.83-1.261-1.63-2.54-2.141-3.97
		c-0.671-1.8-0.96-3.74-1.029-5.65c0.358,0.61,0.59,1.29,0.96,1.891c0.359-1.771,1.109-3.471,2.318-4.83
		c1.562,0.314,3.11,0.686,4.69,0.918c-1.42-0.746-2.91-1.343-4.36-2.035c-0.17-1.78,0.23-3.56,0.972-5.177
		c-0.65,0.287-1.271,0.621-1.86,1.009c2-2.854,4.95-5.015,8.3-6.002c-0.59,0.426-1.108,0.942-1.59,1.48
		c1.78-0.21,3.64-0.047,5.29,0.703c0.148,1.588,0.34,3.171,0.55,4.752c0.28-1.572,0.41-3.168,0.58-4.756
		c1.65-0.744,3.5-0.912,5.29-0.695C522.591,88.125,522.072,87.614,521.482,87.186L521.482,87.186z M517.211,94.712
		c-2.239,1.632-4.479,3.253-6.721,4.883c0.86,2.633,1.721,5.272,2.57,7.902h8.31c0.86-2.63,1.71-5.27,2.57-7.899
		C521.7,97.967,519.461,96.333,517.211,94.712z M487.943,108.637c0.149,0.02,0.279,0.108,0.351,0.27
		c0.399,0.779,0.72,1.6,1.17,2.359c2.76,4.989,7.489,8.84,12.93,10.54c0.31,0.13,0.76,0.181,0.83,0.579
		c-0.08,0.62-0.32,1.19-0.49,1.79l-5.43,17.4c-0.07,0.359-0.37,0.76-0.78,0.59c-12.3-3.641-22.749-13.03-27.659-24.88
		c-0.16-0.4,0.24-0.66,0.561-0.771c6.021-2.601,12.029-5.209,18.061-7.8C487.621,108.637,487.791,108.606,487.943,108.637z
		 M540.351,111.196c6.58,0.451,13.16,1.021,19.729,1.5c0.36,0,0.94,0.111,0.882,0.591c-0.78,12.8-7.62,25.029-18.03,32.489
		c-0.32,0.25-0.72,0.08-0.891-0.24c-3.909-5.32-7.811-10.629-11.699-15.959c-0.351-0.33-0.141-0.82,0.239-1.021
		c5.25-3.771,8.71-9.921,9.21-16.37c0.051-0.279,0.011-0.601,0.189-0.83C540.072,111.317,540.261,111.237,540.351,111.196
		L540.351,111.196z M524.152,125.456c0.18,0.031,0.34,0.142,0.43,0.33c3.681,5.461,7.351,10.93,11.021,16.4
		c0.221,0.239,0.301,0.68,0,0.891c-10.561,7.329-24.469,9.579-36.809,5.979c-0.45-0.171-0.301-0.72-0.19-1.069
		c1.76-6.311,3.46-12.63,5.24-18.93c0.17-0.62,0.89-0.319,1.31-0.221c6.24,1.67,13.15,0.42,18.47-3.229
		C523.772,125.466,523.971,125.417,524.152,125.456z M522.531,159.016c1.41-0.091,2.851,0.799,3.3,2.17
		c0.431,1.188,0.07,2.608-0.859,3.459c-0.92,0.891-2.38,1.16-3.55,0.641c-1.109-0.471-1.869-1.631-1.899-2.83
		c-0.11-1.49,0.95-2.971,2.41-3.33C522.131,159.065,522.33,159.036,522.531,159.016L522.531,159.016z M468.983,162.416h5.78v17.159
		c2.329-0.01,4.648-0.01,6.979,0v5.051h-12.76L468.983,162.416L468.983,162.416z M504.871,162.416h5.789v17.149
		c2.33,0.01,4.66,0,6.99,0.01v5.051h-12.779V162.416z M535.41,166.456c1.67-0.02,3.33,0.51,4.591,1.63
		c0.26,0.221,0.5,0.471,0.75,0.71c0-0.66-0.011-1.319,0-1.979h5.14c0,5.291,0.01,10.569,0,15.85c-0.01,1.961-0.64,3.951-1.979,5.41
		c-1.579,1.771-3.96,2.641-6.29,2.78c-2.46,0.148-5.069-0.36-7.06-1.899c-1.36-1.021-2.28-2.59-2.511-4.28h6.04
		c0.399,0.671,1.021,1.271,1.83,1.37c1.39,0.199,3.029,0.039,4.021-1.08c0.72-0.811,0.59-1.971,0.561-2.971
		c-1.57,1.33-3.62,2.211-5.7,2.021c-1.939-0.12-3.811-1.08-5.039-2.58c-1.631-1.95-2.24-4.59-2.011-7.079
		c0.21-2.352,1.22-4.701,3.061-6.23v-0.01C532.072,167.045,533.74,166.475,535.41,166.456L535.41,166.456z M556.861,166.465
		c0.29,0,0.58,0.021,0.86,0.052c1.608,0.139,3.02,1.039,4.18,2.108v-1.811h5.32v17.811h-5.4v-1.721c-2.95,2.971-8.3,2.82-11.18-0.18
		c-1.689-1.74-2.4-4.221-2.439-6.601c-0.101-2.811,1.039-5.67,3.149-7.561C552.841,167.215,554.851,166.446,556.861,166.465z
		 M491.552,166.465c0.29,0.011,0.58,0.04,0.87,0.08c1.529,0.181,2.859,1.05,3.97,2.08v-1.811h5.32c0,5.939,0.01,11.881,0,17.811
		h-5.4c-0.01-0.569-0.01-1.149,0-1.721c-2.97,2.99-8.35,2.82-11.21-0.22c-1.67-1.739-2.369-4.2-2.409-6.569
		c-0.101-2.86,1.08-5.76,3.26-7.641C487.483,167.125,489.522,166.405,491.552,166.465L491.552,166.465z M525.41,166.815v17.811
		h-5.38v-17.811H525.41z M536.981,171.094c-0.359-0.021-0.72,0-1.069,0.061c-1.279,0.221-2.311,1.25-2.699,2.461
		c-0.54,1.649-0.32,3.67,0.949,4.93c1.511,1.46,4.189,1.199,5.54-0.34c1.41-1.57,1.41-4.149,0.131-5.79
		C539.141,171.565,538.061,171.145,536.981,171.094z M557.75,171.465c-0.351,0.011-0.689,0.051-1.029,0.142
		c-1.33,0.309-2.431,1.358-2.83,2.67c-0.561,1.77-0.09,3.949,1.41,5.129c1.72,1.35,4.448,0.91,5.81-0.76
		c1.46-1.771,1.24-4.689-0.5-6.189C559.821,171.765,558.781,171.446,557.75,171.465L557.75,171.465z M492.172,171.465
		c-0.341,0.011-0.69,0.062-1.021,0.15c-1.221,0.32-2.25,1.25-2.689,2.43c-0.681,1.812-0.229,4.08,1.279,5.33
		c1.739,1.4,4.55,0.949,5.899-0.78c1.431-1.779,1.181-4.681-0.569-6.158C494.272,171.745,493.222,171.425,492.172,171.465z"/>
	<g>
		<path fill="#FFFFFF" d="M0.002,4.069v91.124c0,28.461,23.521,55.218,56.783,55.218c33.262,0,56.749-28.462,56.749-57.305
			c0-28.845-22.896-56.542-56.783-56.542c-33.854,0-48.574,26.722-48.574,26.722V4.07c0-2.228-1.809-4.071-4.07-4.071
			C1.846-0.002,0.002,1.842,0.002,4.069 M8.353,93.106c0-26.826,21.606-48.536,48.294-48.536c26.652,0,48.295,21.711,48.295,48.536
			c0,26.826-21.642,48.537-48.295,48.537C29.96,141.643,8.353,119.932,8.353,93.106"/>
		<path fill="#FFFFFF" d="M118.754,93.248c0,31.418,25.504,56.889,56.923,56.889c20.494,0,38.411-10.786,48.469-27
			c1.287-1.948,0.695-4.594-1.253-5.881c-1.914-1.321-4.593-0.8-5.88,1.148c-8.525,13.918-23.834,23.208-41.337,23.208
			c-26.722,0-48.362-21.643-48.362-48.363c0-26.722,21.643-48.399,48.362-48.399c25.226,0,45.963,19.311,48.188,43.943h-56.362
			c-2.366,0-4.245,1.949-4.245,4.315s1.914,4.279,4.28,4.279h60.784c3.201,0,4.279-2.263,4.279-4.141
			c0-31.454-25.469-56.923-56.923-56.923C144.259,36.325,118.755,61.794,118.754,93.248"/>
		<path fill="#FFFFFF" d="M248.92,36.254c-5.532,0-9.708,4.35-9.986,8.281v98.709c0.278,3.932,4.454,8.246,9.986,8.28
			c5.497-0.034,9.707-4.35,9.984-8.28V44.535C258.627,40.603,254.417,36.254,248.92,36.254z"/>
		<path fill="#FFFFFF" d="M415.783,36.324c-5.428,0-9.532,4.349-9.847,8.211v72.755c0,2.645-1.635,9.22-7.933,12.212
			c-13.5,6.402-20.459-5.914-20.459-5.914l-44.999-70.839c-5.186-9.012-21.225-21.955-43.074-13.848
			c-21.051,8.664-21.294,30.549-21.294,30.549v73.799c0.313,3.933,4.488,7.793,9.985,7.828c5.531-0.033,9.776-4.453,9.776-8.977
			V71.469c0,0-1.044-13.917,14.996-15.379c9.359-0.521,13.952,9.187,13.952,9.187s40.987,64.614,45.127,71.051
			c4.176,6.438,20.98,20.877,42.833,12.004c22.095-8.977,20.771-31.104,20.771-31.104l0.034-72.719
			c-0.313-3.861-4.419-8.176-9.847-8.176 M415.776,36.331h0.034H415.776z M278.176,151.077h0.034H278.176z"/>
		<path fill="#FFFFFF" d="M217.743,175.743v33.646c0,1.6,1.32,2.888,2.922,2.888c1.636,0,2.958-1.288,2.958-2.888v-14.822h12.907
			c10.403,0,18.823-8.42,18.823-18.824c0-10.403-8.42-18.857-18.823-18.857C225.015,156.885,217.743,164.992,217.743,175.743
			 M223.588,175.743c0-7.551,4.802-13.222,12.874-13.222c7.271,0,13.187,5.915,13.187,13.187c0,7.272-5.914,13.117-13.187,13.117
			h-12.874V175.743z"/>
		<path fill="#FFFFFF" d="M256.4,184.58c0,15.311,12.456,27.8,27.802,27.8c15.309,0,27.799-12.489,27.799-27.8
			c0-15.345-12.489-27.835-27.799-27.835C268.856,156.745,256.4,169.235,256.4,184.58 M262.628,184.58
			c0-11.898,9.673-21.572,21.572-21.572c11.898,0,21.57,9.674,21.57,21.572c0,11.864-9.672,21.572-21.57,21.572
			C272.301,206.152,262.628,196.444,262.628,184.58"/>
		<path fill="#FFFFFF" d="M354.133,158.868c-1.704,0-3.131,1.322-3.131,2.992c0,1.635,1.427,2.992,3.131,2.992h12.353v43.979
			c0,1.705,1.322,3.063,2.992,3.063c1.635,0,2.992-1.356,2.992-3.063v-43.979h12.178c1.739,0,3.132-1.357,3.132-2.992
			c0-1.67-1.393-2.992-3.132-2.992H354.133z"/>
		<path fill="#FFFFFF" d="M193.837,156.782c-14.926,0-18.162,10.994-18.162,16.631c0,5.672,4.522,13.256,18.302,13.256
			s13.188,8.212,13.188,8.525c0,0.313,0.766,10.717-13.151,10.682c-11.378-0.034-12.735-8.732-12.562-11.412
			c0-1.602-1.287-2.817-2.889-2.817c-1.564,0-2.854,1.217-2.854,2.817c-0.243,9.533,7.271,17.152,18.196,17.152
			c13.71,0,19.033-8.42,19.033-16.353c0-7.934-6.264-14.37-18.998-14.37c-12.733,0-12.596-7.308-12.596-7.308
			s-0.835-11.169,12.631-11.169c13.465,0,12.421,12.145,12.421,12.145c0,1.564,1.253,2.817,2.818,2.817
			c1.564,0,2.818-1.253,2.818-2.817c0-17.433-16.736-17.779-18.094-17.779H193.837"/>
		<path fill="#FFFFFF" d="M314.781,175.743l0.035,33.646c0,1.6,1.321,2.888,2.922,2.888c1.636,0,2.923-1.288,2.923-2.888v-14.822
			h12.665l9.848,16.074c0.801,1.427,2.645,1.914,4.036,1.112c1.427-0.835,1.914-2.645,1.112-4.069l-8.629-14.127
			c7.411-2.574,12.735-9.568,12.735-17.814c0-10.402-8.455-18.857-18.824-18.857C322.088,156.885,314.781,164.993,314.781,175.743
			 M320.627,175.743c0-7.55,4.836-13.221,12.874-13.221c7.307,0,13.187,5.914,13.187,13.187c0,7.273-5.88,13.117-13.187,13.117
			h-12.84L320.627,175.743z"/>
		<path fill="#FFFFFF" d="M418.959,174.942c0,0,1.009-12.145-12.422-12.145c-13.466,0-12.631,11.169-12.631,11.169
			s-0.139,7.308,12.597,7.308c12.734,0,18.998,6.438,18.998,14.336c0,7.933-5.323,16.387-19.032,16.387
			c-10.961,0-18.477-7.654-18.232-17.188c0-1.566,1.322-2.783,2.889-2.783c1.565,0,2.889,1.217,2.889,2.783
			c-0.174,2.713,1.183,11.412,12.561,11.446c13.917,0.033,13.152-10.368,13.152-10.682c0-0.349,0.591-8.525-13.188-8.525
			c-13.778,0-18.302-7.584-18.302-13.256c0-5.637,3.236-16.632,18.162-16.632c0,0,18.197-0.383,18.197,17.78
			c0,1.563-1.252,2.817-2.818,2.817C420.212,177.76,418.959,176.506,418.959,174.942"/>
	</g>
</g>
<path fill="#FFFFFF" d="M484.716,214.616c-8.919,0.227-8.995,8.994-8.995,8.994l-0.113,74.004c0,11.792,2.722,20.258,6.729,26.305
	c3.778,5.254,8.882,9.487,14.814,12.133c6.729,2.797,13.153,3.138,16.103,3.101c1.096,0,1.699-0.038,1.699-0.038h77.557
	c7.86,0,7.482-8.466,7.482-8.466V223.044c0-7.408-6.65-8.313-7.597-8.428h-0.756H484.716z M525.8,230.339h20.296
	c0,0,9.978,0.793,9.978,14.514v77.707H539.86v-75.138h-20.334L525.8,230.339z"/>
</svg>
