<?xml version="1.0" encoding="UTF-8" standalone="no"?>
<svg xmlns="http://www.w3.org/2000/svg" height="212.38" width="600" version="1.1" viewBox="0 0 158.75 56.192633">
 <g fill="#fff">
  <path d="m588.21 36.326c-46.86-0.001-97.92 0.001-139.2 0.002-12.53 0.267-12.63 12.688-12.63 12.688l-0.16 104.34c0 16.68 3.84 28.57 9.49 37.16 5.28 7.41 12.47 13.32 20.9 17.06 9.49 3.94 18.55 4.42 22.71 4.42 1.54 0 2.4-0.11 2.4-0.11h97.66c11.15 0 10.62-11.94 10.62-11.94v-151.73c0-10.506-9.44-11.787-10.72-11.894h-1.07zm-74.97 15.215c0.29 0.052 0.5 0.326 0.5 0.635 1.21 6.512 2.45 13.019 3.63 19.533 0.14 0.558-0.5 0.7-0.91 0.756-6.31 1.187-12.03 5.229-15.23 10.805-0.17 0.394-0.59 0.837-1.04 0.496-5.71-3.297-11.4-6.622-17.1-9.93-0.34-0.135-0.61-0.535-0.38-0.883 6.26-11.129 17.67-19.157 30.23-21.383 0.11-0.038 0.21-0.046 0.3-0.029zm12.62 4.883c10.29 0.158 20.5 4.035 28.23 10.844 0.31 0.201 0.32 0.667 0.05 0.904-4.32 4.995-8.64 9.978-12.96 14.967-0.24 0.378-0.75 0.417-1.04 0.074-4.87-4.278-11.62-6.316-18.04-5.375-0.41 0.064-1.08 0.187-1.16-0.389-0.99-6.483-1.92-12.977-2.9-19.463-0.05-0.343-0.14-0.846 0.28-0.99 1.03-0.235 2.09-0.295 3.13-0.408v-0.002c1.47-0.132 2.94-0.185 4.41-0.162zm-50.33 17.174c0.24-0.009 0.49 0.148 0.7 0.256 5.76 3.104 11.54 6.171 17.29 9.285 0.48 0.225 0.29 0.783 0.06 1.132-3.05 5.669-3.47 12.67-1.14 18.669 0.24 0.41 0.27 1.04-0.31 1.16-6.11 2.37-12.23 4.71-18.34 7.07-0.34 0.19-0.86 0.2-0.99-0.25-4.42-11.034-3.98-23.866 1.07-34.611 0.45-0.886 0.81-1.838 1.41-2.639 0.08-0.048 0.16-0.069 0.25-0.072zm77.56 1.103c0.17 0.011 0.33 0.091 0.45 0.229 9.36 8.684 14.54 21.647 13.76 34.39 0 0.41-0.45 0.57-0.78 0.5-6.59-0.32-13.17-0.63-19.75-0.96-0.61 0.06-0.68-0.64-0.61-1.08 0.29-6.44-2.36-12.936-7.07-17.331-0.38-0.259-0.58-0.824-0.13-1.137 4.55-4.809 9.11-9.622 13.68-14.416 0.12-0.145 0.29-0.205 0.45-0.195zm-31.6 12.488c3.34 0.988 6.28 3.147 8.28 5.993-0.59-0.377-1.2-0.709-1.84-0.994 0.73 1.618 1.14 3.397 0.97 5.179-1.44 0.691-2.93 1.279-4.34 2.029 1.57-0.225 3.12-0.602 4.67-0.912 1.2 1.362 1.96 3.056 2.31 4.826 0.23-0.42 0.51-0.83 0.64-1.29 0.07-0.2 0.1-0.55 0.35-0.58-0.17 1.77-0.3 3.58-0.93 5.27-0.5 1.56-1.36 2.96-2.27 4.32 0.16-0.67 0.27-1.34 0.37-2.02-1.32 1.19-2.89 2.13-4.64 2.53-1.12-1.18-2.18-2.43-3.34-3.58 0.72 1.46 1.58 2.84 2.36 4.26-0.91 1.56-2.3 2.79-3.87 3.66 0.68 0.14 1.37 0.26 2.07 0.27-3.26 1.09-6.85 1.09-10.11 0 0.7-0.02 1.38-0.13 2.06-0.27-1.57-0.87-2.96-2.1-3.87-3.66 0.79-1.42 1.64-2.81 2.37-4.26-1.16 1.15-2.22 2.4-3.34 3.58-1.75-0.4-3.32-1.33-4.64-2.53 0.09 0.68 0.21 1.36 0.36 2.03-0.83-1.26-1.63-2.54-2.14-3.97-0.67-1.8-0.96-3.74-1.03-5.65 0.36 0.61 0.59 1.29 0.96 1.89 0.36-1.77 1.11-3.47 2.32-4.83 1.56 0.315 3.11 0.686 4.69 0.918-1.42-0.746-2.91-1.342-4.36-2.035-0.17-1.78 0.23-3.559 0.97-5.177-0.65 0.288-1.27 0.622-1.86 1.009 2-2.854 4.95-5.014 8.3-6.002-0.59 0.426-1.11 0.943-1.59 1.481 1.78-0.21 3.64-0.047 5.29 0.703 0.15 1.588 0.34 3.171 0.55 4.752 0.28-1.572 0.41-3.168 0.58-4.756 1.65-0.744 3.5-0.912 5.29-0.695-0.48-0.55-1-1.061-1.59-1.489zm-4.27 7.526c-2.24 1.632-4.48 3.253-6.72 4.883 0.86 2.632 1.72 5.272 2.57 7.902h8.31c0.86-2.63 1.71-5.27 2.57-7.9-2.24-1.63-4.48-3.264-6.73-4.885zm-29.27 13.925c0.15 0.02 0.28 0.11 0.35 0.27 0.4 0.78 0.72 1.6 1.17 2.36 2.76 4.99 7.49 8.84 12.93 10.54 0.31 0.13 0.76 0.18 0.83 0.58-0.08 0.62-0.32 1.19-0.49 1.79l-5.43 17.4c-0.07 0.36-0.37 0.76-0.78 0.59-12.3-3.64-22.75-13.03-27.66-24.88-0.16-0.4 0.24-0.66 0.56-0.77 6.02-2.6 12.03-5.21 18.06-7.8 0.14-0.08 0.31-0.11 0.46-0.08zm52.41 2.56c6.58 0.45 13.16 1.02 19.73 1.5 0.36 0 0.94 0.11 0.88 0.59-0.78 12.8-7.62 25.03-18.03 32.49-0.32 0.25-0.72 0.08-0.89-0.24-3.91-5.32-7.81-10.63-11.7-15.96-0.35-0.33-0.14-0.82 0.24-1.02 5.25-3.77 8.71-9.92 9.21-16.37 0.05-0.28 0.01-0.6 0.19-0.83 0.09-0.04 0.28-0.12 0.37-0.16zm-16.2 14.26c0.18 0.03 0.34 0.14 0.43 0.33 3.68 5.46 7.35 10.93 11.02 16.4 0.22 0.24 0.3 0.68 0 0.89-10.56 7.33-24.47 9.58-36.81 5.98-0.45-0.17-0.3-0.72-0.19-1.07 1.76-6.31 3.46-12.63 5.24-18.93 0.17-0.62 0.89-0.32 1.31-0.22 6.24 1.67 13.15 0.42 18.47-3.23 0.15-0.14 0.35-0.19 0.53-0.15zm-1.62 33.56c1.41-0.09 2.85 0.8 3.3 2.17 0.43 1.19 0.07 2.61-0.86 3.46-0.92 0.89-2.38 1.16-3.55 0.64-1.11-0.47-1.87-1.63-1.9-2.83-0.11-1.49 0.95-2.97 2.41-3.33 0.2-0.06 0.4-0.09 0.6-0.11zm-53.55 3.4h5.78v17.16c2.33-0.01 4.65-0.01 6.98 0v5.05h-12.76v-22.21zm35.89 0h5.79v17.15c2.33 0.01 4.66 0 6.99 0.01v5.05h-12.78v-22.21zm30.54 4.04c1.67-0.02 3.33 0.51 4.59 1.63 0.26 0.22 0.5 0.47 0.75 0.71 0-0.66-0.01-1.32 0-1.98h5.14c0 5.29 0.01 10.57 0 15.85-0.01 1.96-0.64 3.95-1.98 5.41-1.58 1.77-3.96 2.64-6.29 2.78-2.46 0.15-5.07-0.36-7.06-1.9-1.36-1.02-2.28-2.59-2.51-4.28h6.04c0.4 0.67 1.02 1.27 1.83 1.37 1.39 0.2 3.03 0.04 4.02-1.08 0.72-0.81 0.59-1.97 0.56-2.97-1.57 1.33-3.62 2.21-5.7 2.02-1.94-0.12-3.81-1.08-5.04-2.58-1.63-1.95-2.24-4.59-2.01-7.08 0.21-2.35 1.22-4.7 3.06-6.23v-0.01c1.26-1.07 2.93-1.64 4.6-1.66zm21.45 0.01c0.29 0 0.58 0.02 0.86 0.05 1.61 0.14 3.02 1.04 4.18 2.11v-1.81h5.32v17.81h-5.4v-1.72c-2.95 2.97-8.3 2.82-11.18-0.18-1.69-1.74-2.4-4.22-2.44-6.6-0.1-2.81 1.04-5.67 3.15-7.56 1.49-1.35 3.5-2.12 5.51-2.1zm-65.31 0c0.29 0.01 0.58 0.04 0.87 0.08 1.53 0.18 2.86 1.05 3.97 2.08v-1.81h5.32c0 5.94 0.01 11.88 0 17.81h-5.4c-0.01-0.57-0.01-1.15 0-1.72-2.97 2.99-8.35 2.82-11.21-0.22-1.67-1.74-2.37-4.2-2.41-6.57-0.1-2.86 1.08-5.76 3.26-7.64 1.53-1.35 3.57-2.07 5.6-2.01zm33.86 0.35v17.81h-5.38v-17.81h5.38zm11.57 4.28c-0.36-0.02-0.72 0-1.07 0.06-1.28 0.22-2.31 1.25-2.7 2.46-0.54 1.65-0.32 3.67 0.95 4.93 1.51 1.46 4.19 1.2 5.54-0.34 1.41-1.57 1.41-4.15 0.13-5.79-0.69-0.85-1.77-1.27-2.85-1.32zm20.77 0.37c-0.35 0.01-0.69 0.05-1.03 0.14-1.33 0.31-2.43 1.36-2.83 2.67-0.56 1.77-0.09 3.95 1.41 5.13 1.72 1.35 4.45 0.91 5.81-0.76 1.46-1.77 1.24-4.69-0.5-6.19-0.79-0.69-1.83-1.01-2.86-0.99zm-65.58 0c-0.34 0.01-0.69 0.06-1.02 0.15-1.22 0.32-2.25 1.25-2.69 2.43-0.68 1.81-0.23 4.08 1.28 5.33 1.74 1.4 4.55 0.95 5.9-0.78 1.43-1.78 1.18-4.68-0.57-6.16-0.8-0.69-1.85-1.01-2.9-0.97z" transform="matrix(.26458 0 0 .26458 0 -.00031921)" stroke-width="1.5365"/>
  <g stroke-width=".26538">
   <path d="m0 1.0767v24.11c0 7.5305 6.2232 14.61 15.024 14.61 8.8009 0 15.015-7.5305 15.015-15.162 0-7.6318-6.0575-14.96-15.024-14.96-8.9574 0-12.852 7.0702-12.852 7.0702v-15.668c0-0.58918-0.47871-1.0771-1.0771-1.0771-0.59798-0.0002466-1.0859 0.48766-1.0859 1.0768m2.2094 23.558c0-7.0978 5.7169-12.842 12.778-12.842 7.0518 0 12.778 5.7445 12.778 12.842 0 7.0978-5.7261 12.842-12.778 12.842-7.061 0-12.778-5.7445-12.778-12.842"/>
   <path d="m31.42 24.672c0 8.313 6.748 15.052 15.061 15.052 5.4223 0 10.163-2.8539 12.824-7.1438 0.34062-0.51553 0.18412-1.2152-0.33142-1.5558-0.50633-0.34981-1.2152-0.21173-1.5558 0.30381-2.2555 3.6824-6.3061 6.1404-10.937 6.1404-7.0702 0-12.796-5.7261-12.796-12.796 0-7.0702 5.7261-12.806 12.796-12.806 6.6743 0 12.161 5.1093 12.75 11.627h-14.913c-0.62601 0-1.1231 0.51554-1.1231 1.1416 0 0.626 0.50633 1.1323 1.1323 1.1323h16.083c0.84695 0 1.1323-0.59839 1.1323-1.0955 0-8.3222-6.7388-15.061-15.061-15.061-8.313 0-15.061 6.7388-15.061 15.061"/>
   <path d="m65.86 9.5923zc-1.4638 0-2.5685 1.1507-2.6421 2.191v26.117c0.07364 1.0403 1.1784 2.1818 2.6421 2.191 1.4545-0.009 2.5685-1.1507 2.6421-2.191v-26.117c-0.07364-1.0403-1.1876-2.191-2.6421-2.191zm0 30.499"/>
   <path d="m110.01 9.6107zc-1.4361 0-2.5224 1.1507-2.6053 2.1726v19.25c0 0.69967-0.43269 2.4396-2.099 3.2313-3.5719 1.6939-5.4131-1.565-5.4131-1.565l-11.906-18.743c-1.3717-2.3844-5.6156-5.809-11.397-3.664-5.5696 2.2923-5.6341 8.0828-5.6341 8.0828v19.526c0.08285 1.0403 1.1876 2.0621 2.6421 2.0713 1.4638-0.009 2.5869-1.1784 2.5869-2.3751v-18.688s-0.27618-3.6824 3.9678-4.069c2.4764-0.13806 3.6916 2.4304 3.6916 2.4304s10.845 17.096 11.94 18.799c1.1047 1.7031 5.5512 5.5236 11.333 3.1761 5.8458-2.3752 5.496-8.2301 5.496-8.2301l0.009-19.24c-0.0828-1.0219-1.1692-2.1634-2.6053-2.1634m-0.009 0h0.009zm-36.407 30.36h0.0092z"/>
   <path d="m57.611 46.499v8.9022c0 0.42346 0.34983 0.76409 0.7733 0.76409 0.43268 0 0.78251-0.34063 0.78251-0.76409v-3.9218h3.4154c2.7526 0 4.9804-2.2278 4.9804-4.9804s-2.2278-4.9896-4.9804-4.9896c-3.0472 0-4.9712 2.145-4.9712 4.9896m1.5466 0c0-1.9977 1.2704-3.4983 3.4062-3.4983 1.924 0 3.4891 1.565 3.4891 3.4891 0 1.924-1.565 3.4706-3.4891 3.4706h-3.4062z"/>
   <path d="m67.839 48.837c0 4.0506 3.2957 7.3556 7.3556 7.3556 4.0506 0 7.3556-3.305 7.3556-7.3556 0-4.0598-3.3049-7.3648-7.3556-7.3648-4.0598 0-7.3556 3.305-7.3556 7.3648m1.6479 0c0-3.1484 2.5593-5.7077 5.7077-5.7077s5.7077 2.5593 5.7077 5.7077c0 3.1392-2.5593 5.7077-5.7077 5.7077s-5.7077-2.5685-5.7077-5.7077"/>
   <path d="m93.698 42.034c-0.45109 0-0.82854 0.34983-0.82854 0.79171 0 0.43268 0.37744 0.79171 0.82854 0.79171h3.2681v11.636c0 0.45109 0.34983 0.81013 0.79171 0.81013 0.43268 0 0.79171-0.35904 0.79171-0.81013v-11.636h3.2221c0.4603 0 0.82854-0.35903 0.82854-0.79171 0-0.44188-0.36824-0.79171-0.82854-0.79171z"/>
   <path d="m51.286 41.482c-3.9494 0-4.8055 2.9091-4.8055 4.4004 0 1.5006 1.1968 3.5075 4.8423 3.5075 3.6456 0 3.4891 2.1726 3.4891 2.2555s0.20253 2.8354-3.4799 2.8262c-3.0104-0.009-3.3694-2.3107-3.3234-3.0196 0-0.42348-0.34062-0.7457-0.7641-0.7457-0.41427 0-0.75489 0.32222-0.75489 0.7457-0.06444 2.5224 1.924 4.5386 4.8147 4.5386 3.6272 0 5.0357-2.2278 5.0357-4.3268s-1.6571-3.8021-5.0265-3.8021-3.3326-1.9333-3.3326-1.9333-0.22094-2.9551 3.3418-2.9551 3.2865 3.2129 3.2865 3.2129c0 0.41427 0.33142 0.74568 0.74568 0.74568 0.41427 0 0.74568-0.33141 0.74568-0.74568 0-4.6122-4.4281-4.7042-4.7871-4.7042h-0.02762"/>
   <path d="m83.286 46.499 0.0092 8.9022c0 0.42346 0.34983 0.76409 0.7733 0.76409 0.43268 0 0.7733-0.34063 0.7733-0.76409v-3.9218h3.351l2.6053 4.2532c0.21174 0.37744 0.69966 0.50633 1.0679 0.29459 0.37744-0.22095 0.50633-0.69967 0.29459-1.0771l-2.2831-3.7376c1.9609-0.68123 3.3694-2.5316 3.3694-4.7134 0-2.7526-2.2371-4.9896-4.9804-4.9896-3.0472 0-4.9804 2.145-4.9804 4.9896m1.5466 0c0-1.9977 1.2796-3.4983 3.4062-3.4983 1.9333 0 3.4891 1.565 3.4891 3.4891 0 1.924-1.5558 3.4706-3.4891 3.4706h-3.397z"/>
   <path d="m110.85 46.287s0.26697-3.2129-3.2865-3.2129c-3.5627 0-3.3418 2.9551-3.3418 2.9551s-0.0368 1.9333 3.3326 1.9333 5.0265 1.7031 5.0265 3.7928c0 2.099-1.4085 4.336-5.0357 4.336-2.8999 0-4.8884-2.0253-4.8239-4.5478 0-0.41426 0.34983-0.73647 0.7641-0.73647s0.76409 0.32221 0.76409 0.73647c-0.046 0.71807 0.31301 3.0196 3.3234 3.0288 3.6824 0.009 3.4799-2.7434 3.4799-2.8262 0-0.0921 0.1565-2.2555-3.4891-2.2555s-4.8424-2.0069-4.8424-3.5075c0-1.4914 0.85616-4.4004 4.8055-4.4004 0 0 4.8147-0.10132 4.8147 4.7042 0 0.41427-0.33142 0.74568-0.74569 0.74568-0.41426 0-0.74568-0.33141-0.74568-0.74568"/>
  </g>
 </g>
</svg>
