<?xml version="1.0" encoding="UTF-8" standalone="no"?>
<svg xmlns="http://www.w3.org/2000/svg" height="222.24" width="600" version="1.1" viewBox="0 0 158.75 58.800624">
 <g transform="translate(-268.63 -203.99)" fill="#fff">
  <path d="m347.9 203.99l-28.934 58.671h4.6984l24.235-49.144 24.235 49.144h4.6984l-28.934-58.671z"/>
  <path d="m347.9 221.8c-6.7169 13.62-13.434 27.241-20.151 40.861h4.6985l15.452-31.334 15.452 31.334h4.6984c-6.7168-13.62-13.434-27.241-20.151-40.861z"/>
  <path d="m347.9 239.61c-3.7893 7.6838-7.5786 15.368-11.368 23.052h4.6984l6.6694-13.524 6.6694 13.524h4.6984c-3.7893-7.6838-7.5785-15.368-11.368-23.052z"/>
  <path d="m380.62 204.54v4.2139h38.582c-12.848 18.012-25.696 36.024-38.544 54.036h46.716v-4.214h-38.534c12.845-18.008 25.69-36.016 38.534-54.023v-0.0131z"/>
  <path d="m427.38 211.16c-10.416 14.603-20.832 29.205-31.248 43.808h31.248v-4.2139h-23.066l23.066-32.337z"/>
  <path d="m380.62 212.58v4.2139h23.153l-23.153 32.459v7.2567c10.445-14.643 20.89-29.287 31.335-43.93z"/>
  <g>
   <path style="color-rendering:auto;text-decoration-color:#000000;color:#000000;font-variant-numeric:normal;shape-rendering:auto;font-variant-ligatures:normal;text-decoration-line:none;font-variant-position:normal;mix-blend-mode:normal;solid-color:#000000;font-feature-settings:normal;shape-padding:0;font-variant-alternates:normal;text-indent:0;dominant-baseline:auto;font-variant-caps:normal;image-rendering:auto;white-space:normal;text-decoration-style:solid;text-orientation:mixed;isolation:auto;text-transform:none" d="m297.96 204.51c-16.177 0-29.336 13.071-29.336 29.141s13.159 29.142 29.336 29.142c8.1975 0 15.618-3.358 20.946-8.7602l-2.9055-2.8862c-4.573 4.6532-10.96 7.5388-18.041 7.5388-13.942 0-25.201-11.184-25.201-25.034s11.258-25.034 25.201-25.034c7.0571 0 13.425 2.8665 17.995 7.4925l2.9058-2.8866c-5.3245-5.3752-12.727-8.7137-20.901-8.7137z"/>
   <path style="color-rendering:auto;text-decoration-color:#000000;color:#000000;font-variant-numeric:normal;shape-rendering:auto;font-variant-ligatures:normal;text-decoration-line:none;font-variant-position:normal;mix-blend-mode:normal;solid-color:#000000;font-feature-settings:normal;shape-padding:0;font-variant-alternates:normal;text-indent:0;dominant-baseline:auto;font-variant-caps:normal;image-rendering:auto;white-space:normal;text-decoration-style:solid;text-orientation:mixed;isolation:auto;text-transform:none" d="m297.96 212.83c-11.55 0-20.957 9.3446-20.957 20.818s9.4071 20.818 20.957 20.818c5.8835 0 11.21-2.4262 15.021-6.3223l-2.9052-2.886c-3.0562 3.1473-7.349 5.1012-12.116 5.1012-9.3151 0-16.822-7.4574-16.822-16.711 0-9.2535 7.5071-16.711 16.822-16.711 4.7436 0 9.0174 1.9345 12.071 5.0546l2.9052-2.886c-3.8081-3.8689-9.1156-6.2757-14.976-6.2757z"/>
   <path style="color-rendering:auto;text-decoration-color:#000000;color:#000000;font-variant-numeric:normal;shape-rendering:auto;font-variant-ligatures:normal;text-decoration-line:none;font-variant-position:normal;mix-blend-mode:normal;solid-color:#000000;font-feature-settings:normal;shape-padding:0;font-variant-alternates:normal;text-indent:0;dominant-baseline:auto;font-variant-caps:normal;image-rendering:auto;white-space:normal;text-decoration-style:solid;text-orientation:mixed;isolation:auto;text-transform:none" d="m297.96 220.92c-7.0518 0-12.813 5.7228-12.813 12.728 0 7.0051 5.7609 12.728 12.813 12.728 3.6345 0 6.9232-1.523 9.2599-3.9556l-2.9048-2.8856c-1.5806 1.6844-3.8365 2.7342-6.3551 2.7342-4.8174 0-8.6782-3.8356-8.6782-8.6211s3.8608-8.6208 8.6782-8.6208c2.495 0 4.7317 1.0305 6.31 2.6872l2.9052-2.8859c-2.3338-2.4052-5.604-3.9084-9.2152-3.9084z"/>
  </g>
 </g>
</svg>
