<?xml version="1.0" encoding="UTF-8" standalone="no"?>
<svg xmlns="http://www.w3.org/2000/svg" height="600" width="600" version="1.1" viewBox="0 0 158.75 158.74995">
 <g transform="translate(268.36 173.96)">
  <rect fill-rule="evenodd" height="158.75" width="158.75" y="-173.96" x="-268.36" stroke-width=".26458"/>
  <g fill="#fbf2c1">
   <path d="m-209.67-156.81c-1.0342 0.10836-2.2456-0.069-3.2798 0-1.7138 0.10836-3.4571-0.13794-5.1314 0.10836-0.72883 0.0886-1.5562 0.51216-2.413 0.74854-0.31518 0.0886-0.87657-0.17728-1.1918-0.069-0.19703 0.0592-0.47276 0.42352-0.8569 0.58109-1.7433 0.66976-3.723 1.0539-5.5352 1.5266 0.18715 0.0986 0.35461 0.0986 0.64021 0.0986l15.828-1.891c0.43339 0 2.5411-0.66974 3.9101-0.91598 0.11817-0.0788 0.30531-0.17728 0.46291-0.28563-0.39395-0.25607-0.82733-0.34471-0.92582-0.34471-0.4038-0.01-0.99477 0.39396-1.5069 0.4432zm22.259 40.716c0.42347-0.39397 0.82736-0.77809 1.172-1.113 1.5168-1.4675 3.654-3.6442 4.7374-5.7125 1.2213-2.2948 2.4525-5.2988 2.4525-7.6429v-2.4524c0-0.40383-0.96521-6.7368-2.1176-10.076-0.71905-2.0388-1.5759-4.245-2.2456-6.1951-0.76826-2.285-1.9403-5.1216-3.1419-7.2884-1.8024 0-1.8812-0.16744-2.3047-0.16744-0.43336 0-0.97507 0.33487-1.4085 0.33487h-3.2207c-0.43332 0-1.0538 0.45307-1.5759 0.45307-1.2016 0-3.3783 0.23638-3.8116 0.23638h-2.6987c-0.72884 0-1.4182 0.5614-2.0782 0.6205-1.3788 0.16743-2.9449-0.0492-4.4518 0.10836-3.1616 0.34473-8.815 1.8516-9.2385 1.8516-0.37429 0-0.59093-0.11817-0.7485-0.24622-0.42352 0.49245-1.3494 0.21668-1.6744 0.28562-0.20685 0.15756-0.58111 0.4826-0.75842 0.4826-0.51216 0-1.0243-0.20683-1.5168-0.13794-0.37423 0.069-0.99473 0.65005-1.438 0.65005h-2.4524c-0.19696-0.18714-0.0296-0.34471-0.36441-0.34471-0.41366 0-0.60083 0.20681-0.91596 0.27577-0.32503 0.069-0.69931-0.10836-1.1524-0.10836-0.42352 0-3.7033 0.52201-5.3974 0.72884-0.88643 0.10836-2.5115 0.99476-2.9547 0.99476-0.96519 0-1.2016-0.23639-1.2016-0.94552 0-0.43336 0.52201-1.1228 0.52201-1.8122 0.50235 0 0.9849 0 1.31-0.0592 0.1871-0.12797 0.49247-0.43336 0.6796-0.58111 0.88642-0.21667 1.9698-0.10836 2.7578-0.45305 1.5069-0.65005 2.5312-1.0243 3.9791-1.3887 0.9258-0.23637 1.7236-0.85687 2.5804-1.0932 3.3881-0.97508 6.924-1.8418 10.332-1.8418 0.71897 0 1.3986-0.10837 2.088-0.27579l5.9095-0.17727c0.53185 0.18712 1.2016 0.18712 1.7138 0.34471 3.9397-0.17728 4.117 0 4.2943 0l17.453-1.0342c0.41367 0 1.2607-0.16743 1.7925-0.33487l13.474-0.17728c0.53184 0.17728 3.9101 0.33487 4.4321 0.33487 9.1204 0 19.383-0.22653 22.308-0.34473 1.7532-0.0592 4.9148-0.67958 5.3481-0.67958 0.4235 0 1.0243 0.17728 3.4374 0.17728 0.17727 0 0.25606 0.34473 0.68946 0.34473 0.43331 0 1.0243-0.34473 1.4577-0.34473 0.43336 0 0.86672 0.34473 1.2903 0.34473 0.43336 0 0.52201-0.52201 0.95531-0.52201 0.46295 0 0.4925 0.16743 0.65996 0.28563 0.32495 0.0492 0.64999-0.11817 1.0538-0.11817 0.89625 0 1.4576 0.64019 1.4576 1.2016 0 0.43338-0.1773 0.68945-0.1773 1.1327-0.45305 0.21668-0.97504 0-3.5949 0.23638-1.0834 0.0886-2.876 0.68943-3.3094 0.68943h-5.4663c-0.4333 0 0.62055 0.6796 0.20685 0.6796-0.45305 0-0.65004-0.16744-0.83715-0.29548-0.67959-0.0394-16.222 0.13794-24.101 0.13794-1.3887 0-6.7861-0.34472-7.2096-0.34472-0.43336 0-8.4309 0.85688-8.8643 0.85688-0.43336 0-1.2016-0.33487-1.635-0.33487-0.41365 0-1.4774 0.31517-2.3244 0.33487-0.049 0.0592-0.0886 0.14774-0.0886 0.34472 0 0.42351 1.4281 3.0631 1.9895 4.5897 0.23645 0.64019 0.58114 1.3789 0.63035 2.0683 0.14775 0.18714 0.4531 0.49246 0.57125 0.66974 0.24629 0.88643 0.591 1.9009 0.7978 2.9252 0.13794 0.15756 0.44321 0.29547 0.74855 0.48261 0.6008 2.4918 2.3145 7.249 2.3145 7.6824 0 0.43336-0.33482 0.17728-0.33482 0.61064 0 0.42352 0.16741 1.7236 0.16741 2.1471 0 0.38411 0.33485 0.27577 0.4531 0.46291 0.069 1.0834 0.41365 2.7184 0.41365 3.1517 0 0.43336-0.34474 1.3001-0.34474 1.7236 0 0.38411 0.325 0.44321 0.44319 0.6205 0.0788 0.38411-0.0984 0.91598-0.0984 1.438 0 0.34472 0.34471 0.62051 0.34471 1.0539v2.6297l-0.67962 0.67958c0.069 0.16742 0.33491 0.41366 0.33491 0.79778 0 0.43337-0.4728 1.2016-0.4728 1.7236 0 0.6796-0.53185 1.2114-0.40384 2.0289-0.86672 0.38413-1.6251 1.8221-2.0584 2.6593h-8.884zm-44.577 0c-0.20681-1.2706-0.32498-2.7381-0.22649-3.0828 0.28561-0.84703-0.50233-2.0388-0.10836-2.8169 0.29546-0.6008 0.49244-0.90612 0.73871-1.438 0.18711-0.0592 0.0886-0.23638 0.33484-0.53185 0.049-0.17728 0.049-0.4826 0.0985-0.67959 0.30532-0.35457 0.77809-0.82733 1.0145-1.1622-0.0396-0.20683-0.0296-0.51215 0.0194-0.70913 0.48262-0.87659 1.0046-1.9009 1.4183-2.9646 0.19697-0.0592 0.53181-0.22654 0.86671-0.29548 0.31518-0.27577 0.32504-0.65005 0.65987-0.90612 0.31518-0.22653 0.87663-0.49246 1.4282-0.70915 0.29547-0.10836 0.82733-0.3644 1.3986-0.52199 1.3001-0.34473 2.8169-0.21669 4.2745-0.45307 0.12798-0.0986 0.25608-0.35457 0.32504-0.57124 0.41366-0.069 1.0243-0.40382 1.4675-0.40382 0.72884 0 2.5509 1.7433 2.9646 1.8319 1.891 0.43336 3.6541 3.004 5.9784 4.0874v0.79779c-0.3644 0-0.64019 0.20682-0.81746 0.47275 0.3841 0.30532 0.99478 0.46291 1.0834 0.85688 0.40379 1.3296 1.1031 3.7427 1.1031 4.176 0 0.45307-0.30538 0.84704-0.48264 1.2804-0.2364 0.51216 0.70913 0.79778-0.70911 1.3887 0 0-0.01-0.32502 0.11816-0.58111-0.12797-0.13794-0.28559-0.30532-0.41366-0.34471 0.16744 0.88643 0.63035 1.7138 0.63035 2.1373 0 0.18714-0.15756 0.6205-0.35457 1.1524h-4.7178c-0.01-0.12797-0.01-0.21668 0.0396-0.27578 0.40379-1.3887 0.90609-3.8313 0.90609-4.2351 0-0.36442-0.6205-1.4577-1.1228-2.1471-0.0986-0.13794-0.069-0.53186-0.13794-0.88642-0.0986-0.15756-0.22655-0.27578-0.37428-0.35457-0.0788-0.1773 0.0886-0.18714 0.0886-0.6599 0-0.38412-0.28561-0.84703-0.38413-1.1721-0.60077-0.37426-1.1031-1.2114-1.7728-1.6448-0.42352-0.27579-1.0539-0.26593-1.5168-0.43336-0.394-0.15755-0.63035-0.91598-1.044-1.1031-0.26592-0.13794-0.55158-0.20683-0.95539-0.20683-0.38413 0-0.45303 0.33487-0.62048 0.44322-0.37427 0.069-0.72884 0.01-1.044 0.10836-1.0243 0.39397-2.1176 1.0736-3.0828 1.5463-0.35457 0.17728-0.6205 0.76823-0.81748 1.0736-0.20681 0.0886-0.53184 0.23638-0.71897 0.29548-0.4531 0.4235-0.62049 0.89627-0.82737 1.3592 0.0592 0.21668 0.049 0.56141-0.0196 0.74853-0.46289 0.87658-0.95533 2.2161-0.95533 2.6002 0 0.43337 0.29545 1.2902 0.33485 3.3586 0.01 0.36442 0.32504 0.98492 0.71902 1.5857h-4.7867zm4.7769 0c0.35457 0.55156 0.76823 1.0834 1.0637 1.438 0.58112 0.6796 1.1326 1.9698 2.1176 2.7972 0.23634 0.20685 0.83713 0.14775 1.1425 0.24624 0.66975 0.20683 1.5857 1.1524 2.0092 1.1524 0.38413 0 0.56138 0.26592 1.1425-0.12797 0.42352 0.21667 0.83718 0.28563 1.3297 0.79778 0.15755-0.0592 0.33485-0.32503 0.70913-0.32503 0.43337 0 0.19697-0.15756 0.62049-0.15756 0.36442 0 0.44324-0.0394 0.80766-0.52201 0.0788-0.13794 1.1031-0.33487 0.97506-0.6008-0.29547-0.52199 0.87655-0.81746 1.2213-1.3789 0.14775-0.23638 0.19701-0.20683 0.19701-0.6205 0-0.43336 0.10836-1.3493 0.10836-1.7827 0-0.31518-0.10836-0.68946-0.13794-0.95539l4.7178 0.01c-0.28564 0.75841-0.68945 1.7138-0.94553 2.4229-0.13794 0.0788-0.40384 0.19698-0.48262 0.32501 0.0296 0.51217-0.28561 1.1622-0.16744 1.8615-0.57126 0.49246-0.47277 0.4826-0.47277 0.6796 0 0.4432-0.52201 1.5857-0.77808 2.4524-0.60077 0.39395-1.0637 0.98491-1.5168 1.4675 0.57125 0.30532 0.4629 0.0394 0.74855 0.0394 1.3395 0 4.9542 4.3041 5.5155 4.3041 0.43338 0 1.7236-1.0243 2.157-1.0243 0.43333 0 0.85685 0.51215 1.2902 0.51215 0.37427 0 0.71897-0.6008 1.0243-1.0637-0.049-0.0985-0.27574-0.34473-0.72884-0.57125 1.4971-3.3389 5.9489-4.639 8.5589-6.658 1.7827-1.3789 3.9101-1.6842 5.5353-2.9744 0.5909-0.47276 1.3394-1.1326 2.0388-1.7827h8.8741c-0.13778 0.25607-0.22646 0.4629-0.29547 0.57125-0.81745 1.2705-1.4084 1.172-2.5608 2.4623l-0.6599-0.87658c0-0.4826-0.25605 1.3099-0.11817 0.94553-0.45305 0.10836-0.84704 0.27577-1.2607 0.64021 0.16746 0.0986 0.38414 0.18712 0.76826 0.18712 0 0.52201-1.5956 0.97506-1.5956 1.6645-0.34469 0-0.0886-0.15755-0.51215-0.15755-0.4235 0-0.99476 1.1622-1.8024 1.7433-1.5758 1.1228-2.9744 2.6199-4.7867 3.654-0.58106 0.31516-1.0243 1.1523-1.7235 1.6152-0.18719 0.069-0.49249 0.0788-0.66979 0.10835-1.3789 1.694-2.7381 1.6448-4.117 2.0585-0.98491 1.4675-3.0926 2.2259-4.1859 2.6002-0.70916 0.24623-0.99476 1.2312-1.6054 1.6153v0.28563c0.46291 0.10833 0.91595-0.03941 1.5463-0.03941 0 0.65989 0 1.3296-0.11817 1.9994 0.75838 0.6599 1.113 1.3296 1.9304 2.0388 0.069 0.38412-0.069 0.94552 0.0984 1.2016 0.78795 1.3592 1.6547 2.6593 2.4919 3.9495h-6.53v-0.0098c-0.12814-0.16743-0.28564-0.08865-0.28564-0.5614v-2.6297c0-0.39396-0.35455-1.8713-0.7387-2.8366-0.26593-0.68944-0.71899-1.2804-1.1819-1.891-1.9501 1.3198-4.8753 2.7381-6.4413 4.4617-1.1524 1.2607-2.7972 2.0585-4.0973 2.8858-0.21669 0.14772-0.40379 0.34471-0.58111 0.58109l-7.2489 0.0098c0.16739-0.18713 0.31515-0.36442 0.48257-0.54171 0.25612-0.30532 0.23639-1.0046 0.63035-1.3887 1.0145-1.0243 2.482-1.438 3.5851-2.3146 3.1419-2.5805 5.4958-6.1065 9.1007-8.096-1.182-1.0243-3.1222-2.7578-3.2109-4.4124-0.01-0.30533-0.52201-0.87658-1.172-1.5365-0.68947 0.31518-1.5069 0.4826-1.9403 0.4826-0.46291 0-3.8018-0.80762-5.6436-1.4478-1.0538-0.36442-2.2358-1.1228-3.2502-1.8615-0.20683 0.0492-0.45305 0.0394-0.73869-0.0394-0.22656-0.32503-0.51216-0.68944-0.87658-0.93568-0.12797-0.0886-0.55154 0.0492-0.83718-0.0985-0.38413-0.19699-0.6205-0.74854-1.172-0.95537-0.14775-0.85688-0.65994-2.0092-1.0046-2.4426-0.069-0.0886-0.44325-0.5023-0.66974-0.81747-0.14775-0.18714-0.30531-0.97508-0.44323-1.8714zm29.508 28.207c0.8076 1.2508 1.5758 2.5115 2.2259 3.8116 0.72884 1.4478 1.31 3.3586 2.3343 4.7867 1.9895 2.7972 4.7571 6.0375 6.9535 8.2733 0.0788 0.20683 0.0886 0.36442 0.11816 0.53186 1.3001 1.3395 2.9942 3.3389 3.4177 3.3586l9.6424-0.86673h9.0218l11.464-2.2161c1.96 1.1819 1.0046 1.4675 1.0046 2.5903 0 0.38412 0.32499 0.45306 0.44316 0.6205 0.2364 1.241 0.591 3.5752 0.591 4.0283 0 0.43336-0.40381 0.82734-0.4728 1.3986-0.10836 0.69929-0.38407 1.3198-0.66971 1.9698l-5.4072-0.0098c0.57125-2.0092 1.044-4.5799 1.044-4.9049 0-0.76824-0.43341-0.86673-0.86675-0.86673-0.43336 0-2.7479 0.34472-3.1812 0.34472-0.4728 0-0.50235-0.15759-0.84706-0.51215-5.4663 0.17729-12.39 1.6153-17.266 2.0289-0.54167 0.03941-1.1228-0.34472-1.5562-0.34472-0.43334 0-3.4472 0.67959-3.8805 0.67959-0.4531 0-1.3691-0.23638-1.7433-0.82734-1.3986-2.2949-3.7033-4.639-5.6929-6.727-0.2068-1.0243-1.6645-2.7972-2.9646-3.7525-1.566 1.5266-2.3047 2.8267-2.5017 4.6488-0.11817 0.19698-0.25606 0.35456-0.38406 0.51215 0.32496 1.9107-0.68946 3.5161-1.5069 5.3579-0.74861 1.7039-1.0933 3.1123-2.3343 4.3632h-8.3225c0.35456-0.38412 0.76823-0.72885 1.0637-1.0933 0.2265-0.29547 0.26592-0.74854 0.44318-0.98492 1.96-2.7972 4.7769-6.6482 6.4512-8.3324 0.4925-0.49246 0.82735-1.4478 1.3001-2.0486 0.65995-0.87658 1.3001-1.6547 1.3001-2.482 0-0.39396-0.0294-0.45306-0.21669-0.76823-0.2955-0.50231-1.1524-0.93568-1.6054-1.7236-0.7387-1.2804-1.7138-2.807-2.4229-4.4912-0.74855-1.7531-1.2706-4.5011-1.4872-6.3626zm-19.866 0c-0.27579 0.38412-0.52201 0.81748-0.78792 1.0243-1.9698 1.635-4.2548 3.7821-5.3777 5.1413-0.069 0.06899-0.59091 0.12804-0.78794 0.40382-2.7676 3.3192-6.4118 6.9141-7.7906 10.283-0.49249 1.241-1.2607 2.5115-1.438 3.9101-0.14775 1.1819-0.12814 2.5903-0.33489 3.9692-0.11817 0.66974-0.049 1.5562-0.30532 2.4327-0.54172 0.27578-1.0834 0.63035-1.5365 0.63035-0.43335 0-1.2114-0.34473-1.6448-0.34473-0.56138 0-0.63033 0.35458-0.70911 0.80764l-3.0926 0.0098c0.0984-0.17729 0.20682-0.32502 0.20682-0.5614 0-0.43337-0.68945-0.61065-0.68945-1.0342 0-0.4235 1.6448-3.1222 2.2949-4.4617 0.70917-1.4183 1.9797-2.7085 2.6494-4.1268 0.75841-1.635 2.1077-3.5555 3.2896-5.0329 0.49249-0.59095 0.63035-1.438 0.9554-2.0388 0.58111-1.113 1.3296-1.5562 1.172-2.5312 0.54172-0.43336 1.044-1.1031 1.6547-1.4577 0.049-0.14775 0.049-0.29548 0.0985-0.48261 0.5023-0.55156 1.2705-0.99478 1.8024-1.7433 0.32503-0.45307 0.17731-1.0933 0.45305-1.4971 0.77808-1.1326 1.7433-2.2456 2.6888-3.3093zm65.911 28.207c-0.3841 0.87658-0.7682 1.8221-0.7387 3.1419-0.51215 0.12806-1.2114 0.32503-1.2114 0.98492 0 0.41367 0.52201 0.56141 0.89625 1.3296-0.2659 0.27577-0.6599 0.27577-1.0243 0.34472-0.3053 0.07879-0.7485 0.57126-1.1228 0.98492 0.01 0.09849-0.0886 0.18714-0.47277 0.19698-0.47274 0-0.53184-0.24623-0.95535-0.5023-0.40381-0.24623-2.4919-0.21668-2.4919-1.3099 0-0.43337 0.049-1.369 0.21669-2.0289 0.15756-0.56139 0.81748-1.1425 1.1031-1.9009 0.13794-0.36442 0.25609-0.77808 0.3841-1.2311h5.417zm-49.078 0c-0.0886 0.10834-0.18712 0.19698-0.2856 0.28562-2.6691 2.3835-5.1314 5.0329-8.1945 8.1453-0.21669 0.24623-3.0532 3.2502-3.0532 3.92 0 0.38411 1.0243 3.3684 1.7531 4.8261 0.47276 0.94552 1.4675 1.6153 2.1176 2.5608 0.87657 1.2508 2.3342 3.9889 2.3342 4.4912 0 1.0243-2.0289 1.3001-2.3146 1.4774-0.18712 0.10833-0.32504 0.5417-0.68946 0.74854-0.29546 0.16743-3.7624 1.8122-4.5897 1.8122h-2.8858c-0.44325 0-1.2508-0.45305-1.96-0.64019-0.55158-0.15759-1.4183 0-2.3934-0.17728-0.15755-0.03944-0.01-0.03944-0.39394-0.03944-0.43339 0-1.0342 0.68944-1.4577 0.68944-0.44323 0-1.241-0.68944-2.0683-0.90613 0-0.4826 0.17724-1.0736 0.17724-1.5069 0-0.43337-0.34469-0.94552-0.34469-1.3789 0-0.46291 0.35455-0.92582 0.59092-1.3296 0.77811-0.04924 1.9009-0.39396 2.3343-0.39396 0.43333 0 3.0926 0.51216 3.526 0.51216 0.43338 0 1.31 0.1182 3.8609-0.16744 1.0243-0.10834 1.9403-0.32503 2.9055-1.2508-0.84704-1.8516-1.8516-3.8018-2.8267-5.9194-0.21664-0.45305-0.1674-1.241-0.2856-1.7531-0.20685-0.6993-0.80767-1.5759-0.80767-2.0191 0-2.1668 2.5214-3.6343 3.1419-6.1557 0.0592-0.20683 0.56138-0.522 0.77807-0.90611 0.79779-1.3198 1.3592-2.9941 2.3441-4.4814 0.10836-0.16743 0.2364-0.32502 0.38413-0.48261l8.3028 0.0394zm-37.545 0.0098c-0.059 0.36443-0.11817 0.81748-0.42352 1.1819-0.18712 0.22654-0.61062 0.6599-0.81747 1.0933h-0.61063c-0.87657 0-1.3986-1.4478-1.3986-1.8123 0-0.19698 0.069-0.33487 0.14775-0.47276h3.1025z" stroke-width=".70246"/>
   <path style="color-rendering:auto;text-decoration-color:#000000;color:#000000;font-variant-numeric:normal;text-orientation:mixed;shape-rendering:auto;solid-color:#000000;text-decoration-line:none;font-variant-position:normal;mix-blend-mode:normal;font-feature-settings:normal;shape-padding:0;font-variant-alternates:normal;text-indent:0;dominant-baseline:auto;font-variant-caps:normal;image-rendering:auto;white-space:normal;text-decoration-style:solid;font-variant-ligatures:normal;isolation:auto;text-transform:none" d="m-133.7-40.627-0.38222 0.01379v15.147c1.4562 0.02154 3.0899-0.02634 4.4652 0 2.5581 0 4.5503-0.67232 5.8866-2.0595 1.3362-1.3872 1.9779-3.4421 1.9779-6.0901 0-2.1074-0.65343-3.856-1.9599-5.1565v-0.000879c-1.3031-1.3095-3.0854-1.9616-5.2562-1.9616-1.716 0.0018-3.4274 0.06234-4.7314 0.10824zm3.7334 2.951c0.29316 0.009 0.5869 0.0035 0.87945 0.000088 1.3587 0 2.3017 0.35387 2.927 1.0263 0.6252 0.67245 0.96617 1.7143 0.96617 3.1906 0 1.6241-0.35328 2.8368-1.0152 3.6819v0.00088c-0.65673 0.84607-1.5173 1.2505-2.7105 1.2505-0.60129-0.0113-1.2688-0.0086-1.8182-0.0412v-9.0634c0.28825-0.02081 0.59966-0.04552 0.77212-0.04552z"/>
   <path style="color-rendering:auto;text-decoration-color:#000000;color:#000000;font-variant-numeric:normal;text-orientation:mixed;shape-rendering:auto;solid-color:#000000;text-decoration-line:none;font-variant-position:normal;mix-blend-mode:normal;font-feature-settings:normal;shape-padding:0;font-variant-alternates:normal;text-indent:0;dominant-baseline:auto;font-variant-caps:normal;image-rendering:auto;white-space:normal;text-decoration-style:solid;font-variant-ligatures:normal;isolation:auto;text-transform:none" d="m-149.83-40.637v15.17h3.3427v-6.4783h5.4606v6.4783h3.3143v-15.17h-3.3143v5.6332h-5.4606v-5.6332z"/>
  </g>
 </g>
</svg>
