<?xml version="1.0" encoding="UTF-8" standalone="no"?>
<svg xmlns="http://www.w3.org/2000/svg" height="115.82" width="600" version="1.1" viewBox="0 0 158.75 30.644616">
 <g transform="translate(27.494 -92.728)">
  <g fill="#231f20">
   <path d="m131.26 115.58c0 4.3086-2.6647 7.7952-5.9591 7.7952h-29.845c-3.2878 0-5.9591-3.4866-5.9591-7.7952v-15.027c0-4.3086 2.6713-7.8018 5.9591-7.8018h29.842c3.2944 0 5.9591 3.4933 5.9591 7.8018z"/>
   <path d="m-19.858 98.358v19.289c1.0805 0 1.7433-0.21874 1.9886-0.66286 0.25189-0.43748 0.37783-1.6373 0.37783-3.5993v-11.388c0-1.3257-0.0464-2.1808-0.12594-2.552l-0.57006-0.82194c-0.29829-0.17897-0.85509-0.26514-1.6704-0.26514m-7.6361-5.0178h5.7006c3.6722 0 6.1646 0.17234 7.4572 0.5104 1.2992 0.33806 2.2869 0.88823 2.9563 1.6638 0.67612 0.77554 1.1003 1.6306 1.2727 2.5785 0.16571 0.94789 0.25189 2.8171 0.25189 5.5879v10.274c0 2.6316-0.12594 4.3881-0.3712 5.2764-0.25189 0.88823-0.68274 1.5776-1.2926 2.0814-0.61646 0.50377-1.3787 0.84845-2.2802 1.0539-0.90812 0.19886-2.267 0.29829-4.0898 0.29829h-9.6048z"/>
   <path d="m3.7271 100.87c0-1.3655-0.072914-2.2405-0.22537-2.6183l-0.9214-0.573-0.9014 0.458c-0.21211 0.31154-0.31154 1.2197-0.31154 2.731v13.708c0 1.7035 0.066285 2.7509 0.20549 3.1486l0.95452 0.59657 0.98766-0.68274c0.1392-0.45737 0.21211-1.5511 0.21211-3.2811zm7.6361 9.6446c0 2.9431-0.06629 5.0311-0.20549 6.2574s-0.57669 2.3399-1.3058 3.3541c-0.72914 1.0142-1.7168 1.7964-2.963 2.3399-1.2395 0.54354-2.6912 0.81531-4.3417 0.81531-1.571 0-2.9829-0.25851-4.229-0.76892-1.2528-0.51703-2.2537-1.286-3.016-2.3067-0.76229-1.0341-1.213-2.1477-1.3589-3.3541-0.14583-1.2064-0.21874-3.3209-0.21874-6.3369v-5.0178c0-2.9497 0.072914-5.0311 0.21211-6.2574s0.57006-2.3465 1.2992-3.3607c0.73577-1.0142 1.7168-1.7897 2.963-2.3333 1.2462-0.54354 2.6912-0.81532 4.3484-0.81532 1.5643 0 2.9762 0.25189 4.229 0.76892 1.2462 0.5104 2.2537 1.2793 3.016 2.3067 0.75566 1.0274 1.213 2.141 1.3589 3.3474 0.1392 1.213 0.21211 3.3209 0.21211 6.3436z"/>
   <path d="m22.804 109.43v8.2194c1.0738-0.0331 1.7566-0.20548 2.0482-0.5104 0.29829-0.29829 0.44412-1.0407 0.44412-2.2272v-2.7442c0-1.2528-0.13257-2.0151-0.39772-2.2869-0.26514-0.26514-0.96114-0.41098-2.0946-0.45074m0-11.07v6.5093l0.76229-0.0199c0.7424 0 1.2197-0.1856 1.4251-0.55017 0.19886-0.37121 0.30492-1.4185 0.30492-3.1552 0-0.91476-0.08618-1.5577-0.25189-1.9223l-0.66286-0.69599c-0.26514-0.09943-0.79543-0.15246-1.5776-0.16572m-7.636-5.022h7.6096c2.4062 0 4.229 0.19223 5.462 0.56343 1.2395 0.3712 2.2405 1.1335 3.0027 2.2736 0.76229 1.1401 1.1401 2.9696 1.1401 5.5084 0 1.7102-0.26514 2.9033-0.80206 3.5794-0.54354 0.67611-1.6041 1.1998-3.1817 1.5577 1.7632 0.39772 2.963 1.0606 3.5927 1.9886 0.62972 0.92137 0.94126 2.3399 0.94126 4.2489v2.7177c0 1.982-0.22537 3.4469-0.67612 4.4014-0.45737 0.96115-1.1799 1.6107-2.1675 1.9621-0.99429 0.35132-3.0226 0.52367-6.0917 0.52367h-8.83z"/>
   <path d="m44.235 109.43v8.2194c1.0672-0.0331 1.7566-0.20548 2.0482-0.5104 0.29829-0.29829 0.44412-1.0407 0.44412-2.2272v-2.7442c0-1.2528-0.13257-2.0151-0.39772-2.2869-0.26514-0.26514-0.96114-0.41098-2.0946-0.45074m0-11.07v6.5093l0.75566-0.0199c0.74903 0 1.2263-0.1856 1.4318-0.55017 0.19886-0.37121 0.30492-1.4185 0.30492-3.1552 0-0.91476-0.08617-1.5577-0.25189-1.9223l-0.66286-0.69599c-0.27177-0.09943-0.79543-0.15246-1.5776-0.16572m-7.6361-5.0178h7.6096c2.4062 0 4.2224 0.19223 5.462 0.56343 1.2395 0.3712 2.2405 1.1335 3.0027 2.2736 0.76229 1.1401 1.1401 2.9696 1.1401 5.5084 0 1.7102-0.26514 2.9033-0.80869 3.5794-0.53692 0.67611-1.5975 1.1998-3.1751 1.5577 1.7632 0.39772 2.963 1.0606 3.5927 1.9886 0.62972 0.92137 0.94126 2.3399 0.94126 4.2489v2.7177c0 1.982-0.22537 3.4469-0.67612 4.4014-0.45737 0.96115-1.1799 1.6107-2.1675 1.9621-0.99429 0.35132-3.0226 0.52367-6.0917 0.52367h-8.8293z"/>
   <path d="m86.887 93.34v5.8597h-4.5v23.46h-7.637v-23.461h-4.5008v-5.8597z"/>
   <path d="m66.625 99.276h-7.6162v-6.0585h7.6162z"/>
   <path d="m66.625 122.56h-7.6759v-20.104h7.6759z"/>
  </g>
  <path d="m103.08 117.79h-4.3749v-14.596h-3.6258v-4.1163h11.62v4.1163h-3.6192z" fill="#fff"/>
  <path d="m116.46 110.45 4.0898-11.368h4.7593l-7.192 18.712h-3.4005l-7.0793-18.712h4.7593z" fill="#fff"/>
 </g>
</svg>
