<?xml version="1.0" encoding="UTF-8" standalone="no"?>
<svg xmlns="http://www.w3.org/2000/svg" height="123.34" width="600" version="1.1" viewBox="0 0 562.5 115.63128">
 <g transform="translate(188.41 -603.74)">
  <path d="m-188.41 719.37h493.95v-83.27h-493.95z" fill="#40b93c"/>
  <g fill="#fff">
   <path d="m164.65 672.64c5.2806-0.0154 8.7779-2.4859 8.7779-6.1144 0-3.119-2.401-4.8097-7.0331-4.8406h-2.2003l-1.5518 10.955zm8.693 28.434-11.688-19.393-2.3469 19.393h-13.178l6.207-50.614h16.529c11.951 0.008 17.949 5.1416 17.949 15.479 0 5.2961-1.3665 9.0712-4.4777 11.982-1.5981 1.5132-2.9414 2.2774-6.0681 3.5513l12.182 19.239-0.193 0.12353v-0.22389 0.22389l0.193-0.12353 0.24704 0.36285z"/>
   <path d="m215.28 700.83v-0.22388zm-13.271 0.23161v-39.1h-10.561v-11.503h34.903v11.503h-10.839v39.103z"/>
   <path d="m59.794 673.68h-4.1689v-12.484h4.2152c4.6321 0 6.9019 2.0613 6.9019 6.2765 0 4.2847-2.1617 6.207-6.9482 6.207m15.626-18.93c-3.2193-3.1112-6.5699-4.2924-12.321-4.2847h-20.405v50.614h13.163v-16.683h7.697c10.754-0.008 16.645-6.0758 16.676-17.069 0-5.2575-1.5826-9.465-4.8097-12.576"/>
   <path d="m104 666.25c-2.6635 2.6866-3.9914 5.7207-3.9914 9.3955 0 3.8292 1.2661 7.0872 3.9141 9.7352 2.6789 2.6635 5.8674 4.0145 9.6889 4.03 3.8138-0.0154 6.9327-1.3665 9.5962-4.03 2.6635-2.648 3.9913-5.8519 3.9913-9.6039 0-3.8215-1.3279-6.925-3.9913-9.5885-2.6635-2.648-5.821-3.9142-9.5962-3.9296-3.6903 0.0154-6.8942 1.3433-9.6116 3.9914m9.6116 37.065c-8.0059 0-14.838-2.6172-20.335-7.782-5.4119-5.2266-8.1911-11.673-8.1911-19.277 0-5.8288 1.5209-11.055 4.5318-15.649 3.034-4.5935 7.2416-8.0522 12.538-10.168 3.4355-1.3819 7.1566-2.0767 11.179-2.0767 8.2606 0 15.17 2.6172 20.613 7.7742 5.4119 5.1416 8.1911 11.781 8.1603 19.64 0.0309 8.0058-2.7484 14.684-8.3069 19.833-5.4891 5.1494-12.26 7.7048-20.157 7.7048z"/>
   <path d="m-77.871 661.64v8.5694h14.614v11.31h-14.614v20.258h-13.371v-51.44h29.422v11.302z"/>
   <path d="m-28.497 660.83c-8.7007 0-15.286 6.7088-15.286 15.548 0 8.5694 6.099 14.815 14.398 14.815 8.5694 0 14.946-6.5158 14.946-15.363 0-8.7007-5.9523-15-14.058-15m-0.75658 42.739c-16.259 0-27.839-11.117-27.839-26.843 0-16.182 12.267-28.233 28.874-28.233 16.12 0 27.09 10.685 27.09 26.372 0 16.761-11.727 28.704-28.125 28.704"/>
   <path d="m272.84 683.13v18.598c0 0.6871-0.13124 0.94959-0.70254 0.94959h-14.128c-0.48637 0-0.77974-0.32425-0.77974-0.81834v-18.606c0-0.74886-0.27793-1.0268-0.90326-1.0268h-18.359c-0.54042 0-0.81834-0.34741-0.81834-0.97274v-14.043c0-0.57129 0.20073-0.84922 0.77202-0.84922h18.49c0.54041 0 0.81834-0.27021 0.81834-0.8801v-15.934c0-0.41689 0.29337-0.6871 0.6871-0.6871h14.074c0.57129 0 0.84922 0.20072 0.84922 0.6871v15.934c0 0.74885 0.1158 0.8801 0.74886 0.8801h18.505c0.55586 0 0.75658 0.27793 0.75658 0.89554v14.143c0 0.47865-0.27793 0.82606-0.75658 0.82606h-18.289c-0.77201 0-0.96502 0.13896-0.96502 0.90326"/>
   <path d="m-113.61 701.69-24.62-31.583v31.583h-13.387v-51.563h13.387l24.62 31.522v-31.522h13.41v51.563z"/>
   <path d="m-164.43 701.77h-13.032l6.3074-51.432h13.032z"/>
   <path d="m32.415 664.43c-3.4973-2.6094-6.2379-3.837-9.0481-3.837-3.505 0-5.767 1.7834-5.767 4.524 0 0.75659 0.20844 1.436 0.48637 1.9841 0.81834 1.4437 2.0536 2.2697 6.0295 4.1149 8.5771 4.0454 11.387 7.6816 11.387 14.475 0 10.283-8.0908 17.618-19.617 17.618-6.1684 0-10.492-1.3665-17.347-5.6898l5.8288-9.8741c4.7325 3.227 7.4037 4.2538 10.901 4.2538 4.1149 0 6.8633-2.1308 6.8633-5.2111 0-2.262-1.1657-3.4278-5.9677-5.8288-9.2565-4.663-11.935-8.029-11.935-14.954 0-9.326 8.0213-16.182 18.93-16.182 5.2111 0 9.9436 1.5054 14.946 4.7325z"/>
  </g>
  <g stroke-width="14.139">
   <path fill="#e91f26" d="m374.09 649.78c-2.0502-15.341-4.1003-30.682-6.1363-46.037h-98.195c4.0862 19.95 8.1723 39.914 12.258 59.85 30.696-4.6093 61.377-9.2045 92.073-13.814"/>
   <path fill="#fff" d="m314.17 646.84c-1.018-5.599-1.5411-8.4127-2.5592-13.998-4.9769 0.38175-7.4654 0.56556-12.442 0.96145 1.117 5.7828 1.6684 8.6672 2.7712 14.464-3.3934 0.3959-5.09 0.59384-8.4834 0.98973-2.3471-11.962-4.7083-23.923-7.0554-35.899 3.5347-0.0848 5.3021-0.12725 8.8369-0.19795 1.0321 5.4152 1.5553 8.144 2.5874 13.573 5.0193-0.29692 7.5219-0.43831 12.527-0.73523-0.96145-5.2597-1.428-7.8896-2.3895-13.149 3.5206-0.0848 5.3021-0.11311 8.8369-0.21208l5.8535 33.212c-3.3934 0.39589-5.09 0.59383-8.4834 0.98973"/>
   <path fill="#fff" d="m339.74 619.01c-0.79178 0.0283-1.1877 0.0424-1.9794 0.0848 1.1452 7.0412 1.7108 10.562 2.8561 17.603 0.7635-0.0707 1.1594-0.099 1.9229-0.16967 5.6697-0.55142 8.8369-4.27 8.0592-9.4166-0.77765-5.1607-5.0618-8.3561-10.859-8.1016m5.9949 24.149c-4.9911 0.57969-7.4937 0.87661-12.485 1.4563l-5.4294-32.237c5.189-0.12725 7.7906-0.1838 12.994-0.31105 8.5965 0.0566 17.561 5.9666 18.847 14.408 1.216 8.0875-5.7687 15.567-13.927 16.684"/>
  </g>
 </g>
</svg>
