<svg xmlns="http://www.w3.org/2000/svg" height="228.43" width="600" version="1.1" viewBox="0 0 158.74992 60.44013">
 <g>
  <path d="m0 0h13.7v60.44h-13.7z"/>
  <path d="m92 0h13.7v60.44h-13.7z"/>
  <path d="m66.75 15.111c0 11.483-14.1 15.109-14.1 15.109l14.08 30.22h-13.71l-14.07-30.22s14.1-3.626 14.1-15.109c0-11.484-14.1-15.111-14.1-15.111h13.7c3.05 0 14.1 3.6275 14.1 15.111"/>
  <path d="m143.04 0s-12.09 3.6275-12.09 15.111c0 11.483 14.1 18.937 14.1 30.22 0 11.281-12.09 15.109-12.09 15.109h13.7s12.09-3.828 12.09-15.109c0-11.283-14.1-18.737-14.1-30.22 0-11.484 12.09-15.111 12.09-15.111z"/>
 </g>
</svg>
