<?xml version="1.0" encoding="utf-8"?>
<svg version="1.1" id="Layer_1" xmlns="http://www.w3.org/2000/svg" xmlns:xlink="http://www.w3.org/1999/xlink" x="0px" y="0px"
	 viewBox="0 0 700.6 78.8" style="enable-background:new 0 0 700.6 78.8;" xml:space="preserve">
<style type="text/css">
	.st0{fill:#B2B2B2;}
	.st1{fill:#231F20;}
	.st2{fill:#E75411;}
	.st3{fill:#FFFFFF;}
	.st4{fill:#B40A1F;}
</style>
<g id="layer1" transform="translate(156.64835,-372.12075)">
	<g id="g3149" transform="matrix(0.78000882,0,0,0.78000882,31.5361,90.415951)">
		<g id="layer1-7" transform="matrix(3.887758,0,0,3.8882164,337.76451,-1776.0972)">
			<g id="g2903" transform="matrix(0.4394352,0,0,0.4394352,30.359396,664.40966)">
				<path id="rect2870" class="st0" d="M50.9-260.3v27.8h7.4v-12h15.7v12h7.4v-27.8h-7.4v10.5H58.4v-10.5H50.9z"/>
				<path id="rect2878" class="st0" d="M86.9-260.3v5.4h6.7c0,0,6.4,0,9.7,0c1.9,0,4.2,0,5.5,1.4c1.2,1.3,1.4,4.8,1.4,7.2
					c0,2.6,0,6.3-1.5,7.6c-1.2,1-3.5,1-5.2,1c-3,0-9,0-9,0v-12.4h-7.4v17.6c6.3,0,11.7,0,17,0c3,0,8.5-0.1,10.6-2.2
					c2.9-2.8,3.3-6.9,3.3-11.7c0-4.8,0.1-8.7-4.5-12.2c-2.2-1.7-7.3-1.7-9.9-1.7c-4.4,0-9.8,0-9.8,0L86.9-260.3L86.9-260.3
					L86.9-260.3L86.9-260.3z"/>
			</g>
		</g>
		<path id="path4435" class="st1" d="M491.6,462.1c-14.9,0-26.2-3.2-35.8-12.9l12.4-12.4c6.2,6.2,14.6,8.3,23.7,8.3
			c11.3,0,17.3-4.3,17.3-12.1c0-3.4-0.9-6.3-3-8.3c-1.9-1.8-4.1-2.8-8.7-3.4l-11.8-1.7c-8.4-1.2-14.6-3.9-19-8.1
			c-4.7-4.7-7-11-7-19.3c0-17.5,13-29.7,34.1-29.7c13.5,0,23.3,3.3,31.7,11.4l-12.1,12c-6.2-5.9-13.6-6.8-20.1-6.8
			c-10.2,0-15.2,5.7-15.2,12.4c0,2.5,0.8,5.1,2.9,7c1.9,1.8,5.1,3.3,9.1,3.8l11.6,1.7c8.9,1.2,14.6,3.7,18.7,7.6
			c5.2,5,7.6,12.1,7.6,20.8C528,451.4,512.1,462.1,491.6,462.1L491.6,462.1z M412.6,462.1c-10.4,0-19.3-3.6-26.4-10.7
			c-4.3-4.3-6.9-9.2-8-14.7c-1.1-5.5-1.6-13.6-1.6-24.4s0.6-18.9,1.6-24.4c1.1-5.7,3.7-10.5,8-14.7c7.2-7.2,16-10.7,26.4-10.7
			c18.9,0,32.8,11,36.1,31h-19.4c-2.1-8.4-7.3-13.9-16.5-13.9c-5.2,0-9.4,1.7-12.3,5.1c-4,4.3-4.8,8.7-4.8,27.7s0.8,23.4,4.8,27.7
			c2.9,3.4,7,5.1,12.3,5.1c9.2,0,14.5-5.5,16.5-13.9h19.4C445.4,451.1,431.4,462.1,412.6,462.1L412.6,462.1z M360.3,461.3h-19.1v-98
			h19.1V461.3z M291,462.1c-14.9,0-26.2-3.2-35.8-12.9l12.4-12.4c6.2,6.2,14.6,8.3,23.7,8.3c11.3,0,17.3-4.3,17.3-12.1
			c0-3.4-0.9-6.3-3-8.3c-1.9-1.8-4.1-2.8-8.7-3.4l-11.8-1.7c-8.4-1.2-14.6-3.9-19-8.1c-4.7-4.7-7-11-7-19.3
			c0-17.5,13-29.7,34.1-29.7c13.5,0,23.3,3.3,31.7,11.4l-12.1,12c-6.2-5.9-13.6-6.8-20.1-6.8c-10.2,0-15.2,5.7-15.2,12.4
			c0,2.5,0.8,5.1,2.9,7c1.9,1.8,5.1,3.3,9.1,3.8l11.6,1.7c9,1.2,14.6,3.7,18.7,7.6c5.2,5,7.6,12.1,7.6,20.8
			C327.4,451.4,311.5,462.1,291,462.1L291,462.1z M211,462.1c-14.9,0-26.2-3.2-35.8-12.9l12.4-12.4c6.2,6.2,14.6,8.3,23.7,8.3
			c11.3,0,17.3-4.3,17.3-12.1c0-3.4-1-6.3-3-8.3c-1.9-1.8-4.1-2.8-8.7-3.4l-11.8-1.7c-8.4-1.2-14.6-3.9-19-8.1c-4.7-4.7-7-11-7-19.3
			c0-17.5,12.9-29.7,34.1-29.7c13.5,0,23.3,3.3,31.7,11.4l-12.1,12c-6.2-5.9-13.6-6.8-20.1-6.8c-10.2,0-15.2,5.7-15.2,12.4
			c0,2.5,0.8,5.1,2.9,7c1.9,1.8,5.1,3.3,9.1,3.8L221,404c9,1.2,14.6,3.7,18.7,7.6c5.2,5,7.6,12.1,7.6,20.8
			C247.3,451.4,231.5,462.1,211,462.1L211,462.1z M127.1,392.2l-12.4,35.7H139C139,427.9,127.1,392.2,127.1,392.2z M149.9,461.3
			l-5.8-17.3h-34.8l-5.9,17.3H83.4l35.7-98h15l35.8,98H149.9z M11.9,461.3v-98h19.2v81h44.5v17.1C75.6,461.3,11.9,461.3,11.9,461.3z
			 M-37.3,462.1c-10.5,0-19.3-3.6-26.4-10.7c-4.3-4.3-6.9-9.2-8-14.7c-1.1-5.5-1.7-13.6-1.7-24.4c0-10.7,0.5-18.9,1.7-24.4
			c1.1-5.7,3.7-10.5,8-14.7c7.1-7.2,16-10.7,26.4-10.7c18.9,0,32.8,11,36.1,31h-19.4c-2.1-8.4-7.3-13.9-16.5-13.9
			c-5.2,0-9.4,1.7-12.3,5.1c-4,4.3-4.8,8.7-4.8,27.7c0,19,0.8,23.4,4.8,27.7c2.9,3.4,7,5.1,12.3,5.1c9.2,0,14.5-5.5,16.5-13.9h19.4
			C-4.6,451.1-18.6,462.1-37.3,462.1"/>
		<g id="layer1-1" transform="matrix(0.49405426,0,0,0.49405395,-905.52092,164.31636)">
			<g id="g3027" transform="matrix(0.18242506,0,0,0.18242506,1344.5113,408.266)">
				<g id="g3026" transform="matrix(2.2758621,0,0,2.2758621,0,-53.319549)">
					<g id="g3037">
						<g id="_x23_cf6728ff">
							<path id="path3030" class="st2" d="M16.6,6.3h691.8c9.5,3.4,15.8,12.7,16.7,22.5v380H0V143.8V28.9C0.9,19,7.1,9.8,16.6,6.3z"
								/>
							<path id="path3032" class="st2" d="M0,291.7L54,492H17.8C7,490.4,0.7,478.9,0,468.8V291.7z"/>
						</g>
						<g id="_x23_ffffffff">
							<path id="path3053" class="st3" d="M454.1,48.4c40.1-6.7,80.2-14.5,119.3-25.9c7.7,19.1,14.8,38.5,20.2,58.4
								c5.4,19.8,9.3,40.1,10.8,60.5c3.9,76.7-20.7,154.6-68.5,214.8c-22.7,28.6-50.4,53.3-81.6,72.4
								c-46.4,28.6-100.1,44.6-154.4,47.6c-23.9,1.8-48,0.5-71.4-4.5c-31.9-6.6-62.4-18.7-91.2-33.6c-10.1-5.3-20.3-10.6-29.6-17.3
								c-28.4-19.6-54.9-42.7-75.3-70.7c-12.5-17-22.3-35.7-30.7-54.9c-0.5-1.2-1.1-2.3-1.6-3.4V143.8c1,21.6,2.5,43.4,6.7,64.7
								c6.7,35.1,19.8,69.7,42.8,97.5c21.3,26.2,51,44.7,82.9,55.2c34.8,11.9,72.7,15.1,108.9,8.3c29.7-5.8,58.2-18.4,81.7-37.4
								c31.3-25.1,53.4-61.1,63.2-99.9l-86.8,17c0.9-28.9,1.9-58.5,2.1-87.4c32.5-7.2,64.4-20.9,89.2-43.7
								c18.7-17,32.5-40.1,35.9-65.4C435.6,51,444.9,50,454.1,48.4z"/>
						</g>
						<g id="_x23_9f1a1bff">
							<path id="path3056" class="st4" d="M593.5,80.9l131.5,328v60.9c-1.1,10.5-8.5,21.9-20,22.2l-651.1,0L0,291.7
								c8.4,19.3,19.9,41.4,32.3,58.4c20.3,28.1,46.8,51.1,75.3,70.7c9.3,6.7,19.5,12,29.6,17.3c28.9,14.9,59.4,27,91.2,33.6
								c23.4,5,47.5,6.3,71.4,4.5c54.3-3.1,108-19.1,154.4-47.6c31.2-19.1,58.9-43.7,81.6-72.4c47.9-60.1,72.4-138.1,68.5-214.8
								C602.8,120.9,598.9,100.7,593.5,80.9z"/>
							<path id="path3058" class="st4" d="M386.1,232c-9.7,38.8-31.8,74.8-63.2,99.9L299.2,249L386.1,232z"/>
						</g>
					</g>
				</g>
			</g>
		</g>
	</g>
</g>
</svg>
