<?xml version="1.0" encoding="UTF-8" standalone="no"?>
<svg id="Kabel1-Doku_Logo_rgb_sw_rot" xmlns="http://www.w3.org/2000/svg" height="144.74" viewBox="0 0 601.74194 144.74107" width="600" version="1.1">
 <defs>
  <style>.cls-1{fill:#c8193c;}</style>
 </defs>
 <title>logo2</title>
 <g stroke-width="4.8387" fill="#c8193c">
  <path d="m0-0.043548v49.162a59.129 59.129 0 0 0 95.855 46.161 60.194 60.194 0 0 0 19.355 -27.387 100.74 100.74 0 0 1 -28.742 6.629c2.2742-9.6774 4.2097-25.113 4.8387-29.661 15.532-2.9516 32.71-12.097 37.5-32.613a345.68 345.68 0 0 0 43.74 -6.4841 91.935 91.935 0 0 1 8.42 37.355 94.742 94.742 0 0 1 -180.97 40.597v61.405h601.74v-145.16zm588.58 131.95h-372.14v-118.74h372.15z" class="cls-1"/>
  <path d="m261.29 39.053h33.871c22.355 0 30.194 16.5 30.194 33.387 0 20.565-10.887 33.581-34.258 33.581h-29.806zm20.661 49.839h8.0806c12.871 0 14.516-10.403 14.516-16.694a14.806 14.806 0 0 0 -16.26 -15.967h-6.3387z" class="cls-1"/>
  <path d="m391.35 47.327a31.694 31.694 0 0 0 -10.742 -7.2581 37.984 37.984 0 0 0 -27.774 0 31.694 31.694 0 0 0 -10.742 7.2581 32.468 32.468 0 0 0 -6.871 11.081 39.484 39.484 0 0 0 -2.4194 14.129 39.532 39.532 0 0 0 2.4194 14.129 32.419 32.419 0 0 0 6.871 11.081 31.645 31.645 0 0 0 10.742 7.2581 38.081 38.081 0 0 0 27.774 0 31.645 31.645 0 0 0 10.742 -7.2581 32.468 32.468 0 0 0 6.871 -11.081 39.484 39.484 0 0 0 2.4194 -14.129 39.484 39.484 0 0 0 -2.4194 -14.129 32.468 32.468 0 0 0 -6.871 -11.081m-12.677 34.403a15.919 15.919 0 0 1 -3.3387 5.5645 10.79 10.79 0 0 1 -4.3064 2.8065 13.452 13.452 0 0 1 -4.3064 0.77419 13.597 13.597 0 0 1 -4.3064 -0.77419 10.935 10.935 0 0 1 -4.3548 -2.8065 16.161 16.161 0 0 1 -3.3387 -5.5645 26.129 26.129 0 0 1 -1.5 -9.1935 26.129 26.129 0 0 1 1.3548 -9.1935 16.258 16.258 0 0 1 3.4839 -5.5645 10.984 10.984 0 0 1 4.3064 -2.8065 13.548 13.548 0 0 1 4.3064 -0.77419 13.403 13.403 0 0 1 4.3064 0.77419 10.887 10.887 0 0 1 4.3064 2.8065 16.016 16.016 0 0 1 3.3387 5.5645 26.226 26.226 0 0 1 1.3548 9.1935 26.226 26.226 0 0 1 -1.3548 9.1935" class="cls-1"/>
  <path d="m522.58 39.053v36.484 5.2742a14.903 14.903 0 0 1 -1.06 4.839 8.6613 8.6613 0 0 1 -2.91 3.677 9.3387 9.3387 0 0 1 -5.61 1.452 9.9677 9.9677 0 0 1 -5.8064 -1.4516 8.4194 8.4194 0 0 1 -3 -3.6774 14.758 14.758 0 0 1 -1.0645 -4.8387v-5.2742-36.484h-21.048v41.081a26.419 26.419 0 0 0 7.5484 20.71 33.871 33.871 0 0 0 23.274 6.7742 33.532 33.532 0 0 0 22.984 -6.7258 26.516 26.516 0 0 0 7.5 -20.71v-41.129z" class="cls-1"/>
  <path d="m475.06 39.053h-25.45l-18.34 23.081h-0.19355v-23.081h-20.661v66.968h20.661v-19.789l5.7097-6.2903 16.5 26.081h25.694l-28.21-40.789z"/>
 </g>
</svg>
