<?xml version="1.0" encoding="UTF-8" standalone="no"?>
<svg xmlns="http://www.w3.org/2000/svg" height="66.523" width="600" version="1.1" viewBox="0 0 158.75 17.60087">
 <g transform="translate(112.64 -140.03)">
  <g fill="#fff">
   <path d="m25.862 140.04v8.391h2.2333v-3.622h4.7382v3.622h2.2333v-8.391h-2.2333v3.1693h-4.7081v-3.1693z" class="st0" stroke-width=".30182"/>
   <path d="m36.727 140.04v1.6299h2.0221 2.9275c0.57342 0 1.2676 0 1.6599 0.42257 0.36216 0.39239 0.42252 1.4488 0.42252 2.1732 0 0.78477 0 1.9016-0.4527 2.294-0.36216 0.30183-1.0563 0.30183-1.5694 0.30183h-2.7162v-3.7428h-2.2333v5.3123h5.1306c0.9054 0 2.5653-0.0302 3.1991-0.66403 0.87522-0.84514 0.99594-2.0827 0.99594-3.5315s0.03022-2.626-1.3581-3.6824c-0.66396-0.51312-2.2031-0.51312-2.9878-0.51312h-2.9576z" class="st0" stroke-width=".30182"/>
   <path d="m16.826 157.63c-2.6321 0-4.6283-0.56529-6.3242-2.2788l2.1905-2.1905c1.0953 1.0953 2.5792 1.4662 4.1867 1.4662 1.9962 0 3.0561-0.75961 3.0561-2.1375 0-0.60062-0.15899-1.1129-0.52996-1.4662-0.33564-0.31798-0.72428-0.49464-1.5369-0.60062l-2.0845-0.30031c-1.4839-0.212-2.5792-0.68896-3.3564-1.4309-0.83028-0.83027-1.2366-1.9432-1.2366-3.4094 0-3.0914 2.2965-5.2466 6.0239-5.2466 2.3848 0 4.1161 0.58296 5.5999 2.0139l-2.1375 2.1198c-1.0953-1.0423-2.4025-1.2012-3.5508-1.2012-1.8019 0-2.6851 1.0069-2.6851 2.1905 0 0.44164 0.14132 0.90094 0.51229 1.2366 0.33565 0.31798 0.90094 0.58296 1.6076 0.67129l2.0492 0.30031c1.5722 0.21199 2.5792 0.65363 3.3034 1.3426 0.9186 0.88327 1.3426 2.1375 1.3426 3.6744 0 3.3564-2.8088 5.2466-6.4302 5.2466zm-13.956 0c-1.8372 0-3.4094-0.63596-4.6637-1.8902-0.75961-0.75962-1.2189-1.6252-1.4132-2.5968-0.19432-0.9716-0.28265-2.4025-0.28265-4.3104s0.106-3.3388 0.28265-4.3104c0.19432-1.0069 0.65362-1.8549 1.4132-2.5968 1.2719-1.2719 2.8265-1.8902 4.6637-1.8902 3.3388 0 5.7943 1.9432 6.3772 5.4763h-3.4268c-0.37098-1.4839-1.2896-2.4555-2.9148-2.4555-0.9186 0-1.6606 0.30032-2.1728 0.90095-0.70662 0.75961-0.84794 1.5369-0.84794 4.8933s0.14132 4.1337 0.84794 4.8933c0.51229 0.60062 1.2366 0.90094 2.1728 0.90094 1.6252 0 2.5615-0.97161 2.9148-2.4555h3.4271c-0.58296 3.4978-3.0561 5.441-6.3772 5.441zm-9.239-0.14132h-3.3741v-17.312h3.3741zm-12.242 0.14132c-2.6321 0-4.6283-0.56529-6.3242-2.2788l2.1905-2.1905c1.0953 1.0953 2.5792 1.4662 4.1867 1.4662 1.9962 0 3.0561-0.75961 3.0561-2.1375 0-0.60062-0.15899-1.1129-0.52996-1.4662-0.33565-0.31798-0.72429-0.49464-1.5369-0.60062l-2.0845-0.30031c-1.4839-0.212-2.5791-0.68896-3.3564-1.4309-0.83028-0.83027-1.2366-1.9432-1.2366-3.4094 0-3.0914 2.2965-5.2466 6.0239-5.2466 2.3848 0 4.116 0.58296 5.5999 2.0139l-2.1375 2.1198c-1.0953-1.0423-2.4025-1.2012-3.5508-1.2012-1.8019 0-2.6851 1.0069-2.6851 2.1905 0 0.44164 0.14132 0.90094 0.51229 1.2366 0.33565 0.31798 0.90094 0.58296 1.6076 0.67129l2.0492 0.30031c1.5899 0.21199 2.5792 0.65363 3.3034 1.3426 0.9186 0.88327 1.3426 2.1375 1.3426 3.6744 0 3.3564-2.8088 5.2466-6.4302 5.2466zm-14.132 0c-2.6322 0-4.6283-0.56529-6.3242-2.2788l2.1905-2.1905c1.0953 1.0953 2.5792 1.4662 4.1867 1.4662 1.9962 0 3.0561-0.75961 3.0561-2.1375 0-0.60062-0.17666-1.1129-0.52996-1.4662-0.33564-0.31798-0.72428-0.49464-1.5369-0.60062l-2.0845-0.30031c-1.4839-0.212-2.5792-0.68896-3.3564-1.4309-0.83028-0.83027-1.2366-1.9432-1.2366-3.4094 0-3.0914 2.2788-5.2466 6.0239-5.2466 2.3848 0 4.116 0.58296 5.5999 2.0139l-2.1375 2.1198c-1.0953-1.0423-2.4025-1.2012-3.5508-1.2012-1.8019 0-2.6851 1.0069-2.6851 2.1905 0 0.44164 0.14132 0.90094 0.5123 1.2366 0.33564 0.31798 0.90094 0.58296 1.6076 0.67129l2.0315 0.30031c1.5899 0.21199 2.5792 0.65363 3.3034 1.3426 0.91861 0.88327 1.3426 2.1375 1.3426 3.6744 0 3.3564-2.7911 5.2466-6.4126 5.2466zm-14.821-12.348-2.1905 6.3066h4.2927l-2.1022-6.3066zm4.0277 12.207-1.0246-3.0561h-6.1476l-1.0423 3.0561h-3.5331l6.3066-17.312h2.6498l6.3242 17.312zm-24.378 0v-17.312h3.3918v14.309h7.8611v3.0208c0-0.0176-11.253-0.0176-11.253-0.0176zm-8.6914 0.14132c-1.8549 0-3.4094-0.63596-4.6637-1.8902-0.75961-0.75962-1.2189-1.6252-1.4132-2.5968-0.19432-0.9716-0.30031-2.4025-0.30031-4.3104 0-1.8902 0.08833-3.3388 0.30031-4.3104 0.19432-1.0069 0.65362-1.8549 1.4132-2.5968 1.2542-1.2719 2.8265-1.8902 4.6637-1.8902 3.3388 0 5.7943 1.9432 6.3772 5.4763h-3.4271c-0.37098-1.4839-1.2896-2.4555-2.9148-2.4555-0.9186 0-1.6606 0.30032-2.1728 0.90095-0.70662 0.75961-0.84794 1.5369-0.84794 4.8933s0.14132 4.1337 0.84794 4.8933c0.5123 0.60062 1.2366 0.90094 2.1728 0.90094 1.6252 0 2.5615-0.97161 2.9148-2.4555h3.4271c-0.60062 3.4978-3.0738 5.441-6.3772 5.441" class="st1" stroke-width=".17665"/>
  </g>
  <g stroke-width=".036235">
   <path d="m-112.04 140.03h25.067c0.34423 0.1232 0.57251 0.46019 0.60513 0.81529v13.769h-26.274v-13.766c0.0326-0.35872 0.25728-0.69208 0.60151-0.81891z" class="st2" fill="#e75411"/>
   <path d="m-112.64 150.38 1.9567 7.2579h-1.3117c-0.39133-0.058-0.61962-0.47468-0.64499-0.84065z" class="st2" fill="#e75411"/>
   <path d="m-96.183 141.56c1.453-0.24277 2.9061-0.5254 4.3228-0.93848 0.27901 0.69209 0.53628 1.395 0.73195 2.1161 0.19567 0.71745 0.33699 1.453 0.39134 2.1922 0.14132 2.7792-0.75006 5.6019-2.4821 7.7833-0.82254 1.0363-1.8262 1.9313-2.9568 2.6234-1.6813 1.0363-3.6271 1.6161-5.5947 1.7248-0.86602 0.0652-1.7393 0.0181-2.5872-0.16305-1.1559-0.23915-2.2611-0.6776-3.3046-1.2175-0.36597-0.19205-0.73557-0.3841-1.0726-0.62687-1.0291-0.7102-1.9893-1.5472-2.7285-2.5618-0.45294-0.616-0.80805-1.2936-1.1124-1.9893-0.0182-0.0435-0.0399-0.0834-0.058-0.12319v-5.3628c0.0362 0.78268 0.0906 1.5726 0.24277 2.3444 0.24277 1.2718 0.71746 2.5256 1.5509 3.5329 0.77181 0.94935 1.848 1.6197 3.0039 2.0002 1.261 0.4312 2.6343 0.54715 3.946 0.30075 1.0762-0.21016 2.1089-0.66673 2.9604-1.3552 1.1342-0.9095 1.935-2.214 2.2901-3.6199l-3.1452 0.616c0.0326-1.0472 0.0688-2.1198 0.0761-3.167 1.1776-0.26089 2.3335-0.7573 3.2322-1.5835 0.67759-0.61599 1.1776-1.453 1.3008-2.3698 0.32249-0.0616 0.65948-0.0978 0.99284-0.15582z" class="st3" fill="#fff"/>
   <path d="m-91.131 142.74 4.7649 11.885v2.2067c-0.03985 0.38047-0.308 0.79355-0.7247 0.80442h-23.593l-1.9531-7.2579c0.30438 0.69934 0.72109 1.5001 1.1704 2.1161 0.73557 1.0182 1.6958 1.8516 2.7285 2.5618 0.33699 0.24277 0.70659 0.43482 1.0726 0.62687 1.0472 0.5399 2.1524 0.97835 3.3046 1.2175 0.84791 0.18117 1.7212 0.22828 2.5872 0.16305 1.9676-0.11233 3.9134-0.69208 5.5947-1.7248 1.1305-0.6921 2.1343-1.5835 2.9568-2.6234 1.7357-2.1777 2.6234-5.0041 2.4821-7.7833-0.05436-0.74282-0.19567-1.4748-0.39134-2.1922z" class="st4" fill="#b40a1f"/>
   <path d="m-98.647 148.21c-0.35148 1.4059-1.1523 2.7104-2.2901 3.6199l-0.85877-3.0039z" class="st4" fill="#b40a1f"/>
  </g>
 </g>
</svg>
