<svg xmlns="http://www.w3.org/2000/svg" height="456.95" width="600" version="1.1" viewBox="0 0 158.75 120.90231">
 <g fill="#e64c92" transform="translate(-170.43 -348.37)">
  <g>
   <path d="m284.86 468.96h-3.8174l-0.53016-4.7055h-5.4212l-1.69 4.7055h-4.0891l8.5361-21.519h3.9366zm-8.6951-7.774h4.0426l-0.92779-9.2319h-0.0467z"/>
   <path d="m255.23 447.42c6.9588 0 9 5.8122 9 10.485 0 6.4087-3.5788 11.054-8.2312 11.054h-9.0066l2.4323-21.539zm-4.1222 17.94h3.486c4.1156 0 5.8056-3.7975 5.8056-7.5155 0-3.7909-2.0478-6.8262-5.8851-6.8262h-1.796z"/>
   <path d="m245.53 451.02h-7.1907l-0.58358 5.0766h6.316l-0.41064 3.6119h-6.3159l-0.64301 5.6465h9.0596l-0.41064 3.5987h-12.764l2.4522-21.532h10.902z"/>
   <path d="m266.69 447.42-2.4588 21.539h3.7113l2.4588-21.539z"/>
   <path d="m231.18 468.95h-3.5788l-0.53684-14.56h-0.0534l-6.4683 14.56h-1.7695l-3.0685-14.971h-0.0534l-3.9367 14.971h-3.7312l5.6731-21.539h4.0692l2.8166 13.546 5.8785-13.546h3.9366z"/>
   <path d="m298.03 452.67c-1.1266-1.0073-2.9889-1.8954-4.321-1.8954-1.3587 0-2.4588 0.94775-2.4588 2.366 0 3.095 6.4153 3.506 6.4153 9.5368 0 3.4794-1.9882 6.6009-5.905 6.6009-2.5251 0-4.3741-0.78864-5.9315-2.0545l0.55687-3.7578c1.4117 1.2658 3.4794 2.2135 4.9441 2.2135 1.5044 0 2.5118-0.94768 2.5118-2.366 0-3.5655-6.4286-3.983-6.4286-9.6296 0-3.7246 2.6112-6.508 6.1369-6.508 1.69 0 3.4794 0.60294 4.9905 1.7032z"/>
   <path d="m311.94 451.09h-7.3365l-0.59626 5.1892h6.4418l-0.41732 3.6782h-6.4484l-0.64969 5.3482h9.2452l-0.42399 3.6716h-13.023l2.5052-21.559h11.121z"/>
   <path d="m328.76 451.12h-5.7923l-2.1539 17.834h-3.7776l2.1472-17.834h-5.6465l0.41732-3.6716h15.223z"/>
  </g>
  <g stroke-width=".90572">
   <path d="m187.67 407.74h-12.454c-3.2515 0-4.7912-1.5126-4.7912-5.0177v-17.281c0-2.8168 1.6031-4.5376 4.2116-4.5376 2.5994 0 4.2116 1.7208 4.2116 4.5376v15.488h8.8217c2.1556 0 3.6229 1.2408 3.6229 3.3964 0 2.1647-1.4673 3.4146-3.6229 3.4146"/>
   <path d="m201.48 398.91 2.8621-9.6278h0.0634l2.8621 9.6278zm13.839 0.99629-5.5973-15.596c-0.81515-2.2009-1.902-3.4145-4.0304-3.4145h-2.6356c-2.1194 0-3.2153 1.2137-4.0214 3.4145l-5.6154 15.596c-0.61589 1.7571-1.3133 3.6953-1.3133 4.8999 0 1.9835 1.9473 3.4055 3.8402 3.4055 1.3224 0 2.9798-0.58872 3.4055-2.0832l0.58872-1.9473h8.867l0.57965 1.9473c0.4438 1.4944 2.0922 2.0832 3.4146 2.0832 1.893 0 3.8402-1.422 3.8402-3.4055 0-1.2046-0.6974-3.1428-1.3224-4.8999"/>
   <path d="m292.55 405.75c-1.2589 5.2622-6.2676 9.3289-13.749 11.158-11.249 2.7353-21.097 0.7608-21.512 0.67023-4.6019-0.96006-15.228-4.1844-15.228-13.64h15.051c2.2127 3.6953 6.9794 3.9399 8.6007 3.9399 4.2478 0 6.6751-1.2952 7.9069-2.9345 0.91478-1.2499 0.86043-3.324 0-4.4833-0.94194-1.268-2.5541-2.7443-7.7258-2.8892-1.7118-0.0543-5.0249 0.48003-6.7992 1.7661l-16.127 0.009 3.0885-23.377h43.885v9.8451h-32.844v4.5286s22.202-4.1301 31.331 3.65c3.5685 3.2062 5.0901 7.608 4.121 11.756m21.665-11.53c0-7.3997-5.7513-13.486-12.97-14.03 2.0469-2.4364 3.324-5.6336 3.324-9.1387 0-7.771-6.2585-14.048-14.048-14.048-3.4598-0.00045-6.6117 1.2046-9.0572 3.2425l-0.28983 0.67023v0.18115c-0.48003-7.1013-6.4487-12.725-13.722-12.725-7.2666-0.00041-13.136 5.5697-13.728 12.626l-0.2998-0.73363c-2.4355-2.0016-5.5466-3.1705-8.943-3.1705-7.7294 0-14.045 6.2861-14.045 14.057 0 3.641 1.383 6.9559 3.6265 9.4285-7.4495 0.37134-13.382 6.5483-13.382 14.057 0 7.4993 5.9505 13.559 13.375 13.975-2.0976 2.4636-3.4118 5.7151-3.4118 9.2021 0 7.762 6.3237 14.084 14.053 14.084 3.3185 0 6.369-1.1593 8.7972-3.0794 0.79069 7.0102 6.6996 12.481 13.958 12.481 7.4722 0 13.504-5.7875 14.011-13.097 2.4726 2.1103 5.6698 3.3874 9.1658 3.3874 7.7892 0 14.039-6.3219 14.039-14.084 0-3.5595-1.3042-6.7748-3.3964-9.2564 7.2186-0.56154 12.943-6.6389 12.943-14.03"/>
  </g>
 </g>
</svg>
