<?xml version="1.0" encoding="UTF-8"?>
<svg width="1036.4" height="798.02" version="1.1" viewBox="0 0 274.22619 211.14245" xmlns="http://www.w3.org/2000/svg" xmlns:cc="http://creativecommons.org/ns#" xmlns:dc="http://purl.org/dc/elements/1.1/" xmlns:rdf="http://www.w3.org/1999/02/22-rdf-syntax-ns#">
 <metadata>
  <rdf:RDF>
   <cc:Work rdf:about="">
    <dc:format>image/svg+xml</dc:format>
    <dc:type rdf:resource="http://purl.org/dc/dcmitype/StillImage"/>
    <dc:title/>
   </cc:Work>
  </rdf:RDF>
 </metadata>
 <g transform="translate(21.449 -59.844)">
  <g fill-rule="evenodd">
   <path d="m195.04 157.45c0 42.71-34.64 77.34-77.35 77.34-42.733 0-77.366-34.63-77.366-77.34 0-42.72 34.633-77.351 77.366-77.351 42.71 0 77.35 34.631 77.35 77.351" fill="#facf0b"/>
   <path d="m92.975 88.188c0 15.662-12.683 28.342-28.343 28.342-15.661 0-28.344-12.68-28.344-28.342 0-15.661 12.683-28.344 28.344-28.344 15.66 0 28.343 12.683 28.343 28.344" fill="#2755ac"/>
   <path d="m165.07 157.24c0 27.41-22.22 49.61-49.61 49.61-27.406 0-49.606-22.2-49.606-49.61 0-27.4 22.2-49.6 49.606-49.6 27.39 0 49.61 22.2 49.61 49.6" fill="#2755ac"/>
  </g>
  <g fill="#fff">
   <path d="m160.71 172.74c-10.89-13.02-20.82-13.71-26.89-12.16-6.87 1.72-11.05 6.04-15.24 10.16-0.67 0.08-6.41-14.62-13.77-30.01-1.68-3.54-4.04-5.73-6.555-6.04-3.582-0.44-6.331 3.12-8.622 6.83-5.227 8.48-12.85 21.24-16.515 27.01-0.437 0.71-0.771-0.31-0.854-0.81-4.977-29.95 19.576-55.48 49.686-52.06 28.31 3.37 46.34 31.32 38.76 57.08m5.81 6.81c14.93-36.09-11.37-70.37-43.05-73.79-31.609-3.58-59.328 20.41-59.349 53.07 0 10.33 3.041 16.18 6.102 17.91 4.561 2.56 8.289-3.4 10.58-6.42 5.373-7.08 11.787-16.76 14.161-20.12 0.667-0.95 1.375-0.7 1.854 0.03 1.957 2.89 10.182 21.63 16.032 31.73 1.42 2.44 3.84 4.11 6.69 1.65 2.87-2.48 8.97-9.52 14.93-11.39 7.79-2.46 15.95 3.89 21.08 10.43-7.83 12.95-21.64 20.95-37.97 21.41-37.902 1.08-48.898-28.95-74.326-35.03-2.103-0.5-3.832 2.13-0.167 3.35 11.288 3.79 19.764 12.6 29.24 20.93 11.37 10 25.574 18.54 45.043 18.64 17.5 0.09 33.72-8.22 44.11-23.09 9.06 8.22 23.7 4.06 29.22-4.52 0.37-0.58 0.17-1.36-0.81-0.73-13.06 8.52-22.39-2.81-23.37-4.06" fill-rule="evenodd"/>
   <path d="m64.727 77.981v3.041l-1.457 0.146v14.953l1.457 0.145v3.041h-6.914v-3.041l1.458-0.145v-6.227h-9.351v6.227l1.458 0.145v3.041h-6.956v-3.041l1.479-0.145v-14.953l-1.479-0.146v-3.041h6.956v3.041l-1.458 0.146v5.31h9.351v-5.31l-1.458-0.146v-3.041z"/>
   <path d="m81.525 87.253c0-4.644-1.874-6.019-5.935-6.019h-2.686v14.828h2.686c4.061 0 5.935-1.458 5.935-6.102zm-5.893 12.225c-2.604 0-5.54-0.084-8.143-0.188v-3.02l1.499-0.229v-14.807l-1.499-0.25v-2.998c2.603-0.125 5.373-0.188 8.143-0.188 6.935 0 9.892 3.228 9.892 9.455v2.707c0 6.29-2.791 9.518-9.892 9.518"/>
  </g>
 </g>
 <g transform="translate(54.851)" fill="#2755ac">
  <path d="m74.169 209.53v-1.5569l0.58026-0.066c0.31914-0.0363 0.65904-0.0879 0.75533-0.1145 0.19279-0.0534 0.10123 0.21788 3.3595-9.9548 1.4592-4.5557 1.9672-6.2657 1.8856-6.3472-0.06139-0.0614-0.39783-0.13899-0.74764-0.17244l-0.63603-0.0608v-3.1283l4.3513-0.0263c3.4059-0.0206 4.3728 2e-3 4.4503 0.10091 0.05446 0.0699 1.4491 4.4637 3.0992 9.7639 1.6501 5.3002 3.0421 9.6872 3.0933 9.7488 0.05119 0.0617 0.39626 0.14046 0.76682 0.17506 0.37056 0.0346 0.71232 0.10149 0.75947 0.14864 0.04714 0.0471 0.07307 0.74061 0.05761 1.541l-0.0281 1.4553h-7.2658v-3.0274l0.30274-0.0277c0.71447-0.0653 0.78497-0.10924 0.71739-0.44718-0.03452-0.17258-0.24606-0.89698-0.4701-1.6098l-0.40734-1.296h-7.5487l-0.46528 1.4236c-0.2559 0.78301-0.45141 1.521-0.43446 1.6399 0.02497 0.17513 0.11709 0.22579 0.48494 0.26666l0.45411 0.0504 0.02786 1.539 0.02786 1.5389h-7.1701zm13.724-8.5499c0-0.11946-0.49933-1.8791-1.1096-3.9104-0.61029-2.0313-1.2025-4.1473-1.3161-4.7024-0.26673-1.3038-0.2862-1.3623-0.45329-1.3623-0.14981 0-0.20427 0.17294-0.55615 1.766-0.12259 0.55502-0.69407 2.5728-1.2699 4.4839-0.57587 1.9111-1.047 3.58-1.047 3.7086v0.23382h5.7521z" stroke-width=".10091"/>
  <path d="m-54.823 209.44 0.02755-1.6291 0.35088-0.0254c0.19299-0.014 0.54289-0.0506 0.77756-0.0814l0.42667-0.056-0.02565-8.0892-0.02565-8.0892-0.77696-0.0871-0.77696-0.0872v-3.1842h7.3185v3.1808l-0.46513 0.0637c-0.25582 0.0351-0.59417 0.0638-0.7519 0.0638h-0.28677v16.229l0.42608 0.0555c0.23434 0.0305 0.56142 0.0671 0.72684 0.0813l0.30076 0.0258 0.02755 1.6291 0.02755 1.6291h-7.3284z" stroke-width=".10025"/>
  <path d="m118.88 209.44 0.0275-1.6291 0.35088-0.0254c0.19299-0.014 0.54289-0.0506 0.77756-0.0814l0.42666-0.056-0.0256-8.0892-0.0256-8.0892-0.77696-0.0871-0.77696-0.0872v-3.1842h7.3185v3.1808l-0.46513 0.0637c-0.25582 0.0351-0.59418 0.0638-0.7519 0.0638h-0.28677v16.229l0.42608 0.0555c0.23434 0.0305 0.56142 0.0671 0.72684 0.0813l0.30075 0.0258 0.0276 1.6291 0.0275 1.6291h-7.3284z" stroke-width=".10025"/>
  <path d="m177.78 209.53v-1.5569l0.58025-0.066c0.31914-0.0363 0.65904-0.0879 0.75534-0.1145 0.19279-0.0534 0.10123 0.21788 3.3595-9.9548 1.4592-4.5557 1.9672-6.2657 1.8856-6.3472-0.0614-0.0614-0.39783-0.13899-0.74765-0.17244l-0.63603-0.0608v-3.1283l4.3513-0.0263c3.4059-0.0206 4.3728 2e-3 4.4503 0.10091 0.0545 0.0699 1.4491 4.4637 3.0992 9.7639 1.6501 5.3002 3.0421 9.6872 3.0933 9.7488 0.0512 0.0617 0.39626 0.14046 0.76681 0.17506 0.37056 0.0346 0.71232 0.10149 0.75947 0.14864 0.0471 0.0471 0.0731 0.74061 0.0576 1.541l-0.0281 1.4553h-7.2658v-3.0274l0.30274-0.0277c0.71447-0.0653 0.78497-0.10924 0.71739-0.44718-0.0345-0.17258-0.24606-0.89698-0.4701-1.6098l-0.40734-1.296h-7.5487l-0.46528 1.4236c-0.2559 0.78301-0.45141 1.521-0.43446 1.6399 0.025 0.17513 0.1171 0.22579 0.48494 0.26666l0.45411 0.0504 0.0279 1.539 0.0279 1.5389h-7.1701zm13.724-8.5499c0-0.11946-0.49933-1.8791-1.1096-3.9104-0.61029-2.0313-1.2025-4.1473-1.3161-4.7024-0.26673-1.3038-0.2862-1.3623-0.45329-1.3623-0.14981 0-0.20427 0.17294-0.55614 1.766-0.1226 0.55502-0.69407 2.5728-1.27 4.4839-0.57587 1.9111-1.047 3.58-1.047 3.7086v0.23382h5.7521z" stroke-width=".10091"/>
  <path d="m203.76 209.44c0.0262-1.5455 0.0378-1.6301 0.22806-1.6487 0.11027-0.0108 0.45991-0.0478 0.77696-0.0824l0.57645-0.0628v-8.0663c0-6.365-0.0264-8.0747-0.12531-8.1062-0.0689-0.0219-0.42984-0.0692-0.80203-0.10509l-0.67671-0.0652v-3.1921h7.4187v3.1921l-0.67671 0.0652c-0.37218 0.0359-0.7331 0.0832-0.80202 0.10509-0.0989 0.0315-0.12532 1.7226-0.12532 8.0131v7.9733h6.6868l0.14162-0.97747 0.14163-0.97746 1.4274-0.0278 1.4274-0.0278v5.6197h-15.644z" stroke-width=".10025"/>
  <path d="m137.87 211.12c-0.13389-0.0236-0.50637-0.0885-0.82772-0.14425-3.5046-0.6078-5.6713-2.8688-6.4966-6.7793-0.20757-0.98352-0.22236-1.2834-0.22247-4.5105-1.3e-4 -3.5528 0.0438-4.1124 0.43652-5.5566 0.45008-1.6553 1.0245-2.6706 2.1538-3.807 0.70187-0.70627 0.98593-0.91501 1.7528-1.2881 1.9954-0.97062 4.4758-1.2461 7.061-0.78427 3.7514 0.67018 5.8979 3.0374 6.6169 7.2973 0.33495 1.9846 0.27475 6.9046-0.10697 8.7409-0.64586 3.1071-2.241 5.1983-4.7193 6.187-1.2018 0.47943-2.0118 0.62099-3.7491 0.65517-0.9105 0.0179-1.765 0.0132-1.8989-0.0103zm2.3397-3.5513c2.0421-0.25323 3.265-1.3862 3.8923-3.6062 0.48617-1.7206 0.48746-7.0232 2e-3 -8.7404-0.67519-2.389-2.0046-3.478-4.3838-3.5908-1.7234-0.0817-2.86 0.30415-3.789 1.2864-1.2132 1.2828-1.5654 2.7798-1.5664 6.6583-7.3e-4 2.7373 0.14776 4.0331 0.59226 5.1712 0.73086 1.8713 1.9787 2.7203 4.2787 2.9114 0.0817 7e-3 0.51996-0.0337 0.9738-0.09z" stroke-width=".09738"/>
  <g stroke-width=".10028">
   <path d="m-43.091 209.44c0.02615-1.5459 0.03786-1.6305 0.22811-1.6491 0.11031-0.0108 0.46029-0.0479 0.77775-0.0825l0.57719-0.0629-0.02566-8.0902-0.02566-8.0902-0.77716-0.0872-0.77716-0.0872v-3.1877l3.2681 0.0265 3.2681 0.0265 4.0272 7.2292c2.2149 3.976 4.2979 7.7546 4.6288 8.3967 0.58126 1.1279 0.8497 1.468 0.70658 0.89503-0.0379-0.15167-0.09359-3.1923-0.12378-6.7569l-0.05489-6.4811-0.79041-0.069-0.79042-0.069v-3.1951h7.1198v3.193l-0.67688 0.0652c-0.37228 0.0359-0.73329 0.0832-0.80223 0.10511-0.09915 0.0315-0.12535 2.0844-0.12535 9.8219v9.782l-2.4704-0.0268-2.4704-0.0268-4.0535-7.4206c-2.2294-4.0813-4.3244-7.9556-4.6555-8.6095-0.33106-0.65389-0.6106-1.1728-0.62122-1.1532-0.01061 0.0196-0.0043 3.1352 0.01395 6.9236l0.03324 6.8879 0.56876 0.0619c0.31282 0.034 0.65901 0.0707 0.76932 0.0814 0.19027 0.0186 0.20197 0.10315 0.22811 1.6491l0.02755 1.6295h-7.0294z"/>
   <path d="m49.388 209.44c0.02615-1.5459 0.03786-1.6305 0.22811-1.6491 0.11031-0.0108 0.46029-0.0479 0.77775-0.0825l0.57719-0.0629-0.02566-8.0902-0.02566-8.0902-0.77716-0.0872-0.77716-0.0872v-3.1877l3.2681 0.0265 3.2681 0.0265 4.0272 7.2292c2.2149 3.976 4.2979 7.7546 4.6288 8.3967 0.58126 1.1279 0.8497 1.468 0.70658 0.89503-0.0379-0.15167-0.09359-3.1923-0.12378-6.7569l-0.05489-6.4811-0.79041-0.069-0.79042-0.069v-3.1951h7.1198v3.193l-0.67688 0.0652c-0.37228 0.0359-0.73329 0.0832-0.80223 0.10511-0.09915 0.0315-0.12535 2.0844-0.12535 9.8219v9.782l-2.4704-0.0268-2.4704-0.0268-4.0535-7.4206c-2.2294-4.0813-4.3244-7.9556-4.6555-8.6095-0.33106-0.65389-0.6106-1.1728-0.62122-1.1532-0.01061 0.0196-0.0043 3.1352 0.01395 6.9236l0.03324 6.8879 0.56876 0.0619c0.31282 0.034 0.65901 0.0707 0.76932 0.0814 0.19027 0.0186 0.20197 0.10315 0.22811 1.6491l0.02755 1.6295h-7.0294z"/>
   <path d="m153.4 209.44c0.0262-1.5459 0.0379-1.6305 0.22811-1.6491 0.1103-0.0108 0.46029-0.0479 0.77775-0.0825l0.57719-0.0629-0.0257-8.0902-0.0257-8.0902-0.77716-0.0872-0.77716-0.0872v-3.1877l3.2681 0.0265 3.2681 0.0265 4.0272 7.2292c2.2149 3.976 4.2979 7.7546 4.6288 8.3967 0.58126 1.1279 0.8497 1.468 0.70658 0.89503-0.0379-0.15167-0.0936-3.1923-0.12378-6.7569l-0.0549-6.4811-0.79041-0.069-0.79042-0.069v-3.1951h7.1198v3.193l-0.67689 0.0652c-0.37228 0.0359-0.73328 0.0832-0.80222 0.10511-0.0992 0.0315-0.12535 2.0844-0.12535 9.8219v9.782l-2.4704-0.0268-2.4704-0.0268-4.0535-7.4206c-2.2294-4.0813-4.3244-7.9556-4.6555-8.6095s-0.61061-1.1728-0.62122-1.1532c-0.0106 0.0196-4e-3 3.1352 0.0139 6.9236l0.0332 6.8879 0.56876 0.0619c0.31282 0.034 0.65901 0.0707 0.76932 0.0814 0.19026 0.0186 0.20197 0.10315 0.22811 1.6491l0.0275 1.6295h-7.0294z"/>
  </g>
  <path d="m-12.024 209.47v-1.5955l0.7519-0.0705 0.7519-0.0705v-16.117h-3.8808l-0.12933 0.90228-0.12932 0.90228h-2.778v-5.3134h18.046v5.3134h-2.6887l-0.11676-0.72684c-0.06422-0.39976-0.13901-0.80578-0.16619-0.90227-0.04491-0.15938-0.2279-0.17545-1.9982-0.17545h-1.9488l0.025652 8.0453 0.025652 8.0453 0.77696 0.0871 0.77696 0.0871v3.1842h-7.3185z" stroke-width=".10025"/>
  <path d="m101.9 209.47v-1.5955l0.7519-0.0705 0.7519-0.0705v-16.117h-3.8808l-0.12933 0.90228-0.12932 0.90228h-2.778v-5.3134h18.046v5.3134h-2.6887l-0.11676-0.72684c-0.0642-0.39976-0.139-0.80578-0.16619-0.90227-0.0449-0.15938-0.2279-0.17545-1.9982-0.17545h-1.9488l0.0256 8.0453 0.0256 8.0453 0.77696 0.0871 0.77697 0.0871v3.1842h-7.3185z" stroke-width=".10025"/>
  <path d="m4.8305 209.44c0.026145-1.5455 0.037815-1.6301 0.22805-1.6487 0.11028-0.0108 0.45991-0.0478 0.77696-0.0824l0.57646-0.0628v-8.0663c0-6.3649-0.026448-8.0747-0.12532-8.1062-0.068923-0.0219-0.42984-0.0692-0.80202-0.10509l-0.67671-0.0652v-3.1921h16.141v5.2132h-2.7863l-0.12678-0.85215-0.12678-0.85215h-7.2892l0.0266 2.9324 0.02656 2.9324 4.8372 0.026 4.8372 0.026v3.4067h-9.7273l0.02645 3.2833 0.02645 3.2833 3.5769 0.0263c3.3435 0.0246 3.5801 0.0148 3.6267-0.15038 0.0274-0.0972 0.10238-0.50378 0.1666-0.90354l0.11676-0.72683h2.789v5.3134h-16.146z" stroke-width=".10025"/>
  <path d="m25.388 209.51 0.02753-1.6281 0.35066-0.0254c0.19286-0.014 0.54227-0.0506 0.77646-0.0813l0.4258-0.0559v-16.192l-0.8015-0.0699-0.8015-0.0699v-3.1721l1.2273-0.0583c2.9021-0.13787 7.4117-0.17082 8.8917-0.065 4.8656 0.34804 7.188 1.7918 7.9822 4.9622 0.24441 0.97569 0.24587 3.538 0.0027 4.4584-0.45006 1.7024-1.4766 3.0287-2.9161 3.7678-0.41787 0.21452-0.75996 0.42699-0.76019 0.47214-3.03e-4 0.0602 3.0642 5.0621 3.6275 5.9208 0.03919 0.0597 0.42241 0.13116 0.8516 0.15871l0.78034 0.0501 0.02753 1.628 0.02753 1.628-2.3819-3e-3 -2.3819-3e-3 -2.4546-4.2549-2.4546-4.2549-2.154 0.0255-2.154 0.0255-0.02677 2.5223-0.02677 2.5223 0.57778 0.063c0.31778 0.0346 0.66796 0.0718 0.77816 0.0826 0.1901 0.0185 0.20179 0.10306 0.2279 1.6476l0.02753 1.628h-7.3236zm10.913-10.438c1.5019-0.26787 2.4444-0.88735 2.9063-1.9102 0.17924-0.39697 0.23442-0.73248 0.26586-1.6166 0.04976-1.3989-0.10822-2.0153-0.6842-2.6696-0.87122-0.98976-2.0928-1.2742-5.4717-1.2742h-2.2411v7.6143l2.2292-3e-3c1.4266-2e-3 2.5052-0.0527 2.9957-0.1402z" stroke-width=".10019"/>
 </g>
</svg>
