<?xml version="1.0" encoding="UTF-8" standalone="no"?>
<svg xmlns="http://www.w3.org/2000/svg" height="158.12" width="600" version="1.1" viewBox="0 0 158.75 41.835332">
 <g>
  <path d="m-0.00093781 2.5631h24.241v6.6033h-8.2541v23.807h-7.7328v-23.807h-8.2541z"/>
  <path d="m22.461 22.025q0-2.6066 0.69508-4.6918 0.73853-2.1287 2.0418-3.5623 1.3033-1.4771 3.0844-2.259 1.8246-0.78197 3.9967-0.78197 1.8246 0 3.3016 0.56476 1.5205 0.52131 2.4328 1.5205v-1.7377h7.1246v21.895h-7.1246v-1.868q-0.86885 1.0861-2.4328 1.6508-1.5639 0.56476-3.1713 0.56476-2.2156 0-4.0836-0.78197-1.8246-0.78197-3.1279-2.2156-1.3033-1.4771-2.0418-3.5623-0.69508-2.1287-0.69508-4.7353zm6.9508 0q0 1.3467 0.34754 2.3459 0.39098 0.95574 0.99918 1.6074 0.6082 0.65164 1.4336 0.95574 0.82541 0.3041 1.6943 0.3041 0.86885 0 1.6508-0.3041 0.82541-0.3041 1.4336-0.95574 0.65164-0.65164 0.99918-1.6074 0.39098-0.99918 0.39098-2.3459t-0.39098-2.3025q-0.34754-0.99918-0.99918-1.6508-0.6082-0.65164-1.4336-0.95574-0.78197-0.3041-1.6508-0.3041-0.86885 0-1.6943 0.3041-0.82541 0.3041-1.4336 0.95574-0.6082 0.65164-0.99918 1.6508-0.34754 0.95574-0.34754 2.3025z"/>
  <path d="m48.942 22.025q0-2.6066 0.69508-4.6918 0.69508-2.1287 1.9549-3.5623 1.2598-1.4771 3.0844-2.259 1.8246-0.78197 4.0402-0.78197 1.6074 0 2.8238 0.52131 1.2598 0.47787 2.259 1.6943v-1.868h7.1246v30.757h-7.125v-10.599q-0.99918 1.0426-2.2156 1.5639-1.173 0.52131-2.9975 0.52131-2.1721 0-3.9533-0.78197t-3.041-2.2156q-1.2598-1.4771-1.9549-3.5623-0.69508-2.1287-0.69508-4.7353zm6.9508 0q0 2.7369 1.173 3.9967 1.173 1.2164 2.9541 1.2164 1.7812 0 2.9541-1.2164 1.173-1.2598 1.173-3.9967t-1.173-3.9533q-1.173-1.2598-2.9541-1.2598-1.7812 0-2.9541 1.2598-1.173 1.2164-1.173 3.9533z"/>
  <path d="m89.118 32.973v-2.5197q-0.86885 1.2164-2.4328 2.0418-1.5639 0.82541-3.7795 0.82541-3.5623 0-5.4303-1.9549-1.868-1.9984-1.868-5.9517v-14.336h7.1246v12.772q0 1.5205 0.65164 2.3459 0.65164 0.78197 1.8246 0.78197 1.8246 0 2.8672-1.5639 1.0426-1.6074 1.0426-4.7353v-9.6008h7.1246v21.895z"/>
  <path d="m100.66 4.2574q0-0.9123 0.3041-1.6508 0.34754-0.78197 0.91229-1.3467 0.56476-0.6082 1.3467-0.9123 0.79-0.3476 1.7-0.3476 0.9123 0 1.6943 0.34754 0.78197 0.3041 1.3467 0.9123 0.56476 0.56476 0.86886 1.3467 0.34754 0.73853 0.34754 1.6508 0 0.9123-0.34754 1.6943-0.3041 0.73853-0.86886 1.3467-0.56475 0.56476-1.3467 0.9123-0.78197 0.3041-1.6943 0.3041-0.91229 0-1.6943-0.3041-0.78197-0.34754-1.3467-0.9123-0.56475-0.6082-0.91229-1.3467-0.3041-0.78197-0.3041-1.6943zm7.8197 6.8205v21.895h-7.12v-21.895z"/>
  <path d="m120.67 2.2156v30.757h-7.1246v-30.757z"/>
  <path d="m132.71 2.2156v30.757h-7.1246v-30.757z"/>
  <path d="m136.07 22.025q0-2.6066 0.69508-4.6918 0.73853-2.1287 2.0418-3.5623 1.3033-1.4771 3.0844-2.259 1.8246-0.78197 3.9967-0.78197 1.8246 0 3.3016 0.56476 1.5205 0.52131 2.4328 1.5205v-1.7377h7.1246v21.895h-7.1246v-1.868q-0.86886 1.0861-2.4328 1.6508-1.5639 0.56476-3.1713 0.56476-2.2156 0-4.0836-0.78197-1.8246-0.78197-3.1279-2.2156-1.3033-1.4771-2.0418-3.5623-0.69508-2.1287-0.69508-4.7353zm6.9508 0q0 1.3467 0.34754 2.3459 0.39099 0.95574 0.99919 1.6074 0.60819 0.65164 1.4336 0.95574t1.6943 0.3041q0.86885 0 1.6508-0.3041 0.82541-0.3041 1.4336-0.95574 0.65164-0.65164 0.99919-1.6074 0.39098-0.99918 0.39098-2.3459t-0.39098-2.3025q-0.34755-0.99918-0.99919-1.6508-0.6082-0.65164-1.4336-0.95574-0.78197-0.3041-1.6508-0.3041-0.86885 0-1.6943 0.3041-0.82542 0.3041-1.4336 0.95574-0.6082 0.65164-0.99919 1.6508-0.34754 0.95574-0.34754 2.3025z"/>
 </g>
</svg>
