<svg xmlns="http://www.w3.org/2000/svg" height="161.85" width="600" version="1.1" viewBox="0 0 158.75 42.82235">
 <g transform="translate(-223.74 204.9)" fill="#1a9f84">
  <path d="m223.74-204.17v41.362h8.8699v-26.401l20.103 26.401h7.5764v-41.362h-8.8699v24.96l-18.809-24.96z"/>
  <path d="m286.63-204.9a21.411 21.411 0 0 0 -21.411 21.411 21.411 21.411 0 0 0 21.411 21.411 21.411 21.411 0 0 0 21.411 -21.411 21.411 21.411 0 0 0 -21.411 -21.411zm0 8.4804a12.044 12.968 0 0 1 12.044 12.968 12.044 12.968 0 0 1 -12.044 12.968 12.044 12.968 0 0 1 -12.044 -12.968 12.044 12.968 0 0 1 12.044 -12.968z"/>
  <path d="m351.18-204.17v41.362h31.316v-8.0075h-22.419v-8.7789h19.44v-8.0076h-19.44v-8.5602h22.114v-8.0075h-22.114z"/>
  <path d="m306.93-204.17 16.544 41.362h8.1176l16.627-41.362h-9.8489l-10.717 28.787-10.734-28.787z"/>
 </g>
</svg>
