<svg xmlns="http://www.w3.org/2000/svg" height="153.92" width="600" version="1.1" viewBox="0 0 158.75 40.72578">
 <text style="word-spacing:0px;letter-spacing:0px" xml:space="preserve" font-size="14.473px" line-height="9.04569054px" y="-91.346252" x="1527.1919" font-family="sans-serif" fill="#000000"><tspan y="-83.063782" x="1527.1919" stroke-width=".36183px"/></text>
 <g fill="#f36917">
  <path d="m74.539 9.263-40.934-9.263l-0.009 40.726h5.6263v-27.166l10.97 1.7526c3.9366 0.63477 7.4688 3.3423 7.4688 9.2967 0 6.224-2.8401 8.5047-7.4688 8.2519l-4.7776-0.25277v8.1171h13.389v-20.133l5.0112 0.67407v3.5446l0.05842 0.005c0.7325-2.4773 2.5256-3.2862 4.5658-3.0109 0.35951 0.0506 0.97967 0.13484 0.97967 0.13484v5.6848l-1.2987-0.11802c-1.6672-0.1629-4.1568 0.15167-4.1568 3.9715v9.2462h6.3004v-18.375l4.3214 0.57859v17.796h1.7133v-17.785h5.5443v2.539h0.0674c1.101-1.8594 3.0334-3.0727 5.2522-3.0727 2.2863 0 4.0726 0.74709 5.0556 2.9997 1.4437-1.9661 3.2356-2.9997 5.696-2.9997 5.814 0 6.1847 4.4658 6.1847 7.9991v10.319h2.8368c-1.1796-0.92125-1.9043-2.3481-1.9043-4.3141 0-6.0386 6.4768-5.5724 10.622-6.4319 1.0224-0.21347 1.5841-0.57297 1.5841-1.7077 0-1.3987-1.6515-1.9324-2.8817-1.9324-1.6571 0-2.7076 0.7471-2.9884 2.32h-5.6005c0.10674-2.4267 1.2358-4.0052 2.8536-4.9657 1.6178-0.92686 3.7243-1.2864 5.8027-1.2864 3.8198 0 7.5272 0.75272 8.3474 4.5388v-17.684zm-0.01121 12.038-4.2787-0.62353v-4.786l4.2787 0.76396zm38.942 12.504c-1.3369 0.32581-2.4604 0.89317-2.4604 2.3593 0 1.4998 1.1572 2.1065 2.4941 2.1065 2.8536 0 3.7973-1.6403 3.6625-5.4657-0.84822 0.53364-2.393 0.63476-3.6962 0.99988m-61.125-9.308c0-2.4323-1.2808-3.5783-3.0064-3.7973l-3.924-0.494v6.943l3.9237 0.33703c1.7571 0.15168 3.0064-0.61791 3.0064-2.9884m43.529 2.9098c-2.5727 0-2.8199 1.9998-2.8199 4.9994v8.3193h5.319v-10.14c0-1.9998-0.95495-3.1794-2.4997-3.1794m-10.791 0c-2.1458 0-3.0615 1.2527-3.0615 5.0444v8.2744h5.314v-9.7798c0-2.1795-0.63476-3.5389-2.2526-3.5389" stroke-width=".56173"/>
  <path d="m6.6345 24.541v4.0114h-3.7692v-4.011h-2.8668v11.003h2.8668v-4.5257h3.7693v4.5257h2.8664v-11.003z" stroke-width=".20072"/>
  <path d="m11.443 24.541v11.003h4.7306c3.3409 0 5.3965-1.9411 5.3965-5.5465 0-3.4097-2.0231-5.456-5.3965-5.456zm2.8668 2.4662h1.358c1.9558 0 3.0354 0.97057 3.0354 2.9712 0 2.2064-0.86538 3.054-3.0354 3.0996h-1.358z" stroke-width=".20072"/>
  <path d="m127.27 9.1464v21.702h5.5264v-5.585h4.2918v5.5857h5.5857v4.2918h-5.5857v5.5857h10.34l0.12157-15.567h-6.1172v-4.3808c1.8486 0 3.4704-0.2128 5.4719-1.1286 1.0706-0.67377 1.6511-2.1149 2.0423-3.6296h4.5822l-0.12362 24.706h5.3433v-31.581zm0 21.702h-0.0593v4.2918h0.0593zm0 4.2918v5.5857h5.5264v-5.5857z"/>
 </g>
</svg>
