<svg xmlns="http://www.w3.org/2000/svg" height="195.24" width="600" version="1.1" viewBox="0 0 158.75 51.658388">
 <g>
  <text style="word-spacing:0px;letter-spacing:0px" xml:space="preserve" font-size="18.358px" line-height="11.47395515px" y="-115.86765" x="1894.542" font-family="sans-serif" fill="#000000"><tspan y="-105.36181" x="1894.542" stroke-width=".45896px"/></text>
  <path d="m51.933 11.75-51.923-11.75-0.011486 51.658h7.1367v-34.458l13.915 2.224c4.9934 0.80517 9.4738 4.2395 9.4738 11.792 0 7.8948-3.6025 10.788-9.4738 10.467l-6.06-0.321v10.296h16.982v-25.537l6.3565 0.85502v4.4961l0.0741 0.0063c0.92914-3.1423 3.2035-4.1683 5.7914-3.8192 0.45602 0.06418 1.2427 0.17104 1.2427 0.17104v7.2108l-1.647-0.149c-2.1148-0.20663-5.2727 0.19238-5.2727 5.0376v11.728h7.9917v-23.307l5.4815 0.73391v22.573h2.173v-22.559h7.0327v3.2206h0.08549c1.3966-2.3585 3.8477-3.8975 6.6622-3.8975 2.9 0 5.1658 0.94764 6.4128 3.8049 1.8312-2.4939 4.1042-3.8049 7.225-3.8049 7.3747 0 7.8449 5.6646 7.8449 10.146v13.089h3.5983c-1.4963-1.1686-2.4155-2.9784-2.4155-5.4722 0-7.6597 8.2155-7.0683 13.474-8.1585 1.2968-0.27078 2.0093-0.72678 2.0093-2.1661 0-1.7742-2.0948-2.4511-3.6553-2.4511-2.102 0-3.4344 0.94766-3.7906 2.9427h-7.1039c0.1354-3.0781 1.5676-5.0803 3.6197-6.2988 2.0521-1.1757 4.7241-1.6317 7.3604-1.6317 4.8452 0 9.5479 0.95478 10.588 5.7572v-22.43zm-0.01422 15.269-5.4273-0.79091v-6.0708l5.426 0.969zm49.4 15.861c-1.6958 0.41327-3.1209 1.1329-3.1209 2.9926 0 1.9025 1.4678 2.672 3.1636 2.672 3.6196 0 4.8167-2.0806 4.6457-6.9329-1.0759 0.67689-3.0354 0.80516-4.6884 1.2683m-77.539-11.807c0-3.0852-1.6246-4.5388-3.8135-4.8167l-4.977-0.62703v8.8069l4.977 0.4275c2.2288 0.1924 3.8135-0.78378 3.8135-3.7906m55.214 3.6909c-3.2634 0-3.5769 2.5366-3.5769 6.3415v10.553h6.7477v-12.862c0-2.5366-1.2113-4.0329-3.1708-4.0329m-13.688 0c-2.7219 0-3.8833 1.5889-3.8833 6.3985v10.496h6.739v-12.405c0-2.7646-0.80516-4.4889-2.8572-4.4889" stroke-width=".71253" fill="#f36917"/>
  <path d="m118.82 11.602v27.528h7.0099v-7.0852h5.4439v7.0852h7.0852v5.4439h-7.0852v7.0852h13.115l0.1542-19.746h-7.7593v-5.5568c2.3448 0 4.4021-0.26992 6.9408-1.4316 1.358-0.85464 2.0943-2.6826 2.5906-4.6039h5.8123l-0.15681 31.338h6.7777v-40.056zm0 27.528h-0.0752v5.4439h0.0752zm0 5.4439v7.0852h7.0099v-7.0852z" fill="#f36917"/>
 </g>
</svg>
