<?xml version="1.0" encoding="UTF-8" standalone="no"?>
<svg xmlns="http://www.w3.org/2000/svg" height="623.52" width="600" version="1.1" viewBox="0 0 158.75 164.9723">
 <path d="m81.7 92.9c0.1905-4.1298 2.8693-7.1199 6.4088-7.1199s6.4088 3.1877 6.4088 7.1199c0 0.65707-0.0784 1.2843-0.18744 1.8964-0.27243 1.7589-1.767 5.825-6.286 10.987-0.75763-0.89461-1.4824-1.7746-2.1637-2.6267-2.1218-2.6515-4.3714-6.1268-4.1804-10.257zm75.109-49.24c-0.0201-0.10866-0.0415-0.21683-0.0622-0.32549-0.0551-0.29466-0.11227-0.58882-0.17175-0.88146-1.4996-7.2984-4.3047-14.04-8.3481-19.876-4.6191-6.6681-10.759-12.015-18.249-15.893-7.3393-3.7998-15.637-6.0029-24.663-6.5473-4.1278-0.24867-8.3881-0.14709-12.663 0.30224-15.164 1.5936-30.582 7.3929-45.826 17.236-29.896 19.303-47.757 50.295-46.784 76.88 0.28803 7.4308 2.0491 14.515 5.4335 20.9 6.9224 13.061 18.589 22.392 32.85 26.273 6.7915 1.8483 13.951 2.3953 21.279 1.625 0.3543-0.0373 0.70861-0.0773 1.0644-0.12088 7.8897-0.96901 15.772-3.4515 23.429-7.3793 1.9672-1.0093 3.9666-2.2411 5.9539-3.6689 5.5471 4.4164 10.704 8.1206 14.303 10.654 1.6871 0.87443 3.5991 1.2146 5.5082 0.99665h0.00034c2.7859-0.21839 5.315-1.7244 6.938-4.005 1.5117-2.1253 2.1061-4.6893 1.6724-7.2614-0.43315-2.5716-1.8423-4.8102-3.9671-6.3219-2.5094-1.7857-6.2931-4.5367-10.477-7.8073l-0.0595-0.0455 0.056-0.0717c0.0844-0.11266 0.16832-0.22491 0.25068-0.33711 3.6077-4.8915 9.6294-14.569 9.4469-24.446-0.14862-6.5094-2.5271-12.803-6.7075-17.733-4.7338-5.5834-11.239-8.7555-18.316-8.9314-1.0543-0.0262-2.1258 0.01721-3.1847 0.12796-9.8836 1.0392-18.634 7.8584-21.773 16.97-1.2004 3.4854-1.7103 7.0477-1.5582 10.594 0.37147 7.869 4.0085 15.659 10.638 22.367 0.5893 0.5964 1.2009 1.2034 1.8281 1.8155l0.0773 0.0763-0.0733 0.044c-5.7179 2.8622-11.472 4.613-17.111 5.2059-4.8617 0.51099-9.6006 0.1511-14.085-1.069-8.9966-2.4488-16.356-8.3355-20.724-16.575-1.9461-3.6719-2.9959-7.964-3.1619-12.654-0.26399-6.8263 1.3509-14.502 4.8132-22.342 6.4337-14.568 18.164-27.877 33.029-37.474 12.641-8.1616 25.179-12.944 37.267-14.215 3.2302-0.33965 6.4113-0.419 9.454-0.23604 12.309 0.74299 22.265 5.7386 28.035 14.068 2.6419 3.8134 4.4614 8.3754 5.4015 13.403 0.01 0.05459 0.0197 0.10918 0.0298 0.16376 0.0363 0.19964 0.0723 0.39929 0.10615 0.59994 0.0373 0.22037 0.0723 0.44174 0.10654 0.66363 0.004 0.02879 0.01 0.05761 0.0134 0.08644 0.69346 4.5716 0.67172 9.4959-0.10252 14.599-1.6699 10.999-6.8202 21.919-14.646 31.206-2.648 4.1086-1.8519 9.5642 2.0156 12.738 2.0348 1.6694 4.5968 2.5757 7.215 2.0702h0.00036c2.5691 0 4.8875-1.4268 6.5271-3.4243 10.536-12.839 16.97-27.693 18.607-43.044 0.6995-6.5579 0.47105-12.926-0.63431-18.979" fill="#ace514"/>
 <path d="m158.62 154.58v10.387h-32.148c0-11.645 4.9027-12.606 18.507-24.796 2.2156-1.9838 4.3603-3.671 4.3603-6.6622 0-3.1573-2.9811-6.235-6.2734-6.235-4.0718 0-5.5604 2.7099-6.2782 5.0251l-9.537-2.0199c1.6045-6.975 7.6104-12.553 15.8-12.546 8.4722 0.008 15.697 6.9275 15.697 15.839 0 8.6661-5.437 12.198-11.027 16.859l-6.5861 5.7219h17.484" fill="#313435"/>
</svg>
