<?xml version="1.0" encoding="UTF-8" standalone="no"?>
<svg xmlns="http://www.w3.org/2000/svg" xml:space="preserve" viewBox="0 0 599.99999 455.68183" height="455.68" width="600" version="1.1" y="0px" x="0px"><g stroke-width="11.364" fill="#4144c5"><path id="XMLID_918_" d="m600 282.95v36.364h-79.545v-36.364h20.455v-110.22h-31.818v-34.091h73.864v144.32z"/><path d="m103.41 175h-4.5454v44.318h4.5454c14.773 0 31.818-2.2727 31.818-22.727 0-20.45-17.05-21.59-31.82-21.59z"/><path d="m0 0v455.68h455.68v-455.68zm143.18 317.05-44.316-68.19v68.182h-46.591v-178.41h69.318c35.227 0 62.5 17.045 62.5 54.545 0 25-13.636 45.455-38.636 50l55.682 72.727h-57.955zm190.91 0h-43.182v-13.636c-7.9545 12.5-22.727 17.045-36.364 17.045-36.364 0-61.364-29.545-61.364-64.773 0-35.227 25-64.773 60.227-64.773 13.636 0 28.409 5.6818 37.5 15.909v-11.364h43.182zm68.182 0h-43.18v-120.46h43.182zm-21.59-143.19c-13.636 0-23.864-11.364-23.864-23.864s11.364-23.864 23.864-23.864c13.636 0 23.864 11.364 23.864 23.864s-10.227 23.864-23.864 23.864z"/><path d="m264.77 229.55c-17.045 0-27.273 12.5-27.273 27.273 0 15.909 10.227 27.273 27.273 27.273 17.045 0 27.273-11.364 27.273-27.273 1.1364-14.773-9.0909-27.273-27.273-27.273z"/></g></svg>
