<?xml version="1.0" encoding="UTF-8" standalone="no"?>
<svg xmlns="http://www.w3.org/2000/svg" xml:space="preserve" viewBox="0 0 599.99999 310.46268" height="310.46" width="600" version="1.1" y="0px" x="0px"><g fill="#4144c5"><path d="m463.8 167.81h30.404v-31.263h21.06v81.01h-21.06v-33.198h-30.404v33.198h-21.06v-81.01h21.06z"/><path d="m528.98 217.56v-81.01h29.87c11.316 0.072 21.003 4.0117 29.062 11.818 8.0582 7.8069 12.087 17.404 12.087 28.793-0.0001 11.388-4.0472 20.969-12.141 28.74-8.0944 7.7719-17.764 11.658-29.008 11.658zm21.06-63.176v45.343h4.7248c6.304 0.07 11.766-1.7033 16.386-5.3199 4.6198-3.6165 6.9297-9.3648 6.9298-17.245-0.00007-7.233-2.1488-12.82-6.4461-16.76-4.2975-3.94-9.8485-5.91-16.653-5.9101z"/><g stroke-width="7.7422"><path d="m408.79 192.78v24.775h-54.2v-24.775h13.936v-75.099h-21.678v-23.225h50.324v98.326z"/><path d="m70.454 119.23h-3.0969v30.195h3.0969c10.065 0 21.678-1.5485 21.678-15.484s-11.613-14.71-21.678-14.71z"/><path d="m0 0v310.46h310.46v-310.46zm97.552 216.01-30.195-46.46v46.453h-31.743v-121.54h47.227c24.001 0 42.582 11.613 42.582 37.163 0 17.033-9.2906 30.969-26.324 34.066l37.937 49.55h-39.488zm130.07 0h-29.42v-9.2907c-5.4196 8.5164-15.484 11.613-24.775 11.613-24.775 0-41.808-20.13-41.808-44.131s17.033-44.131 41.034-44.131c9.2907 0 19.356 3.8711 25.549 10.839v-7.7422h29.42zm46.453 0h-29.42v-82.067h29.42zm-14.71-97.55c-9.2906 0-16.259-7.7422-16.259-16.259 0-8.5164 7.7422-16.259 16.259-16.259 9.2906 0 16.259 7.7422 16.259 16.259 0 8.5164-6.968 16.259-16.259 16.259z"/><path d="m180.39 156.39c-11.613 0-18.581 8.5164-18.581 18.581 0 10.839 6.968 18.581 18.581 18.581s18.581-7.7422 18.581-18.581c0.77421-10.065-6.1938-18.581-18.581-18.581z"/></g></g></svg>
