<?xml version="1.0" encoding="UTF-8" standalone="no"?>
<svg xmlns="http://www.w3.org/2000/svg" xml:space="preserve" viewBox="0 0 599.99999 433.51353" height="433.51" width="600" version="1.1" y="0px" x="0px"><g stroke-width="10.811" fill="#e61c23"><path d="m98.378 166.49h-4.3243v42.162h4.3243c14.054 0 30.27-2.1622 30.27-21.622 0-19.459-16.216-20.541-30.27-20.541z"/><path d="m0 0v433.51h433.51v-433.51zm136.22 301.62-42.166-64.86v64.865h-44.324v-169.73h65.946c33.514 0 59.459 16.216 59.459 51.892 0 23.784-12.973 43.243-36.757 47.568l52.973 69.189h-55.135zm181.62 0h-41.081v-12.973c-7.5676 11.892-21.622 16.216-34.595 16.216-34.595 0-58.378-28.108-58.378-61.622s23.784-61.622 57.297-61.622c12.973 0 27.027 5.4054 35.676 15.135v-10.811h41.081zm64.865 0h-41.081v-114.59h41.081zm-20.54-136.21c-12.973 0-22.703-10.811-22.703-22.703s10.811-22.703 22.703-22.703c12.973 0 22.703 10.811 22.703 22.703s-9.7297 22.703-22.703 22.703z"/><path d="m251.89 218.38c-16.216 0-25.946 11.892-25.946 25.946 0 15.135 9.7297 25.946 25.946 25.946s25.946-10.811 25.946-25.946c1.0811-14.054-8.6486-25.946-25.946-25.946z"/><path id="XMLID_986_" d="m480 303.78v-37.838c50.811-30.27 75.676-58.378 75.676-82.162 0-11.892-6.4865-19.459-17.297-19.459-10.811 0-17.297 8.6486-17.297 24.865v4.3243h-42.162v-1.0811c0-37.838 24.865-63.784 61.622-63.784s59.459 20.541 59.459 51.892c0 24.865-21.622 55.135-63.784 88.649h28.108v-10.811h34.595v45.405z"/></g></svg>
