<?xml version="1.0" encoding="UTF-8" standalone="no"?>
<svg xmlns="http://www.w3.org/2000/svg" xml:space="preserve" viewBox="0 0 599.99999 300.00833" height="300.01" width="600" version="1.1" y="0px" x="0px"><g fill="#e61c23"><path d="m468.38 162.16h29.381v-30.211h20.351v78.282h-20.351v-32.08h-29.381v32.08h-20.351v-78.282h20.351z"/><path d="m531.37 210.23v-78.282h28.864c10.935 0.0696 20.296 3.8766 28.083 11.421 7.7868 7.544 11.68 16.818 11.68 27.823-0.0001 11.005-3.911 20.262-11.733 27.773-7.8218 7.5102-17.165 11.265-28.031 11.265zm20.351-61.049v43.816h4.5656c6.0917 0.0676 11.37-1.646 15.834-5.1407 4.4642-3.4947 6.6963-9.0494 6.6964-16.664-0.00007-6.9894-2.0764-12.388-6.2291-16.195-4.1528-3.8073-9.5169-5.711-16.092-5.711z"/><g stroke-width="7.4817"><path d="m68.082 115.22h-2.9926v29.178h2.9926c9.726 0 20.948-1.4963 20.948-14.963 0-13.466-11.222-14.215-20.948-14.215z"/><path d="m0 0v300.01h300.01v-300.01zm94.27 208.73-29.18-44.88v44.889h-30.675v-117.46h45.638c23.193 0 41.148 11.222 41.148 35.912 0 16.46-8.9779 29.926-25.437 32.919l36.66 47.882h-38.152zm125.69 0h-28.43v-8.9779c-5.2371 8.2298-14.963 11.222-23.941 11.222-23.941 0-40.4-19.452-40.4-42.645s16.46-42.645 39.652-42.645c8.9779 0 18.704 3.7408 24.689 10.474v-7.4817h28.43zm44.889 0h-28.43v-79.301h28.43zm-14.215-94.263c-8.9779 0-15.711-7.4817-15.711-15.711 0-8.2298 7.4817-15.711 15.711-15.711 8.9779 0 15.712 7.4817 15.712 15.711 0 8.2298-6.7334 15.711-15.712 15.711z"/><path d="m174.32 151.13c-11.222 0-17.956 8.2298-17.956 17.956 0 10.474 6.7334 17.956 17.956 17.956 11.222 0 17.956-7.4817 17.956-17.956 0.74816-9.726-5.9852-17.956-17.956-17.956z"/><path id="XMLID_986_" d="m332.18 210.23v-26.186c35.163-20.948 52.371-40.4 52.371-56.86 0-8.2298-4.489-13.466-11.97-13.466-7.4817 0-11.97 5.9852-11.97 17.208v2.9926h-29.178v-0.74817c0-26.186 17.208-44.141 42.645-44.141s41.148 14.215 41.148 35.912c0 17.208-14.963 38.156-44.141 61.349h19.452v-7.4817h23.941v31.422z"/></g></g></svg>
