<?xml version="1.0" encoding="UTF-8" standalone="no"?>
<svg xmlns="http://www.w3.org/2000/svg" xml:space="preserve" viewBox="0 0 599.99999 441.46791" height="441.47" width="600" version="1.1" y="0px" x="0px"><g stroke-width="11.009" fill="#00b46e"><path id="XMLID_1042_" d="m520.73 256.51v2.2018c0 11.009 6.6055 16.514 18.716 16.514s18.716-7.7064 18.716-18.716c0-13.211-9.9082-19.817-29.725-19.817h-8.8073v-33.028h4.4037c18.716 0 27.523-6.6055 27.523-20.917 0-11.009-5.5046-17.615-14.312-17.615-8.8073 0-13.211 5.5046-13.211 14.312v2.2018h-41.835c0-31.927 22.018-52.844 56.147-52.844 31.927 0 52.844 19.817 52.844 48.44 0 16.514-7.7064 29.725-25.321 35.229 22.02 6.62 34.13 20.93 34.13 40.75 0 34.128-24.22 57.248-60.55 57.248-39.633 0-61.651-20.917-61.651-56.147h42.936z"/><path d="m100.18 169.54h-4.4037v42.936h4.4037c14.312 0 30.826-2.2018 30.826-22.018 0-18.716-16.514-20.917-30.826-20.917z"/><path d="m0 0v441.47h441.47v-441.47zm138.72 307.16-42.94-66.06v66.055h-45.138v-172.85h67.156c34.128 0 60.55 16.514 60.55 52.844 0 24.22-13.211 44.037-37.431 48.44l53.945 70.459h-56.147zm184.95 0h-41.835v-13.211c-7.7064 12.11-22.018 16.514-35.229 16.514-35.229 0-59.45-28.624-59.45-62.752s24.22-62.752 59.45-62.752c13.211 0 27.523 5.5046 36.33 15.413v-11.01h41.835v117.8zm66.055 0h-41.83v-116.7h41.835zm-20.91-138.72c-13.211 0-23.119-11.009-23.119-23.119 0-13.211 11.009-23.119 23.119-23.119s23.119 11.009 23.119 23.119-9.9082 23.119-23.119 23.119z"/><path d="m256.51 222.39c-16.514 0-26.422 12.11-26.422 26.422 0 15.413 9.9082 26.422 26.422 26.422s26.422-11.009 26.422-26.422c1.1009-14.312-8.8073-26.422-26.422-26.422z"/></g></svg>
