<?xml version="1.0" encoding="UTF-8" standalone="no"?>
<svg xmlns="http://www.w3.org/2000/svg" xml:space="preserve" viewBox="0 0 599.99999 303.80005" height="303.8" width="600" version="1.1" y="0px" x="0px"><g fill="#00b46e"><path d="m466.72 164.21h29.752v-30.593h20.608v79.271h-20.608v-32.485h-29.752v32.485h-20.608v-79.271h20.608z"/><path d="m530.51 212.89v-79.271h29.229c11.073 0.0705 20.553 3.9256 28.438 11.565 7.8852 7.6393 11.828 17.031 11.828 28.175-0.0001 11.144-3.9604 20.519-11.881 28.124-7.9207 7.6051-17.382 11.408-28.385 11.408zm20.608-61.82v44.37h4.6234c6.1687 0.0684 11.513-1.6668 16.034-5.2057 4.5206-3.5389 6.781-9.1638 6.781-16.875-0.00007-7.0777-2.1026-12.544-6.3078-16.4-4.2052-3.8554-9.6371-5.7832-16.296-5.7832z"/><g stroke-width="7.5759"><path id="XMLID_1042_" d="m358.34 176.52v1.5152c0 7.5759 4.5456 11.364 12.88 11.364 8.3339 0 12.88-5.3032 12.88-12.88 0-9.0912-6.8184-13.637-20.455-13.637h-6.0608v-22.728h3.0304c12.88 0 18.94-4.5456 18.94-14.394 0-7.5759-3.788-12.122-9.8489-12.122-6.0608 0-9.0912 3.788-9.0912 9.8489v1.5152h-28.789c0-21.971 15.152-36.365 38.638-36.365 21.971 0 36.365 13.637 36.365 33.334 0 11.364-5.3032 20.455-17.425 24.243 15.153 4.5556 23.487 14.403 23.487 28.042 0 23.485-16.667 39.396-41.668 39.396-27.274 0-42.425-14.394-42.425-38.638h29.547z"/><path d="m68.939 116.67h-3.0304v29.547h3.0304c9.8489 0 21.213-1.5152 21.213-15.152 0-12.88-11.364-14.394-21.213-14.394z"/><path d="m0 0v303.8h303.8v-303.8zm95.461 211.37-29.549-45.46v45.456h-31.062v-118.95h46.213c23.485 0 41.668 11.364 41.668 36.365 0 16.667-9.0912 30.304-25.758 33.334l37.123 48.487h-38.643zm127.27 0h-28.789v-9.0912c-5.3032 8.3336-15.152 11.364-24.243 11.364-24.243 0-40.911-19.698-40.911-43.183s16.667-43.183 40.911-43.183c9.0912 0 18.94 3.788 25.001 10.607v-7.5766h28.789v81.065zm45.456 0h-28.786v-80.308h28.789zm-14.389-95.461c-9.0912 0-15.909-7.5759-15.909-15.909 0-9.0912 7.5759-15.909 15.909-15.909 8.3336 0 15.909 7.5759 15.909 15.909 0 8.3336-6.8184 15.909-15.909 15.909z"/><path d="m176.52 153.04c-11.364 0-18.182 8.3336-18.182 18.182 0 10.607 6.8184 18.182 18.182 18.182s18.182-7.5759 18.182-18.182c0.75758-9.8489-6.0608-18.182-18.182-18.182z"/></g></g></svg>
