<?xml version="1.0" encoding="UTF-8" standalone="no"?>
<svg xmlns="http://www.w3.org/2000/svg" xml:space="preserve" viewBox="0 0 599.99999 297.41113" height="297.41" width="600" version="1.1" y="0px" x="0px"><g fill="#9d2fe5"><path d="m469.52 160.76h29.126v-29.949h20.174v77.604h-20.17v-31.802h-29.126v31.802h-20.174v-77.604h20.174z"/><path d="m531.97 208.41v-77.604h28.614c10.84 0.069 20.12 3.8431 27.84 11.322 7.7194 7.4787 11.579 16.673 11.579 27.582-0.0001 10.91-3.8771 20.087-11.631 27.532-7.7541 7.4452-17.017 11.168-27.788 11.168zm20.174-60.52v43.436h4.5261c6.039 0.067 11.271-1.6317 15.697-5.0962 4.4256-3.4645 6.6384-8.9711 6.6384-16.52-0.00007-6.9289-2.0584-12.281-6.1751-16.055-4.1168-3.7743-9.4345-5.6616-15.953-5.6616z"/><path id="XMLID_1099_" d="m358.98 186.9h13.35v-9.6418h-50.44v-22.25l48.209-63.043h31.151v63.043h15.575v22.25h-15.575v9.6418h10.384v22.25h-52.659v-22.25zm15.575-68.235-24.475 35.601h24.475z" stroke-width="7.4167"/><path d="m67.493 114.22h-2.9667v28.926h2.9667c9.6418 0 20.767-1.4834 20.767-14.833 0-12.608-11.125-14.092-20.767-14.092zm-67.493-114.22v297.41h297.41v-297.41zm93.452 207.67-28.184-44.5v44.5h-31.151v-116.44h45.243c22.992 0 40.793 11.125 40.793 35.601 0 16.317-8.8999 29.667-25.217 32.634l36.342 47.467h-37.828zm124.6 0h-28.184v-8.8999c-5.1918 8.1586-14.833 11.125-23.734 11.125-23.734 0-40.051-19.284-40.051-42.276s16.317-42.276 39.309-42.276c8.8999 0 18.542 3.7084 24.475 10.384v-7.4195h28.184v79.356zm44.501 0h-28.18v-79.356h28.184zm-14.096-94.188c-8.8999 0-15.575-7.4167-15.575-15.575 0-8.8999 7.4167-15.575 15.575-15.575 8.1586 0 15.575 7.4167 15.575 15.575 0 8.8999-6.6751 15.575-15.575 15.575zm-75.654 36.342c-11.125 0-17.8 8.1586-17.8 17.8 0 10.384 6.6751 17.8 17.8 17.8s17.8-7.4167 17.8-17.8c0.74168-9.6418-5.9334-17.8-17.8-17.8z" stroke-width="7.4167"/></g></svg>
