<?xml version="1.0" encoding="UTF-8" standalone="no"?>
<svg xmlns="http://www.w3.org/2000/svg" xml:space="preserve" viewBox="0 0 599.99999 428.11391" height="428.11" width="600" version="1.1" y="0px" x="0px"><path id="XMLID_1099_" d="m516.73 269.04h19.217v-13.879h-72.598v-32.028l69.395-90.747h44.84v90.747h22.42v32.028h-22.42v13.879h14.947v32.028h-75.8v-32.028zm22.42-98.221-35.231 51.246h35.231z" stroke-width="10.676" fill="#9d2fe5"/><path d="m97.153 164.41h-4.2705v41.637h4.2705c13.879 0 29.893-2.1352 29.893-21.352 0-18.149-16.014-20.285-29.893-20.285zm-97.153-164.41v428.11h428.11v-428.11zm134.52 298.93-40.57-64.05v64.057h-44.84v-167.62h65.125c33.096 0 58.719 16.014 58.719 51.246 0 23.488-12.811 42.705-36.299 46.975l52.313 68.327h-54.448zm179.36 0h-40.569v-12.811c-7.4733 11.744-21.352 16.014-34.164 16.014-34.164 0-57.651-27.758-57.651-60.854s23.488-60.854 56.584-60.854c12.811 0 26.69 5.3381 35.231 14.947v-10.68h40.57v114.23zm64.057 0h-40.57v-114.23h40.569zm-20.29-135.58c-12.811 0-22.42-10.676-22.42-22.42 0-12.811 10.676-22.42 22.42-22.42s22.42 10.676 22.42 22.42c0 12.811-9.6085 22.42-22.42 22.42zm-108.9 52.313c-16.014 0-25.623 11.744-25.623 25.623 0 14.947 9.6085 25.623 25.623 25.623s25.623-10.676 25.623-25.623c1.0676-13.879-8.5409-25.623-25.623-25.623z" stroke-width="10.676" fill="#9d2fe5"/></svg>
