<?xml version="1.0" encoding="UTF-8"?>
<!-- Created with Inkscape (http://www.inkscape.org/) -->
<svg width="195.67mm" height="46.927mm" version="1.1" viewBox="0 0 195.66536 46.926807" xmlns="http://www.w3.org/2000/svg" xmlns:cc="http://creativecommons.org/ns#" xmlns:dc="http://purl.org/dc/elements/1.1/" xmlns:rdf="http://www.w3.org/1999/02/22-rdf-syntax-ns#">
 <metadata>
  <rdf:RDF>
   <cc:Work rdf:about="">
    <dc:format>image/svg+xml</dc:format>
    <dc:type rdf:resource="http://purl.org/dc/dcmitype/StillImage"/>
    <dc:title/>
   </cc:Work>
  </rdf:RDF>
 </metadata>
 <g transform="translate(-5.7982 -113.39)">
  <g>
   <g fill="#0077bd">
    <path d="m15.412 151.37c-5.664-0.78299-9.0341-3.7004-9.5042-8.2276l-0.10967-1.0563h6.9624l0.11535 0.6338c0.31468 1.729 1.478 3.0571 3.1067 3.5469 1.4202 0.42708 4.0462 0.37588 5.2731-0.10282 1.6695-0.65138 2.5302-1.9772 2.2809-3.5137-0.27313-1.6831-0.71678-1.8728-9.2083-3.9372-3.2054-0.77927-4.9592-1.5461-6.0649-2.6518-2.6726-2.6726-2.4967-7.7374 0.35855-10.323 1.0508-0.95149 3.1073-1.9366 4.9145-2.3542 2.0744-0.4793 7.2277-0.44158 9.2478 0.0677 3.7393 0.94271 6.0336 2.9255 6.803 5.8793 0.1425 0.54708 0.25908 1.2449 0.25908 1.5507v0.55605h-6.7475l-0.17346-0.63381c-0.36782-1.344-1.2937-2.3165-2.6283-2.7606-0.37955-0.1263-1.4173-0.22605-2.3662-0.22742-1.4765-2e-3 -1.8124 0.0543-2.6575 0.44619-1.2833 0.59518-1.696 1.235-1.6032 2.4857 0.12244 1.6508 1.0043 2.1089 6.2245 3.2334 3.8982 0.83978 5.0726 1.1823 6.6841 1.9494 3.1726 1.5103 4.675 4.3508 4.1362 7.8201-0.59548 3.8344-3.371 6.3894-8.0381 7.3992-1.4517 0.31414-5.6604 0.4413-7.2648 0.21951z" stroke-width=".16901"/>
    <path d="m33.427 132.08v-18.549h7.1856v19.962l4.7765-4.8843 4.7765-4.8843 4.2891 7e-3 4.2891 7e-3 -5.0387 4.9797-5.0387 4.9797 5.5817 8.3854c3.07 4.612 5.5818 8.4226 5.5818 8.4681 0 0.0455-1.9628 0.0626-4.3617 0.0382l-4.3617-0.0445-3.5848-5.7652c-1.9716-3.1709-3.6376-5.8546-3.7021-5.9639-0.0772-0.13075-0.64125 0.2694-1.6489 1.1698l-1.5316 1.3685-0.0132 4.6372-0.0132 4.6372h-7.1856z" stroke-width=".16711"/>
    <path d="m61.451 157.29v-3.0197l2.0551-1e-3c1.1303-5e-4 2.3403-0.0801 2.6888-0.17691 0.7934-0.22033 1.7189-1.0208 2.1443-1.8547 0.68842-1.3494 0.71608-1.2574-4.5149-15.015-2.6623-7.0015-4.8944-12.9-4.9603-13.108l-0.11976-0.37747h7.827l3.1019 9.1427c1.7061 5.0285 3.1437 9.1428 3.1949 9.143 0.0511 1.7e-4 1.4049-4.0374 3.0083-8.9724 1.6034-4.935 2.9636-9.0509 3.0226-9.1464 0.07001-0.11328 1.3875-0.15782 3.7947-0.1283l3.6874 0.0452-4.4078 11.995c-6.3222 17.205-6.3795 17.356-7.3163 19.285-0.68626 1.4131-1.0819 1.9865-2.0378 2.9533-1.8779 1.8994-3.1485 2.2528-8.1064 2.2544l-3.0617 2e-3z" stroke-width=".16776"/>
    <path d="m139.61 132.09v-18.549h7.1856v19.962l4.7765-4.8843 4.7765-4.8843 4.2891 7e-3 4.2891 7e-3 -5.0386 4.9797-5.0386 4.9797 5.5817 8.3854c3.07 4.612 5.5818 8.4226 5.5818 8.4681 0 0.0455-1.9628 0.0626-4.3617 0.0382l-4.3617-0.0445-3.5848-5.7652c-1.9716-3.1709-3.6376-5.8546-3.7021-5.9639-0.0772-0.13074-0.64124 0.2694-1.6489 1.1698l-1.5316 1.3685-0.0132 4.6372-0.0132 4.6372h-7.1856z" stroke-width=".16711"/>
    <path d="m110.5 137.09v-13.464h6.8572v3.853l1.1003-1.1663c2.0491-2.1721 4.0832-3.1225 7.0635-3.3003 4.917-0.29336 8.4666 1.9306 9.6768 6.0629 0.25792 0.88069 0.29643 2.1197 0.34909 11.234l0.0591 10.244h-7.3644l-0.0485-9.2405c-0.047-8.9679-0.0588-9.2627-0.398-9.9931-0.45096-0.97106-1.5288-1.936-2.4424-2.1865-0.98336-0.26963-2.9097-0.22927-3.7744 0.0791-1.5121 0.53923-2.811 1.7787-3.3476 3.1945-0.45778 1.2078-0.53909 2.7638-0.53909 10.317v7.83h-7.1917z" stroke-width=".16725"/>
    <rect x="88.266" y="113.39" width="7.4167" height="37.485"/>
    <rect x="99.357" y="123.74" width="7.3499" height="27.061"/>
    <rect x="99.491" y="113.39" width="7.1495" height="6.0136"/>
   </g>
   <g fill="#ee3338">
    <circle cx="178.03" cy="126.51" r="3.6953"/>
    <circle cx="187.84" cy="126.49" r="3.6953"/>
    <circle cx="197.73" cy="126.45" r="3.6953"/>
    <circle cx="178.07" cy="137.06" r="3.6953"/>
    <circle cx="187.88" cy="137.05" r="3.6953"/>
    <circle cx="197.77" cy="137.01" r="3.6953"/>
    <circle cx="187.87" cy="147.64" r="3.6953"/>
    <circle cx="197.76" cy="147.6" r="3.6953"/>
   </g>
  </g>
 </g>
</svg>
