<?xml version="1.0"?>
<svg xmlns="http://www.w3.org/2000/svg" height="371" width="600" version="1.1" viewBox="0 0 158.75 98.159383">
  <defs>
    <linearGradient id="a" gradientUnits="userSpaceOnUse" gradientTransform="matrix(0 98.15 -98.15 0 290.91 340.53)" x1="0" x2="1" y1="0" y2="0">
      <stop stop-color="#7c1424" offset="0"/>
      <stop stop-color="#e61c24" offset=".47239"/>
      <stop stop-color="#ed1c24" offset="1"/>
    </linearGradient>
  </defs>
  <g transform="translate(-242.47 -340.53)">
    <g stroke-width=".99999">
      <path fill="url(#a)" d="m267.41 340.53 47.001 98.159v-98.159z"/>
      <path d="m242.47 364.75v6.26h7.201v19.54h8.1779v-19.54h7.201v-6.26z"/>
      <path d="m281.01 374.12c0-2.32-1.592-3.47-3.402-3.47-2.171 0-3.329 1.12-3.329 3.47v6.88c0 2.35 1.158 3.65 3.401 3.65 2.063 0 3.33-1.34 3.33-3.51zm-3.366 16.86c-5.934 0-11.544-2.38-11.544-9.9799v-6.63c0-6.98 5.464-10.06 11.435-10.06 5.899 0 11.653 2.5 11.653 10.06v6.59c0 7.38-5.827 10.02-11.544 10.02"/>
      <path d="m302.61 370.83h-3.26v5.64h3.22c1.88 0 2.9-1.37 2.9-2.82 0-1.41-0.90999-2.82-2.86-2.82m1.48 11.54h-4.74v8.18h-8.104v-25.8h12.844c6.44 0 9.2699 4.2 9.2699 8.4999 0 4.49-2.57 9.1199-9.2699 9.1199"/>
      <path d="m321.93 390.98c-5.05 0-7.69-2.91-7.69-7.96v-4.69c0-4.89 2.96-8 7.69-8 5.04 0 7.21 2.8 7.21 6.03v0.59h-2.29v-0.67c0-1.26-0.9-3.9-4.84-3.9-3.9 0-5.24 2.52-5.24 6.11v4.49c0 3.35 1.26 5.95 5.2 5.95s4.88-2.64 4.88-3.9v-0.67h2.29v0.59c0 3.23-2.17 6.03-7.21 6.03"/>
      <path d="m341.75 372.77c-0.59 0-1.5 0.11999-2.09 0.31999-2.13 0.71-4.02 2.76-4.02 6.03v11.39h-2.44v-19.71h2.4v3.71h0.08c1.85-2.76 3.79-3.9 6.62-3.9 0.75 0 1.26 0.11 1.86 0.19v2.25c-0.82999-0.2-1.94-0.27999-2.41-0.27999"/>
      <path d="m347.39 370.8h2.44v19.71h-2.44z"/>
      <path d="m379.27 390.51v-13.24c0-3.35-1.66-4.85-3.98-4.85-2.84 0-5.72 2.88-5.72 6.42v11.67h-2.44v-13.24c0-3.35-1.65-4.85-3.98-4.85-2.84 0-5.72 2.88-5.72 6.42v11.67h-2.44v-19.71h2.37v3.43h0.11c1.42-2.36 3.28-3.9 6.35-3.9 3.11 0 4.85 1.85 5.48 3.94h0.16c1.41-2.36 3.38-3.94 6.5-3.94 4.14 0 5.75 3.19 5.75 5.99v14.19z"/>
      <path d="m398.85 378.09c0-2.75-0.94-5.71-5-5.71-3.79 0-5.44 2.64-5.44 5.36v1.69h10.44zm-4.33 12.89c-4.89 0-8.5899-2.48-8.5899-8.04v-4.41c0-5.44 3.35-8.2 8-8.2 4.53 0 7.29 2.84 7.29 7.92v3.16h-12.81v1.45c0 3.39 2.09 5.99 6.27 5.99 2.01 0 3.82-1.3 4.88-2.68l1.66 1.11c-1.7 2.52-4.14 3.7-6.7 3.7"/>
    </g>
    <g>
      <path d="m331.69 412.86h-2.4786l-0.34422-3.0552h-3.5199l-1.0973 3.0552h-2.655l5.5423-13.972h2.556zm-5.6456-5.0475h2.6248l-0.6024-5.9941h-0.0303z"/>
      <path d="m312.45 398.88c4.5182 0 5.8435 3.7738 5.8435 6.8074 0 4.161-2.3236 7.1774-5.3444 7.1774h-5.8478l1.5792-13.985zm-2.6764 11.648h2.2634c2.6722 0 3.7694-2.4656 3.7694-4.8797 0-2.4613-1.3296-4.4321-3.8211-4.4321h-1.1661z"/>
      <path d="m306.15 401.21h-4.6688l-0.37891 3.2961h4.1008l-0.26662 2.3452h-4.1008l-0.4175 3.6662h5.8823l-0.26662 2.3366h-8.2877l1.5922-13.981h7.0785z"/>
      <path d="m319.89 398.88-1.5964 13.985h2.4097l1.5964-13.985z"/>
      <path d="m296.83 412.86h-2.3236l-0.34856-9.4538h-0.0347l-4.1998 9.4538h-1.1489l-1.9923-9.7205h-0.0347l-2.556 9.7205h-2.4226l3.6834-13.985h2.6421l1.8288 8.7954 3.8168-8.7954h2.556z"/>
      <path d="m340.24 402.28c-0.7315-0.65403-1.9407-1.2307-2.8056-1.2307-0.88215 0-1.5964 0.61536-1.5964 1.5362 0 2.0096 4.1653 2.2764 4.1653 6.1921 0 2.2591-1.2909 4.2858-3.834 4.2858-1.6395 0-2.84-0.51205-3.8512-1.3339l0.36157-2.4398c0.91657 0.82189 2.2591 1.4372 3.2101 1.4372 0.97679 0 1.6309-0.61531 1.6309-1.5362 0-2.315-4.174-2.5861-4.174-6.2523 0-2.4183 1.6954-4.2256 3.9846-4.2256 1.0973 0 2.2591 0.39148 3.2402 1.1059z"/>
      <path d="m349.27 401.26h-4.7635l-0.38714 3.3693h4.1826l-0.27096 2.3882h-4.1868l-0.42183 3.4725h6.0027l-0.27529 2.3839h-8.4555l1.6266-13.998h7.2205z"/>
      <path d="m360.19 401.27h-3.7608l-1.3985 11.579h-2.4527l1.3942-11.579h-3.6662l0.27096-2.3839h9.884z"/>
    </g>
  </g>
</svg>
