<?xml version="1.0" encoding="UTF-8" standalone="no"?>
<svg xmlns="http://www.w3.org/2000/svg" height="128.77" width="600" version="1.1" viewBox="0 0 158.75 34.069934">
 <defs>
  <radialGradient id="a" gradientUnits="userSpaceOnUse" cy="0" cx="0" gradientTransform="matrix(69.035 .43693 .43693 -69.035 327.85 102.27)" r="1">
   <stop stop-color="#b41f62" offset="0"/>
   <stop stop-color="#b41f62" offset=".45894"/>
   <stop stop-color="#801648" offset="1"/>
  </radialGradient>
 </defs>
 <g transform="translate(-289.53 -87.197)">
  <path fill="url(#a)" d="m322.27 87.197v1.9456c-0.88797 0.04989-1.7859 0.17959-2.634 0.40906l-0.6984-1.6861-1.2871 0.53877 0.67845 1.6163c-0.84806 0.3492-1.6462 0.7882-2.3746 1.307l-1.1075-1.1075-1.0077 0.97776 1.0376 1.0276 0.76824 0.77822 0.2195 0.16961 0.17959-0.15964c1.9256-1.6163 4.3999-2.5043 6.9142-2.5043 2.5442 0 5.0085 0.88797 6.9142 2.4943l0.20952 0.2195 0.0299-0.04989h0.0199l1.9755-1.9755-1.0177-0.97776-1.1075 1.1075c-0.72834-0.51881-1.5265-0.95781-2.3646-1.307l0.67845-1.6163-1.297-0.53877-0.70838 1.6861c-0.83809-0.22948-1.736-0.35918-2.624-0.40906v-1.9456zm-24.72 4.41c0 0.61858 0.27937 1.1673 0.71836 1.5365h-8.1015c0.15963 2.2948-0.44898 3.6516-0.63854 5.1682h0.6086c0.2195-1.2172 2.0952-4.2403 4.7691-4.2403h2.644v15.435c0 1.7161 0 1.9456-2.3347 2.4544l-0.67845 0.15963v0.40907h9.9672v-0.40907l-0.75826-0.15963c-2.1551-0.3492-2.3047-0.72834-2.3047-2.185v-15.704h2.5542c2.6739 0 4.4798 2.6839 4.8589 4.2403h0.6086c-0.36915-1.5564-0.84806-3.4421-0.6086-5.1682h-8.1613c0.44897-0.36916 0.74829-0.9179 0.74829-1.5365 0-1.0875-0.88797-1.9555-1.9456-1.9555-1.0775 0-1.9456 0.86802-1.9456 1.9555m0.88797 0c0-0.58865 0.46893-1.0576 1.0576-1.0576 0.5687 0 1.0276 0.46893 1.0276 1.0576 0 0.57868-0.45895 1.0476-1.0276 1.0476-0.58866 0-1.0576-0.46893-1.0576-1.0476m61.32 11.224c0 5.3478 4.5895 9.9273 10.177 9.9273 1.1773 0 2.3347-0.19954 3.4322-0.6086 3.8312-1.3968 6.7745-5.0784 6.8144-9.3087 0-1.1673-0.19955-2.3047-0.55872-3.3922-1.4367-3.8013-5.3777-6.5949-9.7078-6.5949-5.3378 0-10.157 4.3999-10.157 9.9772m3.9011 0.01c0-5.1582 2.604-9.1491 6.2557-9.1491 3.8312 0 6.2956 4.4897 6.2956 9.1491 0 4.9487-2.5841 9.1192-6.2956 9.1192-3.7414 0-6.2557-4.0308-6.2557-9.1192m-50.904-0.01c0 5.3478 4.5895 9.9273 10.187 9.9273 1.1773 0 2.3546-0.19954 3.4322-0.6086 3.8312-1.3968 6.7645-5.0784 6.8244-9.3087 0-1.1673-0.2195-2.3047-0.5687-3.3922-1.4367-3.8013-5.3877-6.5949-9.7178-6.5949-5.3378 0-10.157 4.3999-10.157 9.9772m3.931 0.01c0-5.1582 2.604-9.1491 6.2258-9.1491 3.8312 0 6.3056 4.4897 6.3056 9.1491 0 4.9487-2.5841 9.1192-6.3056 9.1192-3.7115 0-6.2258-4.0308-6.2258-9.1192m68.693-4.38c0 1.8458 1.0177 3.7814 3.8213 5.0385l3.6816 1.6861c1.317 0.51881 2.7238 1.6861 2.7238 3.2925 0 2.4145-2.1052 3.4322-3.7315 3.4322-3.7215 0-5.697-2.7138-6.6049-5.3976h-0.5687c0.25941 2.0054 0.44898 3.4621 0.16962 5.2181-0.61859 3.8312-4.0208 8.8099-15.265 7.0738-5.4775-0.85804-10.835-4.1306-14.058-8.4108-2.205-2.9133-4.8389-6.4952-6.6548-6.4952 2.0952-0.32924 5.4276-2.165 5.4276-5.1782 0-3.1129-2.8634-5.5772-7.5627-5.5772h-9.8275v0.41904l1.297 0.25941c1.5664 0.31927 1.756 0.57868 1.756 1.9056v13.778c0 1.8757-0.22948 2.0254-2.3746 2.4544l-0.67845 0.15963v0.40907h9.9971v-0.40907l-1.307-0.22947c-1.7261-0.33923-1.7261-0.95781-1.7261-2.0453v-5.697c2.7737 0 5.2081 4.2702 7.3033 6.4552 1.4966 1.5465 7.5028 9.4783 18.198 10.506 15.734 1.5365 16.223-8.6602 16.432-9.3985 1.3669 0.0499 3.7215 1.0476 6.0462 1.0476 3.7913 0 6.3056-2.2748 6.3056-5.7468 0-2.5242-1.1174-4.1705-3.5319-5.2081l-4.1804-1.7859c-1.0576-0.46893-2.2848-1.1474-2.2848-2.9732 0-1.5465 1.297-3.2725 3.6616-3.2725 2.3347 0 4.4498 2.4344 4.9686 5.3079h0.60861s-0.48889-1.8558-0.48889-3.6417c0-0.48888 0.0399-0.96779 0.12971-1.4068-0.41904 0.05986-0.55873 0.05986-1.0077 0.05986-1.0376-0.01995-1.8059-1.2072-4.4398-1.2072-4.0707 0-6.2357 2.7836-6.2357 5.5772m-41.475-4.39h1.7759c2.2948 0 4.5795 1.766 4.5795 4.4698 0 4.4199-3.7814 4.7691-6.3555 4.799zm25.192 6.2756c0 0.46893 0.63854 1.7859 0.63854 2.2249v0.0399c-0.66847-0.0299-1.4966-0.46893-1.756-0.46893-0.4789 0-0.73831 0.42902-0.73831 0.72833 0 0.24943 0.13968 0.77822 0.71836 0.77822 0.26938 0 1.2272-0.63854 1.736-0.65849v0.0299c0 0.45895-0.62857 1.766-0.62857 2.2449 0 0.43899 0.49886 0.77822 0.89795 0.77822 0.48888 0 0.9179-0.33923 0.9179-0.77822 0-0.72834-0.70838-1.6063-0.73831-2.2748h0.0299c0.67845 0.0998 1.5465 0.65849 1.8258 0.65849 0.5687 0 0.6984-0.54874 0.6984-0.77822 0-0.23945-0.16961-0.72833-0.66847-0.72833-0.12971 0-0.3492 0.0399-0.57868 0.13968h-0.0599c-0.32925 0.10975-0.86802 0.29931-1.2172 0.32925 0.0299-0.66848 0.72834-1.5465 0.72834-2.2648 0-0.44897-0.42902-0.7882-0.91791-0.7882-0.39908 0-0.88797 0.33922-0.88797 0.7882m-47.003 0c0 0.46893 0.6585 1.7859 0.6585 2.2249v0.0399c-0.68843-0.0299-1.5066-0.46893-1.746-0.46893-0.51882 0-0.77822 0.42902-0.77822 0.72833 0 0.24943 0.13968 0.77822 0.73831 0.77822 0.27936 0 1.2172-0.63854 1.756-0.65849v0.0299c0 0.45895-0.65849 1.766-0.65849 2.2449 0 0.43899 0.49886 0.77822 0.89795 0.77822 0.51881 0 0.90792-0.33923 0.90792-0.77822 0-0.72834-0.6984-1.6063-0.72833-2.2748h0.0599c0.65849 0.0998 1.5265 0.65849 1.8059 0.65849 0.55872 0 0.70838-0.54874 0.70838-0.77822 0-0.23945-0.18957-0.72833-0.68843-0.72833-0.10974 0-0.35917 0.0399-0.58865 0.13968h-0.0199c-0.35918 0.10975-0.86802 0.29931-1.2172 0.32925 0-0.66848 0.6984-1.5465 0.6984-2.2648 0-0.44897-0.39909-0.7882-0.9179-0.7882-0.37913 0-0.88797 0.33922-0.88797 0.7882m95.242-0.77822v0.14966l0.35918 0.04989c0.53877 0.10975 0.62856 0.29931 0.45895 0.72833l-1.6363 3.6117-1.4666-3.6117c-0.13968-0.33922-0.13968-0.62856 0.28934-0.70838l0.50884-0.06984v-0.14966h-3.3124v0.14966l0.42902 0.06984c0.36916 0.08979 0.50884 0.20952 0.58866 0.40907l2.5342 5.8965 2.4245-5.5972c0.20952-0.42902 0.13968-0.59863 0.93785-0.70838l0.48888-0.07982v-0.13968zm-13.14 0c0.0399 0.76825-0.13969 1.2172-0.2195 1.736h0.2195c0.0698-0.42901 0.66847-1.4267 1.5664-1.4267h0.878v5.1482c0 0.55872 0 0.62856-0.77822 0.79817l-0.20953 0.0499v0.14965h3.3124v-0.14965l-0.25941-0.0499c-0.71835-0.10975-0.77822-0.22948-0.77822-0.71836v-5.228h0.85804c0.88797 0 1.4966 0.89795 1.6163 1.4267h0.20952c-0.10975-0.52879-0.27937-1.1673-0.20952-1.736z"/>
  <g fill="#801648">
   <path d="m427.42 112.77h0.84846v-20.205h-0.84846z"/>
   <path d="m439.88 99.434v2.5542h-2.5841v-2.5542h-1.3868v6.6947h1.3868v-2.9932h2.5841v2.9932h1.3968v-6.6947z"/>
   <path d="m443.98 100.58v4.38h1.2871c0.65849 0 1.1374-0.32924 1.3868-0.97776 0.14965-0.36916 0.20952-0.7882 0.20952-1.2871 0-0.65849-0.10975-1.1973-0.31927-1.5465-0.2195-0.36916-0.63854-0.5687-1.2771-0.5687zm2.5641-1.0177c0.46892 0.17959 0.83808 0.44897 1.1274 0.87799 0.25941 0.31927 0.39909 0.67845 0.48888 1.0576 0.0698 0.38911 0.11973 0.77822 0.11973 1.1075 0 0.88797-0.16961 1.6462-0.53877 2.2548-0.46893 0.83809-1.2272 1.2671-2.2349 1.2671h-2.8934v-6.6947h2.8934c0.39909 0.01995 0.77822 0.05986 1.0376 0.1297"/>
  </g>
 </g>
</svg>
