<?xml version="1.0" encoding="UTF-8" standalone="no"?>
<svg xmlns="http://www.w3.org/2000/svg" height="156.75" width="600" version="1.1" viewBox="0 0 158.75003 41.473257">
 <defs>
  <radialGradient id="a" gradientUnits="userSpaceOnUse" cy="0" cx="0" gradientTransform="matrix(84.036 .53187 .53187 -84.036 322.01 101.85)" r="1">
   <stop stop-color="#b41f62" offset="0"/>
   <stop stop-color="#b41f62" offset=".45894"/>
   <stop stop-color="#801648" offset="1"/>
  </radialGradient>
 </defs>
 <g transform="translate(-275.36 -83.496)">
  <path fill="url(#a)" d="m315.22 83.496v2.3683c-1.0809 0.06073-2.174 0.21861-3.2063 0.49795l-0.85016-2.0525-1.5667 0.65584 0.82588 1.9675c-1.0323 0.42508-2.004 0.95947-2.8906 1.591l-1.3481-1.3481-1.2267 1.1902 1.2631 1.251 0.93518 0.94733 0.2672 0.20647 0.21861-0.19432c2.344-1.9675 5.356-3.0484 8.4166-3.0484 3.097 0 6.0969 1.0809 8.4166 3.0363l0.25505 0.26719 0.0364-0.06073h0.0242l2.4048-2.4048-1.2388-1.1902-1.3481 1.3481c-0.88661-0.63155-1.8582-1.1659-2.8784-1.591l0.82587-1.9675-1.5789-0.65584-0.86231 2.0525c-1.0202-0.27934-2.1133-0.43723-3.1942-0.49795v-2.3683zm-30.096 5.3682c0 0.753 0.34008 1.421 0.87446 1.8704h-9.8619c0.19432 2.7934-0.54654 4.4451-0.7773 6.2912h0.74085c0.2672-1.4817 2.5505-5.1617 5.8054-5.1617h3.2185v18.789c0 2.089 0 2.3683-2.842 2.9877l-0.82588 0.19431v0.49796h12.133v-0.49796l-0.92303-0.19431c-2.6234-0.42508-2.8055-0.88661-2.8055-2.6598v-19.117h3.1092c3.2549 0 5.4532 3.2671 5.9147 5.1617h0.74085c-0.44937-1.8947-1.0323-4.1901-0.74085-6.2912h-9.9348c0.54653-0.44937 0.91089-1.1174 0.91089-1.8704 0-1.3238-1.0809-2.3805-2.3683-2.3805-1.3117 0-2.3683 1.0566-2.3683 2.3805m1.0809 0c0-0.71657 0.57082-1.2874 1.2874-1.2874 0.69227 0 1.251 0.57082 1.251 1.2874 0 0.70442-0.55868 1.2752-1.251 1.2752-0.71658 0-1.2874-0.57082-1.2874-1.2752m74.644 13.663c0 6.5098 5.5868 12.084 12.388 12.084 1.4331 0 2.842-0.2429 4.1779-0.74085 4.6638-1.7003 8.2466-6.1819 8.2952-11.331 0-1.421-0.24291-2.8055-0.68013-4.1294-1.7489-4.6273-6.5463-8.028-11.817-8.028-6.4977 0-12.364 5.356-12.364 12.145m4.7488 0.0122c0-6.2791 3.1699-11.137 7.615-11.137 4.6638 0 7.6636 5.4653 7.6636 11.137 0 6.024-3.1456 11.101-7.6636 11.101-4.5544 0-7.615-4.9067-7.615-11.101m-61.965-0.0122c0 6.5098 5.5868 12.084 12.4 12.084 1.4331 0 2.8663-0.2429 4.178-0.74085 4.6638-1.7003 8.2345-6.1819 8.3073-11.331 0-1.421-0.2672-2.8055-0.69228-4.1294-1.7489-4.6273-6.5584-8.028-11.829-8.028-6.4977 0-12.364 5.356-12.364 12.145m4.7852 0.0122c0-6.2791 3.1699-11.137 7.5786-11.137 4.6638 0 7.6758 5.4653 7.6758 11.137 0 6.024-3.1456 11.101-7.6758 11.101-4.518 0-7.5786-4.9067-7.5786-11.101m83.62-5.3317c0 2.2469 1.2388 4.603 4.6516 6.1333l4.4816 2.0525c1.6032 0.63154 3.3156 2.0525 3.3156 4.0079 0 2.9391-2.5626 4.178-4.5423 4.178-4.5302 0-6.9349-3.3035-8.0401-6.5706h-0.69228c0.31578 2.4412 0.54655 4.2144 0.20648 6.3519-0.75301 4.6638-4.8945 10.724-18.582 8.611-6.6677-1.0445-13.19-5.0281-17.113-10.238-2.6841-3.5464-5.8904-7.9065-8.1009-7.9065 2.5505-0.40078 6.607-2.6355 6.607-6.3034 0-3.7893-3.4857-6.7892-9.206-6.7892h-11.98v0.516l1.5789 0.31578c1.9068 0.38865 2.1376 0.70442 2.1376 2.3197v16.773c0 2.2833-0.27934 2.4655-2.8906 2.9877l-0.82587 0.19432v0.49796h12.169v-0.49796l-1.591-0.27934c-2.1011-0.41294-2.1011-1.1659-2.1011-2.4898v-6.9349c3.3764 0 6.3398 5.1982 8.8903 7.858 1.8218 1.8825 9.1332 11.538 22.153 12.789 19.153 1.8704 19.748-10.542 20.003-11.441 1.6639 0.0607 4.5302 1.2752 7.36 1.2752 4.6152 0 7.6758-2.7691 7.6758-6.9956 0-3.0727-1.3603-5.0767-4.2994-6.3398l-5.0888-2.174c-1.2874-0.57083-2.7813-1.3967-2.7813-3.6193 0-1.8825 1.5789-3.9836 4.4573-3.9836 2.842 0 5.4168 2.9634 6.0483 6.4612h0.74086s-0.59512-2.259-0.59512-4.433c0-0.59512 0.0486-1.1781 0.15789-1.7125-0.51009 0.07287-0.68014 0.07287-1.2267 0.07287-1.2631-0.02429-2.1983-1.4696-5.4046-1.4696-4.9552 0-7.5908 3.3885-7.5908 6.7892m-50.488-5.3439h2.1618c2.7934 0 5.5746 2.1497 5.5746 5.4411 0 5.3803-4.603 5.8054-7.7365 5.8418zm30.667 7.6393c0 0.57082 0.77729 2.174 0.77729 2.7084v0.0486c-0.81372-0.0364-1.8218-0.57082-2.1376-0.57082-0.58296 0-0.89874 0.52224-0.89874 0.88659 0 0.30363 0.17003 0.94733 0.87446 0.94733 0.32791 0 1.4938-0.7773 2.1133-0.80158v0.0364c0 0.55867-0.76515 2.1497-0.76515 2.7327 0 0.53438 0.60726 0.94733 1.0931 0.94733 0.59511 0 1.1174-0.41295 1.1174-0.94733 0-0.88661-0.86231-1.9554-0.89875-2.7691h0.0364c0.82588 0.12149 1.8825 0.80158 2.2226 0.80158 0.69228 0 0.85016-0.66798 0.85016-0.94732 0-0.29149-0.20646-0.8866-0.81373-0.8866-0.15789 0-0.42508 0.0486-0.70442 0.17003h-0.0729c-0.40079 0.1336-1.0566 0.36435-1.4817 0.4008 0.0364-0.81374 0.88661-1.8825 0.88661-2.757 0-0.54653-0.52225-0.95947-1.1174-0.95947-0.4858 0-1.0809 0.41294-1.0809 0.95947m-57.216 0c0 0.57082 0.80159 2.174 0.80159 2.7084v0.0486c-0.83803-0.0364-1.8339-0.57083-2.1254-0.57083-0.63156 0-0.94732 0.52224-0.94732 0.88659 0 0.30363 0.17003 0.94733 0.89874 0.94733 0.34006 0 1.4817-0.77729 2.1376-0.80158v0.0364c0 0.55868-0.80158 2.1497-0.80158 2.7327 0 0.53438 0.60726 0.94733 1.0931 0.94733 0.63155 0 1.1052-0.41295 1.1052-0.94733 0-0.8866-0.85016-1.9554-0.88659-2.7691h0.0729c0.80158 0.12149 1.8582 0.80158 2.1983 0.80158 0.68012 0 0.86231-0.66798 0.86231-0.94732 0-0.29149-0.23077-0.8866-0.83803-0.8866-0.13358 0-0.43722 0.0486-0.71656 0.17003h-0.0242c-0.43722 0.1336-1.0566 0.36435-1.4817 0.4008 0-0.81374 0.85016-1.8825 0.85016-2.757 0-0.54653-0.48581-0.95947-1.1174-0.95947-0.46152 0-1.0809 0.41294-1.0809 0.95947m115.95-0.947v0.18218l0.43723 0.06073c0.65585 0.1336 0.76515 0.36435 0.55868 0.8866l-1.9918 4.3966-1.7854-4.3966c-0.17004-0.41293-0.17004-0.76514 0.35221-0.86231l0.61941-0.08502v-0.18218h-4.0322v0.18218l0.52225 0.08502c0.44938 0.1093 0.61941 0.25505 0.71657 0.49796l3.0849 7.1778 2.9513-6.8135c0.25505-0.52224 0.17003-0.72871 1.1416-0.86231l0.59511-0.09716v-0.17003zm-15.995 0c0.0486 0.93519-0.17004 1.4817-0.2672 2.1133h0.2672c0.085-0.52224 0.81373-1.7368 1.9068-1.7368h1.0688v6.2669c0 0.68013 0 0.76515-0.94733 0.97161l-0.25506 0.0607v0.18217h4.0322v-0.18217l-0.31578-0.0607c-0.87444-0.1336-0.94732-0.27934-0.94732-0.87446v-6.3641h1.0445c1.0809 0 1.8218 1.0931 1.9675 1.7368h0.25505c-0.1336-0.6437-0.34008-1.421-0.25505-2.1133z"/>
 </g>
</svg>
