<?xml version="1.0" encoding="UTF-8" standalone="no"?>
<svg xmlns="http://www.w3.org/2000/svg" xml:space="preserve" height="271.7" viewBox="0 0 600 271.70013" width="600" version="1.1"><g stroke-width="2.3098" fill="#d82a5f" transform="matrix(1.3333 0 0 -1.3333 336.98 147.64)"><path d="m-74.622 74.901-35.568-57.745c-1.1549-1.6169-1.6169-4.8506-1.3859-6.6984l10.856-82.46c0.23098-2.0788 2.0788-3.4647 4.1576-3.2337l39.729 5.3125c2.0788 0.23098 3.4647 2.0788 3.2337 4.1576l-18.482 140.44c-0.46196 1.8478-1.6169 2.0788-2.5408 0.23098"/><path d="m-93.793 75.363-49.199-6.4675c-2.0788-0.23098-4.3886-1.8478-5.5435-3.6957l-48.968-80.612c-0.92392-1.6169-2.0788-1.6169-2.3098 0.46196l-9.4702 71.373c-0.23098 2.0788-2.0788 3.4647-4.1576 3.2337l-36.033-4.8506c-2.0788-0.23098-3.4647-2.0788-3.2337-4.1576l18.478-140.44c0.23098-2.0788 2.0788-3.4647 4.1576-3.2337l36.264 4.8506c2.0788 0.23098 4.3886 1.8478 5.5435 3.4647l96.314 157.07c0.92392 2.0788 0.23098 3.2337-1.8478 3.0027"/><path d="m100.92 101-48.503-6.466c-2.0788-0.23098-4.3886-1.8478-5.5435-3.4647l-49.199-80.612c-1.1549-1.6169-2.0788-1.3859-2.3098 0.46196l-9.4702 71.373c-0.23098 2.0788-2.0788 3.4647-4.1576 3.2337l-36.264-5.0816c-2.0788-0.23098-3.4647-2.0788-3.2337-4.1576l18.478-140.21c0.23098-2.0788 2.0788-3.4647 4.1576-3.2337l36.264 4.8506c2.0788 0.23098 4.3886 1.8478 5.5435 3.4647l95.858 157.07c1.1549 1.8478 0.23098 3.0027-1.6169 2.7718"/><path d="m174.61 110.7-49.199-6.4674c-2.0788-0.23098-4.3886-1.8478-5.5435-3.6957l-96.094-157.06c-1.1549-1.6169-0.23098-3.0027 1.6169-2.5408l48.968 6.4675c2.0788 0.23098 4.3886 1.8478 5.5435 3.6957l13.859 22.867 57.283 7.6224 2.5408-19.864c0.23098-2.0788 2.0788-3.4647 4.1576-3.2337l36.264 4.8506c2.0788 0.23098 3.4647 2.0788 3.2337 4.1576l-18.48 140.44c-0.23099 1.6169-2.0788 3.0028-4.1576 2.7718m-55.897-96.319 21.25 34.878c0.92392 1.6169 2.0788 1.3859 2.3098-0.46196l4.1576-30.72z"/></g></svg>
