<?xml version="1.0" encoding="UTF-8" standalone="no"?>
<svg xmlns="http://www.w3.org/2000/svg" xml:space="preserve" height="270.56" viewBox="0 0 600 270.55704" width="600" version="1.1" y="0px" x="0px"><style type="text/css"><![CDATA[
	.st0{clip-path:url(#SVGID_4_);fill:#00345F;}
	.st1{clip-path:url(#SVGID_6_);fill:#00345F;}
	.st2{clip-path:url(#SVGID_8_);fill:#00345F;}
	.st3{clip-path:url(#SVGID_10_);fill:#00345F;}
	.st4{fill:#00345F;}
	.st5{clip-path:url(#SVGID_2_);fill:#00345F;}
]]></style><g stroke-width="3.9788"><path d="m477.45 87.533h67.639l-54.907 39.788 21.088 64.456-54.907-39.788-42.573 30.637-23.475 86.34h136.48l73.21-268.96h-136.47l-6.7639 24.668z" fill="#00a591"/><path d="m64.854 88.727v-88.727h57.294v20.292h-31.832v18.7h28.647v19.496h-28.642v30.239z"/><path d="m138.06 53.316v-53.316h25.464v52.122c0 12.732 3.5809 18.302 15.915 18.302 11.141 0 14.721-6.366 14.721-17.905v-52.519h23.475v50.928c0 26.26-13.528 39.788-38.594 39.788-27.056 0-40.981-11.936-40.981-37.401"/><path d="m235.54 0h25.862l24.271 35.013c6.366 9.1512 9.947 15.915 10.345 16.313h0.39788c0-0.79576-0.39788-8.3554-0.39788-15.517v-35.809h23.077v89.125h-23.475l-27.454-38.594c-6.7639-9.1512-9.1512-13.926-9.947-14.721 0 0.79576 0.39788 6.7639 0.39788 13.528v39.788h-23.077z"/><path d="m389.12 40.584 31.432 48.143h-29.841l-26.658-41.777v41.777h-25.85v-88.727h25.862v37.401l27.85-37.401h27.851z"/><path d="m91.114 192.18v-35.42h-31.432v35.411h-25.862v-89.12h25.862v33.024h31.432v-33.024h25.464v89.125z"/><path d="m182.63 159.55-4.7745-13.926c-2.7852-7.9576-3.9788-15.119-3.9788-15.517h-0.39788c0 0.39787-1.5915 7.9576-3.9788 15.517l-4.7745 13.926zm-20.69-56.499h24.668l35.411 89.125h-27.851l-4.3767-12.732h-31.83l-3.9788 12.732h-25.862z"/><path d="m229.97 156.76v-53.71h25.464v51.724c0 12.732 3.5809 18.302 15.915 18.302 11.141 0 14.721-5.9682 14.721-17.507v-52.52h23.475v50.928c0 26.26-13.528 39.788-38.594 39.788-27.056 0-40.981-11.936-40.981-37.003"/><path d="m321.09 185.41 9.947-17.904c3.183 1.9894 10.345 5.9682 19.496 5.9682 7.5597 0 11.936-1.9894 11.936-6.366 0-5.5703-9.5491-6.7639-20.292-11.538-11.538-5.1724-19.098-13.13-19.098-27.851 0-15.915 14.324-26.26 32.228-26.26 15.517 0 24.668 4.3767 29.443 7.9576l-9.5491 17.905c-3.9788-1.9894-11.538-5.1724-17.905-5.1724-5.9682 0-9.947 1.1936-9.947 5.5703 0 5.1724 7.9576 7.1618 17.507 11.141 11.936 4.7745 22.281 11.141 22.281 27.056 0 17.905-13.926 28.647-35.809 28.647-14.721-0.79576-25.464-5.5703-30.239-9.1512"/><path d="m17.109 244.3v10.345h23.873v14.324h-40.982v-61.671h40.584v14.721h-23.475v9.1512h20.69v13.13z"/><path d="m52.122 244.69v-37.003h17.507v35.809c0 8.7533 2.7851 12.732 10.743 12.732 7.5597 0 10.345-4.3767 10.345-12.334v-36.207h16.313v35.411c0 18.302-9.1512 27.454-26.658 27.454-18.7-0.39787-28.249-8.3554-28.249-25.862"/><path d="m144.83 234.35c5.1724 0 7.5597-2.7852 7.5597-6.7639 0-4.7745-2.3873-6.7639-8.3554-6.7639h-6.366v13.528zm-24.668-27.056h25.066c15.915 0 24.668 6.366 24.668 18.7 0 9.947-6.7639 14.721-12.334 15.915 2.7852 0.79575 5.1724 3.5809 7.9576 9.1512l9.5491 17.507h-19.098l-9.1512-17.109c-2.3873-4.7745-3.9788-5.1724-5.9682-5.1724h-3.183v22.281h-17.507z"/><path d="m225.6 238.33c0-9.5491-3.5809-17.905-13.926-17.905-10.743 0-14.721 7.9576-14.721 17.507 0 9.5491 3.9788 18.302 14.324 18.302s14.324-8.3554 14.324-17.905m-47.347 0c0-16.711 11.141-31.83 33.024-31.83s33.024 15.119 33.024 31.432c0 16.711-10.345 32.228-32.626 32.228-21.883 0-33.422-15.517-33.422-31.83"/><path d="m276.13 238.33c6.366 0 9.1512-3.183 9.1512-9.1512 0-5.5703-2.7851-8.7533-8.7533-8.7533h-5.1724v17.905zm-22.281-31.034h23.873c14.324 0 25.066 7.1618 25.066 21.485 0 14.324-10.743 22.281-26.658 22.281h-4.3767v17.905h-17.507z"/><path d="m338.59 246.68-3.183-9.5491c-1.9894-5.5703-2.7852-10.345-2.7852-10.743 0 0.39788-1.1936 5.5703-2.7851 10.743l-3.183 9.5491zm-14.324-39.39h17.109l24.271 61.671h-19.098l-2.7851-8.7533h-21.883l-2.7852 8.7533h-17.905z"/></g></svg>
